<?xml version="1.0" encoding="UTF-8" standalone="no"?>
<svg width="32px" height="32px" viewBox="0 0 32 32" version="1.1" xmlns="http://www.w3.org/2000/svg" xmlns:xlink="http://www.w3.org/1999/xlink" xmlns:sketch="http://www.bohemiancoding.com/sketch/ns">
    <!-- Generator: Sketch 3.0.3 (7891) - http://www.bohemiancoding.com/sketch -->
    <title>icon 41 unamused face tightly closed eyes</title>
    <desc>Created with Sketch.</desc>
    <defs></defs>
    <g id="Page-1" stroke="none" stroke-width="1" fill="none" fill-rule="evenodd" sketch:type="MSPage">
        <g id="icon-41-unamused-face-tightly-closed-eyes" sketch:type="MSArtboardGroup" fill="#929292">
            <path d="M16.5,29 C23.4035597,29 29,23.4035597 29,16.5 C29,9.59644029 23.4035597,4 16.5,4 C9.59644029,4 4,9.59644029 4,16.5 C4,23.4035597 9.59644029,29 16.5,29 L16.5,29 Z M16.5,28 C22.8512749,28 28,22.8512749 28,16.5 C28,10.1487251 22.8512749,5 16.5,5 C10.1487251,5 5,10.1487251 5,16.5 C5,22.8512749 10.1487251,28 16.5,28 L16.5,28 Z M16.4969482,22 C13.5,22 12,23 12,23 C12,23 13,20 16.5,20 C20,20 21,23 21,23 C21,23 19.4938965,22 16.4969482,22 L16.4969482,22 Z M21.5606602,16.5606602 L18.732233,13.732233 L21.5606602,10.9038059 L22.267767,11.6109127 L20.1464466,13.732233 L22.267767,15.8535534 L21.5606602,16.5606602 L21.5606602,16.5606602 Z M11.4393398,10.9038059 L14.267767,13.732233 L11.4393398,16.5606602 L10.732233,15.8535534 L12.8535534,13.732233 L10.732233,11.6109127 L11.4393398,10.9038059 L11.4393398,10.9038059 Z" id="unamused-face-tightly-closed-eyes" sketch:type="MSShapeGroup"></path>
        </g>
    </g>
</svg>