<?xml version="1.0" encoding="UTF-8" standalone="no"?>
<svg width="32px" height="32px" viewBox="0 0 32 32" version="1.1" xmlns="http://www.w3.org/2000/svg" xmlns:xlink="http://www.w3.org/1999/xlink" xmlns:sketch="http://www.bohemiancoding.com/sketch/ns">
    <!-- Generator: Sketch 3.0.3 (7891) - http://www.bohemiancoding.com/sketch -->
    <title>icon 91 inbox document text</title>
    <desc>Created with Sketch.</desc>
    <defs></defs>
    <g id="Page-1" stroke="none" stroke-width="1" fill="none" fill-rule="evenodd" sketch:type="MSPage">
        <g id="icon-91-inbox-document-text" sketch:type="MSArtboardGroup" fill="#929292">
            <path d="M29,20.5 L29,19 L26,14.2 L26,11 L26,11 L20,4 L9.00276013,4 C7.89666625,4 7,4.89702623 7,6.00494659 L7,14.2 L7,14.2 L4,19 L4,28 L29,28 L29,20.5 L29,20.5 Z M7,19 L7,16.1599609 L5.22497559,19 L7,19 L7,19 L7,19 Z M27.7750244,19 L26,16.1599609 L26,19 L27.7750244,19 L27.7750244,19 L27.7750244,19 Z M8,19 L8,6.00307055 C8,5.43891776 8.44573523,5 8.9955775,5 L19,5 L19,9.99408095 C19,11.1134452 19.8944962,12 20.9979131,12 L25,12 L25,19 L8,19 L8,19 Z M20,5.5 L20,9.99121523 C20,10.5483517 20.4506511,11 20.9967388,11 L24.6999512,11 L20,5.5 L20,5.5 Z M10,15 L10,16 L23,16 L23,15 L10,15 L10,15 Z M10,7 L10,8 L17,8 L17,7 L10,7 L10,7 Z M10,11 L10,12 L17,12 L17,11 L10,11 L10,11 Z M12,21 C12,22.1045695 12.8958578,23 13.9973917,23 L19.0026083,23 C20.1057373,23 21,22.1122704 21,21 L21,20 L12,20 L12,21 L12,21 Z" id="inbox-document-text" sketch:type="MSShapeGroup"></path>
        </g>
    </g>
</svg>