<?xml version="1.0" encoding="UTF-8" standalone="no"?>
<svg width="32px" height="32px" viewBox="0 0 32 32" version="1.1" xmlns="http://www.w3.org/2000/svg" xmlns:xlink="http://www.w3.org/1999/xlink" xmlns:sketch="http://www.bohemiancoding.com/sketch/ns">
    <!-- Generator: Sketch 3.0.3 (7891) - http://www.bohemiancoding.com/sketch -->
    <title>icon 107 folder forbidden</title>
    <desc>Created with Sketch.</desc>
    <defs></defs>
    <g id="Page-1" stroke="none" stroke-width="1" fill="none" fill-rule="evenodd" sketch:type="MSPage">
        <g id="icon-107-folder-forbidden" sketch:type="MSArtboardGroup" fill="#929292">
            <path d="M30.7683612,19.0311352 C31.5383938,19.9774896 32,21.1848378 32,22.5 C32,25.5375663 29.5375663,28 26.5,28 C25.1848378,28 23.9774896,27.5383938 23.0311352,26.7683612 L30.7683612,19.0311352 L30.7683612,19.0311352 Z M30.0696389,18.315644 C29.1089449,17.4952991 27.8623141,17 26.5,17 C23.4624337,17 21,19.4624337 21,22.5 C21,23.8623141 21.4952991,25.1089449 22.315644,26.0696389 L30.0696389,18.315644 L30.0696389,18.315644 Z M21.0218178,26 L1.99328744,26 C0.899712682,26 0,25.1085295 0,24.008845 L0,13 L0,13 L29,13 L29,16.4981633 C28.2304079,16.1772281 27.3859009,16 26.5,16 C22.9101489,16 20,18.9101489 20,22.5 C20,23.7886423 20.3749964,24.9896995 21.0218178,26 L21.0218178,26 L21.0218178,26 Z M3.33066907e-16,12 L3.33066907e-16,5.991155 C3.33066907e-16,4.88967395 0.896666251,4 2.00276013,4 L13,4 L15,8 L26.9941413,8 C28.1029399,8 29,8.8932319 29,9.99508929 L29,12 L0,12 L3.33066907e-16,12 L3.33066907e-16,12 Z" id="folder-forbidden" sketch:type="MSShapeGroup"></path>
        </g>
    </g>
</svg>