<?xml version="1.0" encoding="UTF-8" standalone="no"?>
<svg width="32px" height="32px" viewBox="0 0 32 32" version="1.1" xmlns="http://www.w3.org/2000/svg" xmlns:xlink="http://www.w3.org/1999/xlink" xmlns:sketch="http://www.bohemiancoding.com/sketch/ns">
    <!-- Generator: Sketch 3.0.3 (7891) - http://www.bohemiancoding.com/sketch -->
    <title>icon 89 inboxes</title>
    <desc>Created with Sketch.</desc>
    <defs></defs>
    <g id="Page-1" stroke="none" stroke-width="1" fill="none" fill-rule="evenodd" sketch:type="MSPage">
        <g id="icon-89-inboxes" sketch:type="MSArtboardGroup" fill="#929292">
            <path d="M27,21 L27,14.5 L27,13 L22,5 L7,5 L2,13 L2,21 L27,21 L27,21 Z M10,22 L2,22 L2,30 L27,30 L27,22 L27,22 L19,22 L19,23.5000354 C19,24.888681 18.1057373,26 17.0026083,26 L11.9973917,26 C10.8958578,26 10,24.8807277 10,23.5000354 L10,22 L10,22 Z M10,13 L3.22497559,13 L7.59997559,6 L21.4000244,6 L25.7750244,13 L19,13 L19,14.9940809 C19,16.1134452 18.1057373,17 17.0026083,17 L11.9973917,17 C10.8958578,17 10,16.1019194 10,14.9940809 L10,13 L10,13 Z" id="inboxes" sketch:type="MSShapeGroup"></path>
        </g>
    </g>
</svg>