<?xml version="1.0" encoding="UTF-8" standalone="no"?>
<svg width="32px" height="32px" viewBox="0 0 32 32" version="1.1" xmlns="http://www.w3.org/2000/svg" xmlns:xlink="http://www.w3.org/1999/xlink" xmlns:sketch="http://www.bohemiancoding.com/sketch/ns">
    <!-- Generator: Sketch 3.0.3 (7891) - http://www.bohemiancoding.com/sketch -->
    <title>icon 72 documents</title>
    <desc>Created with Sketch.</desc>
    <defs></defs>
    <g id="Page-1" stroke="none" stroke-width="1" fill="none" fill-rule="evenodd" sketch:type="MSPage">
        <g id="icon-72-documents" sketch:type="MSArtboardGroup" fill="#929292">
            <path d="M8.99742191,3 C9.00396511,1.89438261 9.90169458,1 11.0085302,1 L21,1 L21,7.00189865 C21,8.11329365 21.8980806,9 23.0059191,9 L28,9 L28,26.0025781 C28,27.1090746 27.1057238,28 26.0025781,28 C25.9960568,29.1056174 25.1032923,30 24.0025781,30 C23.9960568,31.1056174 23.1032923,32 22.0025781,32 L6.99742191,32 C5.89092539,32 5,31.1012878 5,29.9926701 L5,7.00732994 C5,5.89833832 5.89427625,5 6.99742191,5 C7,3.89833832 7.89427625,3 8.99742191,3 L8.99742191,3 Z M7,27.9926701 C7,29.1012878 7.89092539,30 8.99742191,30 L23,30.004543 C23,30.5447371 22.5523026,31 22.0000398,31 L6.9999602,31 C6.45470893,31 6,30.5543187 6,30.004543 L6,6.99545703 C6,6.45526288 6.44769743,6 6.9999602,6 L7,27.9926701 L7,27.9926701 Z M8,4.99545703 L8,28.004543 C8,28.5543187 8.45470893,29 8.9999602,29 L24.0000398,29 C24.5523026,29 25,28.5447371 25,28.004543 L10.9974219,28 C9.89092539,28 9,27.1012878 9,25.9926701 L9,4 C8.44769743,4 8,4.45526288 8,4.99545703 L8,4.99545703 Z M22,1 L22,6.99707067 C22,7.55097324 22.4509752,8 22.990778,8 L28,8 L22,1 L22,1 Z" id="documents" sketch:type="MSShapeGroup"></path>
        </g>
    </g>
</svg>