<?xml version="1.0" encoding="UTF-8" standalone="no"?>
<svg width="32px" height="32px" viewBox="0 0 32 32" version="1.1" xmlns="http://www.w3.org/2000/svg" xmlns:xlink="http://www.w3.org/1999/xlink" xmlns:sketch="http://www.bohemiancoding.com/sketch/ns">
    <!-- Generator: Sketch 3.0.3 (7891) - http://www.bohemiancoding.com/sketch -->
    <title>icon 2 mail envelope open</title>
    <desc>Created with Sketch.</desc>
    <defs></defs>
    <g id="Page-1" stroke="none" stroke-width="1" fill="none" fill-rule="evenodd" sketch:type="MSPage">
        <g id="icon-2-mail-envelope-open" sketch:type="MSArtboardGroup" fill="#929292">
            <path d="M11.2931426,19 L8,16.2000122 L8,8.00207596 C8,7.44373571 8.44769743,7 8.9999602,7 L24.0000398,7 C24.5452911,7 25,7.44864469 25,8.00207596 L25,16.2000122 L21.6668971,19 L11.2931426,19 L11.2931426,19 Z M12.4692701,20 L14.2521973,21.5159302 L18.671936,21.5159302 L20.476498,20 L12.4692701,20 L12.4692701,20 Z M22.1851633,20.1270029 L20,22 L20,22 L25.9230769,27.0769231 L25.9230769,27.0769231 L25.1153846,27.8846154 L19.1195568,22.7453344 L13.8961462,22.7681253 L13.875,22.75 L7.88461538,27.8846154 L7.07692308,27.0769231 L7.07692308,27.0769231 L13,22 L10.8148367,20.1270029 L7,16.9000244 L7,11.36 L4,14 L4,15 L4,28.0059397 C4,29.1072288 4.88976324,30 6.00359486,30 L26.9964051,30 C28.10296,30 29,29.1054862 29,28.0059397 L29,14 L26,11.36 L26,16.9000244 L22.1851633,20.1270029 L22.1851633,20.1270029 L22.1851633,20.1270029 Z M19.9090909,6 L16.5,3 L13.0909091,6 L19.9090909,6 L19.9090909,6 L19.9090909,6 Z M10,10 L10,11 L23,11 L23,10 L10,10 L10,10 Z M10,13 L10,14 L23,14 L23,13 L10,13 L10,13 Z M10,16 L10,17 L23,17 L23,16 L10,16 L10,16 Z" id="mail-envelope-open" sketch:type="MSShapeGroup"></path>
        </g>
    </g>
</svg>