<?xml version="1.0" encoding="UTF-8" standalone="no"?>
<svg width="32px" height="32px" viewBox="0 0 32 32" version="1.1" xmlns="http://www.w3.org/2000/svg" xmlns:xlink="http://www.w3.org/1999/xlink" xmlns:sketch="http://www.bohemiancoding.com/sketch/ns">
    <!-- Generator: Sketch 3.0.3 (7891) - http://www.bohemiancoding.com/sketch -->
    <title>icon 142 box</title>
    <desc>Created with Sketch.</desc>
    <defs></defs>
    <g id="Page-1" stroke="none" stroke-width="1" fill="none" fill-rule="evenodd" sketch:type="MSPage">
        <g id="icon-142-box" sketch:type="MSArtboardGroup" fill="#929292">
            <path d="M29,11 L29,14 L29,14 L4,14 L4,11 L29,11 L29,11 Z M4,15 L4,30 L29,30 L29,15 L4,15 L4,15 L4,15 Z M9,2 L4,10 L29,10 L24,2 L9,2 L9,2 Z M13.9973917,20 C12.8942627,20 12,20.8877296 12,22 C12,23.1045695 12.8958578,24 13.9973917,24 L19.0026083,24 C20.1057373,24 21,23.1122704 21,22 C21,20.8954305 20.1041422,20 19.0026083,20 L13.9973917,20 L13.9973917,20 Z" id="box" sketch:type="MSShapeGroup"></path>
        </g>
    </g>
</svg>