<?xml version="1.0" encoding="UTF-8" standalone="no"?>
<svg width="32px" height="32px" viewBox="0 0 32 32" version="1.1" xmlns="http://www.w3.org/2000/svg" xmlns:xlink="http://www.w3.org/1999/xlink" xmlns:sketch="http://www.bohemiancoding.com/sketch/ns">
    <!-- Generator: Sketch 3.0.3 (7891) - http://www.bohemiancoding.com/sketch -->
    <title>icon 45 bowling pins</title>
    <desc>Created with Sketch.</desc>
    <defs></defs>
    <g id="Page-1" stroke="none" stroke-width="1" fill="none" fill-rule="evenodd" sketch:type="MSPage">
        <g id="icon-45-bowling-pins" sketch:type="MSArtboardGroup" fill="#929292">
            <path d="M21.02494,14 L21,12 L23,12 L22.9626965,14 L21.02494,14 L21.02494,14 Z M20.5755801,15 C19.9776926,16.0456098 19,18.1825225 19,20.9760742 C19,24.5 20.6000061,27 20.6000061,27 L23.3999939,27 C23.3999939,27 25,24.5012817 25,20.9760742 C25,18.1838108 24.0151633,16.0460037 23.4131287,15 L20.5755801,15 L20.5755801,15 Z M20.9392662,11 C20.722536,9.32752753 20,8.77503177 20,7.5 C20,6.38772964 20.9512939,5.97973633 22,5.97973633 C23.0487061,5.97973633 24,6.3954305 24,7.5 C24,8.77353163 23.2791632,9.33924939 23.0615009,11 L20.9392662,11 L20.9392662,11 L20.9392662,11 Z M9.02494005,14 L9,12 L9,12 L11,12 L10.9626965,14 L9.02494005,14 L9.02494005,14 Z M8.57558012,15 C7.97769256,16.0456098 7,18.1825225 7,20.9760742 C7,24.5 8.6000061,27 8.6000061,27 L11.3999939,27 C11.3999939,27 13,24.5012817 13,20.9760742 C13,18.1838108 12.0151633,16.0460037 11.4131287,15 L8.57558012,15 L8.57558012,15 L8.57558012,15 Z M8.9392662,11 C8.722536,9.32752753 8,8.77503177 8,7.5 C8,6.38772964 8.95129395,5.97973633 10,5.97973633 C11.0487061,5.97973633 12,6.3954305 12,7.5 C12,8.77353163 11.2791632,9.33924939 11.0615009,11 L8.9392662,11 L8.9392662,11 L8.9392662,11 Z M14,20.9760742 C14,24.9974976 12,28 12,28 L8,28 C8,28 6,25 6,20.9760742 C6,16.9521484 8,14 8,14 L8,12 C8,10 7,9 7,7.5 C7,6.38772964 8,5 10,5 C12,5 13,6.3954305 13,7.5 C13,9 12,10 12,12 L12,14 C12.0002709,14.0004003 14,16.9549233 14,20.9760742 L14,20.9760742 Z M26,20.9760742 C26,24.9974976 24,28 24,28 L20,28 C20,28 18,25 18,20.9760742 C18,16.9521484 20,14 20,14 L20,12 C20,10 19,9 19,7.5 C19,6.38772964 20,5 22,5 C24,5 25,6.3954305 25,7.5 C25,9 24,10 24,12 L24,14 C24.0002709,14.0004003 26,16.9549233 26,20.9760742 L26,20.9760742 Z" id="bowling-pins" sketch:type="MSShapeGroup"></path>
        </g>
    </g>
</svg>