<?xml version="1.0" encoding="UTF-8" standalone="no"?>
<svg width="32px" height="32px" viewBox="0 0 32 32" version="1.1" xmlns="http://www.w3.org/2000/svg" xmlns:xlink="http://www.w3.org/1999/xlink" xmlns:sketch="http://www.bohemiancoding.com/sketch/ns">
    <!-- Generator: Sketch 3.0.3 (7891) - http://www.bohemiancoding.com/sketch -->
    <title>icon 34 grinning face teeth</title>
    <desc>Created with Sketch.</desc>
    <defs></defs>
    <g id="Page-1" stroke="none" stroke-width="1" fill="none" fill-rule="evenodd" sketch:type="MSPage">
        <g id="icon-34-grinning-face-teeth" sketch:type="MSArtboardGroup" fill="#157EFB">
            <path d="M19,20 L17,20 L17,21 L19,21 L19,20 L19,20 L19,20 Z M20,20 L20.4935615,20 C21.1517723,20 21.7084513,20.4174038 21.9145895,21 L20,21 L20,20 L20,20 Z M19,23 L17,23 L17,23 L17,22 L19,22 L19,23 L19,23 L19,23 Z M20,23 L20.4935615,23 C21.1503273,23 21.70893,22.5851089 21.9150859,22 L20,22 L20,23 L20,23 L20,23 Z M16,20 L14,20 L14,21 L16,21 L16,20 L16,20 L16,20 Z M16,23 L14,23 L14,23 L14,22 L16,22 L16,23 L16,23 L16,23 Z M13,20 L12.5064385,20 C11.8496727,20 11.29107,20.4148911 11.0849141,21 L11.0849141,21 L13,21 L13,20 L13,20 L13,20 Z M13,23 L12.5064385,23 C11.8482277,23 11.2915487,22.5825962 11.0854105,22 L11.0854105,22 L13,22 L13,23 L13,23 L13,23 Z M16.5,29 C23.4035597,29 29,23.4035597 29,16.5 C29,9.59644029 23.4035597,4 16.5,4 C9.59644029,4 4,9.59644029 4,16.5 C4,23.4035597 9.59644029,29 16.5,29 L16.5,29 Z M16.5,28 C22.8512749,28 28,22.8512749 28,16.5 C28,10.1487251 22.8512749,5 16.5,5 C10.1487251,5 5,10.1487251 5,16.5 C5,22.8512749 10.1487251,28 16.5,28 L16.5,28 Z M12,15 C12.5522848,15 13,14.5522848 13,14 C13,13.4477152 12.5522848,13 12,13 C11.4477152,13 11,13.4477152 11,14 C11,14.5522848 11.4477152,15 12,15 L12,15 Z M21,15 C21.5522848,15 22,14.5522848 22,14 C22,13.4477152 21.5522848,13 21,13 C20.4477152,13 20,13.4477152 20,14 C20,14.5522848 20.4477152,15 21,15 L21,15 Z M12.5065308,19 C11.122212,19 10,20.1096621 10,21.5 C10,22.8807119 11.1196242,24 12.5065308,24 L20.4934692,24 C21.877788,24 23,22.8903379 23,21.5 C23,20.1192881 21.8803758,19 20.4934692,19 L12.5065308,19 L12.5065308,19 Z M19,10 L19,11 L23,11 L23,10 L19,10 L19,10 Z M10,10 L10,11 L14,11 L14,10 L10,10 L10,10 Z" id="grinning-face-teeth" sketch:type="MSShapeGroup"></path>
        </g>
    </g>
</svg>