<?xml version="1.0" encoding="UTF-8" standalone="no"?>
<svg width="32px" height="32px" viewBox="0 0 32 32" version="1.1" xmlns="http://www.w3.org/2000/svg" xmlns:xlink="http://www.w3.org/1999/xlink" xmlns:sketch="http://www.bohemiancoding.com/sketch/ns">
    <!-- Generator: Sketch 3.0.3 (7891) - http://www.bohemiancoding.com/sketch -->
    <title>icon 55 compass east</title>
    <desc>Created with Sketch.</desc>
    <defs></defs>
    <g id="Page-1" stroke="none" stroke-width="1" fill="none" fill-rule="evenodd" sketch:type="MSPage">
        <g id="icon-55-compass-east" sketch:type="MSArtboardGroup" fill="#157EFB">
            <path d="M29,16 C29,23.1797021 23.1797021,29 16,29 C8.8202979,29 3,23.1797021 3,16 C3,8.8202979 8.8202979,3 16,3 C23.1797021,3 29,8.8202979 29,16 L29,16 Z M28,16 C28,22.6274173 22.6274173,28 16,28 C9.37258267,28 4,22.6274173 4,16 C4,9.37258267 9.37258267,4 16,4 C22.6274173,4 28,9.37258267 28,16 L28,16 Z M13,16 C13,17.6568542 14.3368622,19 16,19 C18,19 25,16 25,16 C25,16 18,13 16,13 C14.3431458,13 13,14.3465171 13,16 L13,16 Z M18,16 C18,17.1045696 17.1045696,18 16,18 C14.8954304,18 14,17.1045696 14,16 C14,14.8954304 14.8954304,14 16,14 C17.1045696,14 18,14.8954304 18,16 L18,16 Z" id="compass-east" sketch:type="MSShapeGroup"></path>
        </g>
    </g>
</svg>