<?xml version="1.0" encoding="UTF-8" standalone="no"?>
<svg width="32px" height="32px" viewBox="0 0 32 32" version="1.1" xmlns="http://www.w3.org/2000/svg" xmlns:xlink="http://www.w3.org/1999/xlink" xmlns:sketch="http://www.bohemiancoding.com/sketch/ns">
    <!-- Generator: Sketch 3.0.3 (7891) - http://www.bohemiancoding.com/sketch -->
    <title>icon 52 barometer</title>
    <desc>Created with Sketch.</desc>
    <defs></defs>
    <g id="Page-1" stroke="none" stroke-width="1" fill="none" fill-rule="evenodd" sketch:type="MSPage">
        <g id="icon-52-barometer" sketch:type="MSArtboardGroup" fill="#157EFB">
            <path d="M17.8918009,21.422938 C18.5601588,21.8716786 19,22.6344741 19,23.5 C19,24.8807119 17.8807119,26 16.5,26 C15.1192881,26 14,24.8807119 14,23.5 C14,22.6344741 14.4398412,21.8716786 15.1081991,21.422938 L16.5,14 L17.8918009,21.422938 L17.8918009,21.422938 L17.8918009,21.422938 Z M29.2764573,23.8716537 C29.7454752,22.5005711 30,21.0300093 30,19.5 C30,12.0441555 23.9558445,6 16.5,6 C9.04415551,6 3,12.0441555 3,19.5 C3,21.0300093 3.25452479,22.5005711 3.72354267,23.8716537 L4.68147508,23.5813712 C4.23984338,22.3023026 4,20.9291605 4,19.5 C4,12.5964403 9.59644029,7 16.5,7 C23.4035597,7 29,12.5964403 29,19.5 C29,20.9291605 28.7601566,22.3023026 28.3185249,23.5813712 L29.2764573,23.8716537 L29.2764573,23.8716537 L29.2764573,23.8716537 Z M16.5,25 C17.3284272,25 18,24.3284272 18,23.5 C18,22.6715728 17.3284272,22 16.5,22 C15.6715728,22 15,22.6715728 15,23.5 C15,24.3284272 15.6715728,25 16.5,25 L16.5,25 L16.5,25 Z M16.5,8 C16.2238576,8 16,8.21505737 16,8.49047852 L16,11.5095215 C16,11.7804053 16.2319336,12 16.5,12 C16.7761424,12 17,11.7849426 17,11.5095215 L17,8.49047852 C17,8.21959471 16.7680664,8 16.5,8 L16.5,8 L16.5,8 Z M23.2613959,10.1969107 C23.0379921,10.0345983 22.7304799,10.0770032 22.5685914,10.2998235 L20.7940425,12.7422806 C20.634821,12.9614302 20.6933846,13.2754132 20.9102549,13.4329787 C21.1336588,13.5952911 21.441171,13.5528862 21.6030595,13.3300659 L23.3776084,10.8876088 C23.5368299,10.6684592 23.4782662,10.3544762 23.2613959,10.1969107 L23.2613959,10.1969107 L23.2613959,10.1969107 Z M27.4401684,15.9484976 C27.3548357,15.6858706 27.0811282,15.5394258 26.8191871,15.6245356 L23.9479067,16.5574711 C23.6902808,16.6411788 23.5531053,16.9296193 23.6359424,17.1845656 C23.721275,17.4471926 23.9949826,17.5936375 24.2569236,17.5085277 L27.1282041,16.5755921 C27.3858299,16.4918844 27.5230055,16.2034439 27.4401684,15.9484976 L27.4401684,15.9484976 L27.4401684,15.9484976 Z M27.4401684,23.05785 C27.5255011,22.795223 27.3901452,22.5158654 27.1282041,22.4307556 L24.2569236,21.49782 C23.9992978,21.4141123 23.7187794,21.5668358 23.6359424,21.8217821 C23.5506097,22.0844091 23.6859656,22.3637667 23.9479067,22.4488765 L26.8191871,23.3818121 C27.0768129,23.4655198 27.3573314,23.3127963 27.4401684,23.05785 L27.4401684,23.05785 L27.4401684,23.05785 Z M5.55983157,23.05785 C5.64516426,23.320477 5.91887179,23.4669219 6.18081286,23.3818121 L9.05209335,22.4488765 C9.30971915,22.3651688 9.44689471,22.0767284 9.36405764,21.8217821 C9.27872495,21.559155 9.00501742,21.4127102 8.74307635,21.49782 L5.87179586,22.4307556 C5.61417006,22.5144633 5.4769945,22.8029037 5.55983157,23.05785 L5.55983157,23.05785 L5.55983157,23.05785 Z M5.55983157,15.9484976 C5.47449889,16.2111246 5.60985479,16.4904823 5.87179586,16.5755921 L8.74307635,17.5085277 C9.00070216,17.5922354 9.28122056,17.4395119 9.36405764,17.1845656 C9.44939032,16.9219386 9.31403442,16.642581 9.05209335,16.5574711 L6.18081286,15.6245356 C5.92318705,15.5408279 5.64266865,15.6935513 5.55983157,15.9484976 L5.55983157,15.9484976 L5.55983157,15.9484976 Z M9.73860407,10.1969107 C9.5152002,10.3592231 9.46050312,10.6647884 9.62239161,10.8876088 L11.3969405,13.3300659 C11.556162,13.5492155 11.8728748,13.5905442 12.0897451,13.4329787 C12.313149,13.2706663 12.367846,12.965101 12.2059575,12.7422806 L10.4314086,10.2998235 C10.2721871,10.0806739 9.95547435,10.0393452 9.73860407,10.1969107 L9.73860407,10.1969107 L9.73860407,10.1969107 Z" id="barometer" sketch:type="MSShapeGroup"></path>
        </g>
    </g>
</svg>