<?xml version="1.0" encoding="UTF-8" standalone="no"?>
<svg width="32px" height="32px" viewBox="0 0 32 32" version="1.1" xmlns="http://www.w3.org/2000/svg" xmlns:xlink="http://www.w3.org/1999/xlink" xmlns:sketch="http://www.bohemiancoding.com/sketch/ns">
    <!-- Generator: Sketch 3.0.3 (7891) - http://www.bohemiancoding.com/sketch -->
    <title>icon 51 crescent</title>
    <desc>Created with Sketch.</desc>
    <defs></defs>
    <g id="Page-1" stroke="none" stroke-width="1" fill="none" fill-rule="evenodd" sketch:type="MSPage">
        <g id="icon-51-crescent" sketch:type="MSArtboardGroup" fill="#157EFB">
            <path d="M16,11 C18.7614239,11 21,13.2385761 21,16 C21,18.7614239 18.7614239,21 16,21 C17.6568543,21 19,18.7614239 19,16 C19,13.2385761 17.6568543,11 16,11 C15.9998042,11 15.9996084,11 15.9994126,11.0000001 L16,11 Z M16,22 C12.6862913,22 10,19.3137087 10,16 C10,12.6862913 12.6862913,10 16,10 C19.3137087,10 22,12.6862913 22,16 C22,19.3137087 19.3137087,22 16,22 L16,22 Z" id="crescent" sketch:type="MSShapeGroup"></path>
        </g>
    </g>
</svg>