<?xml version="1.0" encoding="UTF-8" standalone="no"?>
<svg width="32px" height="32px" viewBox="0 0 32 32" version="1.1" xmlns="http://www.w3.org/2000/svg" xmlns:xlink="http://www.w3.org/1999/xlink" xmlns:sketch="http://www.bohemiancoding.com/sketch/ns">
    <!-- Generator: Sketch 3.0.3 (7891) - http://www.bohemiancoding.com/sketch -->
    <title>icon 73 wind turbine</title>
    <desc>Created with Sketch.</desc>
    <defs></defs>
    <g id="Page-1" stroke="none" stroke-width="1" fill="none" fill-rule="evenodd" sketch:type="MSPage">
        <g id="icon-73-wind-turbine" sketch:type="MSArtboardGroup" fill="#157EFB">
            <path d="M18.3851423,15.1489195 C22.4345704,16.9592954 24.6173213,17.7979654 24.6173213,17.7979654 C24.6173213,17.7979654 22.1455614,15.8277287 19.2032513,13.726359 C19.0665374,14.2761399 18.7781751,14.7659861 18.3851423,15.1489195 L18.3851423,15.1489195 L18.3851423,15.1489195 Z M13.3785577,13.7192585 C9.74084898,16.3517113 7.90017493,17.8412982 7.90017493,17.8412982 C7.90017493,17.8412982 10.8853518,16.6689135 14.2053013,15.1555999 C13.8070581,14.7700479 13.515337,14.2751274 13.3785577,13.7192585 L13.3785577,13.7192585 L13.3785577,13.7192585 Z M19.259605,12.5590517 C21.8149878,14.3737243 27.96199,18.8389755 27.5652303,19.5261841 C27.1694193,20.2117497 20.2610975,17.1373155 17.3992099,15.8262632 L17.3992099,15.8262632 L18.2917827,31 C18.2917827,31 17.7917827,32 16.2917827,32 C14.7917827,32 14.2917827,31 14.2917827,31 L15.1843554,15.8262632 L15.1843554,15.8262632 C12.322468,17.1373154 5.41414674,20.2117493 5.01833505,19.5261841 C4.62157479,18.8389759 10.7685774,14.3737244 13.3239604,12.5590517 C13.4365335,11.7948098 13.8372888,11.1243447 14.4122805,10.661602 C14.7072543,7.53219067 15.4995185,3.58885692e-07 16.2917827,0 C17.0840469,-3.58885704e-07 17.8763111,7.53219053 18.1712849,10.661602 C18.7462766,11.1243447 19.1470319,11.7948098 19.259605,12.5590517 L19.259605,12.5590517 L19.259605,12.5590517 Z M16.173264,15.9977018 L15.3024028,30.6765747 C15.3024028,30.6765747 15.4961894,30.9999981 16.2917827,31 C17.0873759,31.0000019 17.2914775,30.6765747 17.2914775,30.6765747 L16.4115341,15.9976536 C16.3718105,15.999213 16.3318885,16 16.2917827,16 C16.2520917,16 16.2125808,15.9992292 16.173264,15.9977018 L16.173264,15.9977018 L16.173264,15.9977018 Z M17.121434,10.1161956 C16.6609588,5.65560243 16.2917827,3.31994629 16.2917827,3.31994629 C16.2917827,3.31994629 15.8152163,6.48667909 15.4658794,10.1151219 C15.7282571,10.0401473 16.0053314,10 16.2917827,10 C16.5795983,10 16.8579475,10.0405306 17.121434,10.1161956 L17.121434,10.1161956 L17.121434,10.1161956 Z M16.2917827,15 C17.3963522,15 18.2917827,14.1045696 18.2917827,13 C18.2917827,11.8954304 17.3963522,11 16.2917827,11 C15.1872131,11 14.2917827,11.8954304 14.2917827,13 C14.2917827,14.1045696 15.1872131,15 16.2917827,15 L16.2917827,15 Z" id="wind-turbine" sketch:type="MSShapeGroup"></path>
        </g>
    </g>
</svg>