<?xml version="1.0" encoding="UTF-8" standalone="no"?>
<svg width="32px" height="32px" viewBox="0 0 32 32" version="1.1" xmlns="http://www.w3.org/2000/svg" xmlns:xlink="http://www.w3.org/1999/xlink" xmlns:sketch="http://www.bohemiancoding.com/sketch/ns">
    <!-- Generator: Sketch 3.0.3 (7891) - http://www.bohemiancoding.com/sketch -->
    <title>icon 4 mail envelope open</title>
    <desc>Created with Sketch.</desc>
    <defs></defs>
    <g id="Page-1" stroke="none" stroke-width="1" fill="none" fill-rule="evenodd" sketch:type="MSPage">
        <g id="icon-4-mail-envelope-open" sketch:type="MSArtboardGroup" fill="#157EFB">
            <path d="M16.5,4.30000019 L27.5,14 L16.5,23.5 L5.5,14 L16.5,4.30000019 L16.5,4.30000019 Z M28,14.88 L28,28.0033563 C28,28.5501437 27.55091,29 26.9969294,29 L6.00307055,29 C5.43891776,29 5,28.5537874 5,28.0033563 L5,14.88 L16.5,25 L28,14.88 L28,14.88 L28,14.88 Z M29,28.0059397 C29,29.1054862 28.10296,30 26.9964051,30 L6.00359486,30 C4.88976324,30 4,29.1072288 4,28.0059397 L4,14 L16.5,3 L29,14 L29,28.0059397 L29,28.0059397 Z" id="mail-envelope-open-2" sketch:type="MSShapeGroup"></path>
        </g>
    </g>
</svg>