<?xml version="1.0" encoding="UTF-8" standalone="no"?>
<svg width="32px" height="32px" viewBox="0 0 32 32" version="1.1" xmlns="http://www.w3.org/2000/svg" xmlns:xlink="http://www.w3.org/1999/xlink" xmlns:sketch="http://www.bohemiancoding.com/sketch/ns">
    <!-- Generator: Sketch 3.0.3 (7891) - http://www.bohemiancoding.com/sketch -->
    <title>icon 87 document font</title>
    <desc>Created with Sketch.</desc>
    <defs></defs>
    <g id="Page-1" stroke="none" stroke-width="1" fill="none" fill-rule="evenodd" sketch:type="MSPage">
        <g id="icon-87-document-font" sketch:type="MSArtboardGroup" fill="#157EFB">
            <path d="M22,25.5001831 C21.5821697,25.8140276 21.062803,26 20.5,26 C19.1192881,26 18,24.8807119 18,23.5 C18,22.1192881 19.1192881,21 20.5,21 C21.062803,21 21.5821697,21.1859724 22,21.4998169 L22,21 L23,21 L23,26 L22,26 L22,25.5001831 L22,25.5001831 Z M14.9285714,23 L16,26 L17,26 L14,18 L13,18 L10,26 L11,26 L11,26 L12.0714286,23 L14.9285714,23 L14.9285714,23 Z M14.5714286,22 L13.5,19 L12.4285714,22 L14.5714286,22 L14.5714286,22 L14.5714286,22 Z M19.5,3 L9.00276013,3 C7.89666625,3 7,3.89833832 7,5.00732994 L7,27.9926701 C7,29.1012878 7.89092539,30 8.99742191,30 L24.0025781,30 C25.1057238,30 26,29.1017876 26,28.0092049 L26,10.5 L26,10 L20,3 L19.5,3 L19.5,3 L19.5,3 Z M19,4 L8.9955775,4 C8.44573523,4 8,4.45526288 8,4.99545703 L8,28.004543 C8,28.5543187 8.45470893,29 8.9999602,29 L24.0000398,29 C24.5523026,29 25,28.5550537 25,28.0066023 L25,11 L20.9979131,11 C19.8944962,11 19,10.1134452 19,8.99408095 L19,4 L19,4 Z M20,4.5 L20,8.99121523 C20,9.54835167 20.4506511,10 20.9967388,10 L24.6999512,10 L20,4.5 L20,4.5 Z M20.5,25 C21.3284272,25 22,24.3284272 22,23.5 C22,22.6715728 21.3284272,22 20.5,22 C19.6715728,22 19,22.6715728 19,23.5 C19,24.3284272 19.6715728,25 20.5,25 L20.5,25 Z" id="document-font" sketch:type="MSShapeGroup"></path>
        </g>
    </g>
</svg>