<?xml version="1.0" encoding="UTF-8" standalone="no"?>
<svg width="32px" height="32px" viewBox="0 0 32 32" version="1.1" xmlns="http://www.w3.org/2000/svg" xmlns:xlink="http://www.w3.org/1999/xlink" xmlns:sketch="http://www.bohemiancoding.com/sketch/ns">
    <!-- Generator: Sketch 3.0.3 (7891) - http://www.bohemiancoding.com/sketch -->
    <title>icon 98 folder upload</title>
    <desc>Created with Sketch.</desc>
    <defs></defs>
    <g id="Page-1" stroke="none" stroke-width="1" fill="none" fill-rule="evenodd" sketch:type="MSPage">
        <g id="icon-98-folder-upload" sketch:type="MSArtboardGroup" fill="#157EFB">
            <path d="M16,27 L3.99296544,27 C3.44610862,27 3,26.5559546 3,26.0081969 L3,15 L30,15 L30,25.9991283 C30,26.5553691 29.5554342,27 29.0070346,27 L17,27 L17,18 L20.25,21.25 L21,20.5 L16.5,16 L12,20.5 L12.75,21.25 L16,18 L16,27 L16,27 Z M3,14 L3,7.99180311 C3,7.45530558 3.44401481,7 3.99173483,7 L14.4000244,7 L16.3599854,11 L28.9970172,11 C29.5461723,11 30,11.4481055 30,12.0008717 L30,14 L3,14 L3,14 Z M17,10 L15,6 L4.00276013,6 C2.89666625,6 2,6.88967395 2,7.991155 L2,26.008845 C2,27.1085295 2.89971268,28 3.99328744,28 L29.0067126,28 C30.1075748,28 31,27.1073772 31,26.0049107 L31,11.9950893 C31,10.8932319 30.1029399,10 28.9941413,10 L17,10 L17,10 Z" id="folder-upload" sketch:type="MSShapeGroup"></path>
        </g>
    </g>
</svg>