<?xml version="1.0" encoding="UTF-8" standalone="no"?>
<svg width="32px" height="32px" viewBox="0 0 32 32" version="1.1" xmlns="http://www.w3.org/2000/svg" xmlns:xlink="http://www.w3.org/1999/xlink" xmlns:sketch="http://www.bohemiancoding.com/sketch/ns">
    <!-- Generator: Sketch 3.0.3 (7891) - http://www.bohemiancoding.com/sketch -->
    <title>icon 91 inbox document text</title>
    <desc>Created with Sketch.</desc>
    <defs></defs>
    <g id="Page-1" stroke="none" stroke-width="1" fill="none" fill-rule="evenodd" sketch:type="MSPage">
        <g id="icon-91-inbox-document-text" sketch:type="MSArtboardGroup" fill="#157EFB">
            <path d="M22,20 L28,20 L28,27 L5,27 L5,20 L11,20 L11,21.5 C11,22.8807119 12.1152735,24 13.4960703,24 L19.5039297,24 C20.8824713,24 22,22.8903379 22,21.5 L22,20 L22,20 L22,20 Z M4,19.5 L4,19 L7,14.2 L7,6.00494659 C7,4.89702623 7.89666625,4 9.00276013,4 L20,4 L26,11 L26,11.5 L26,14.2 L29,19 L29,28 L4,28 L4,19.5 L4,19.5 Z M7,19 L7,16.1599609 L5.22497559,19 L7,19 L7,19 L7,19 Z M26,19 L26,16.1599609 L27.7750244,19 L26,19 L26,19 L26,19 Z M8,19 L8,6.00307055 C8,5.43891776 8.44573523,5 8.9955775,5 L19,5 L19,9.99408095 C19,11.1134452 19.8944962,12 20.9979131,12 L25,12 L25,19 L8,19 L8,19 Z M20,5.5 L20,9.99121523 C20,10.5483517 20.4506511,11 20.9967388,11 L24.6999512,11 L20,5.5 L20,5.5 Z M12,20 L12,21.5 C12,22.3284271 12.6764628,23 13.5063976,23 L19.4936024,23 C20.3255628,23 21,22.3342028 21,21.5 L21,20 L12,20 L12,20 Z M10,15 L10,16 L23,16 L23,15 L10,15 L10,15 Z M10,7 L10,8 L17,8 L17,7 L10,7 L10,7 Z M10,11 L10,12 L17,12 L17,11 L10,11 L10,11 Z" id="inbox-document-text" sketch:type="MSShapeGroup"></path>
        </g>
    </g>
</svg>