<?xml version="1.0" encoding="UTF-8" standalone="no"?>
<svg width="32px" height="32px" viewBox="0 0 32 32" version="1.1" xmlns="http://www.w3.org/2000/svg" xmlns:xlink="http://www.w3.org/1999/xlink" xmlns:sketch="http://www.bohemiancoding.com/sketch/ns">
    <!-- Generator: Sketch 3.0.3 (7891) - http://www.bohemiancoding.com/sketch -->
    <title>icon 93 inbox upload</title>
    <desc>Created with Sketch.</desc>
    <defs></defs>
    <g id="Page-1" stroke="none" stroke-width="1" fill="none" fill-rule="evenodd" sketch:type="MSPage">
        <g id="icon-93-inbox-upload" sketch:type="MSArtboardGroup" fill="#157EFB">
            <path d="M16,6 L12.75,9.25 L12,8.5 L16.5,4 L21,8.5 L20.25,9.25 L17,6 L17,17 L16,17 L16,6 L16,6 Z M18,12 L23.4000244,12 L27.7750244,19 L21,19 L21,21.0020869 C21,22.1017394 20.1057373,23 19.0026083,23 L13.9973917,23 C12.8958578,23 12,22.1055038 12,21.0020869 L12,19 L5.22497559,19 L9.59997559,12 L15,12 L15,11 L9,11 L4,19 L4,19.5 L4,28 L29,28 L29,19.5 L29,19 L24,11 L18,11 L18,12 L18,12 L18,12 Z M22,20 L28,20 L28,27 L5,27 L5,20 L11,20 L11,21.5 C11,22.8807119 12.1152735,24 13.4960703,24 L19.5039297,24 C20.8824713,24 22,22.8903379 22,21.5 L22,20 L22,20 L22,20 Z" id="inbox-upload" sketch:type="MSShapeGroup"></path>
        </g>
    </g>
</svg>