<?xml version="1.0" encoding="UTF-8" standalone="no"?>
<svg width="32px" height="32px" viewBox="0 0 32 32" version="1.1" xmlns="http://www.w3.org/2000/svg" xmlns:xlink="http://www.w3.org/1999/xlink" xmlns:sketch="http://www.bohemiancoding.com/sketch/ns">
    <!-- Generator: Sketch 3.0.3 (7891) - http://www.bohemiancoding.com/sketch -->
    <title>icon 59 document bookmark</title>
    <desc>Created with Sketch.</desc>
    <defs></defs>
    <g id="Page-1" stroke="none" stroke-width="1" fill="none" fill-rule="evenodd" sketch:type="MSPage">
        <g id="icon-59-document-bookmark" sketch:type="MSArtboardGroup" fill="#157EFB">
            <path d="M16,4 L19,4 L19,8.99408095 C19,10.1134452 19.8944962,11 20.9979131,11 L25,11 L25,28.0066023 C25,28.5550537 24.5523026,29 24.0000398,29 L8.9999602,29 C8.45470893,29 8,28.5543187 8,28.004543 L8,4.99545703 C8,4.45526288 8.44573523,4 8.9955775,4 L10,4 L10,15 L13,12 L16,15 L16,4 L16,4 L16,4 Z M19.5,3 L9.00276013,3 C7.89666625,3 7,3.89833832 7,5.00732994 L7,27.9926701 C7,29.1012878 7.89092539,30 8.99742191,30 L24.0025781,30 C25.1057238,30 26,29.1017876 26,28.0092049 L26,10.5 L26,10 L20,3 L19.5,3 L19.5,3 L19.5,3 Z M20,4.5 L20,8.99121523 C20,9.54835167 20.4506511,10 20.9967388,10 L24.6999512,10 L20,4.5 L20,4.5 Z M11,4 L11,12.5999756 L13,10.5999756 L15,12.5999756 L15,4 L11,4 L11,4 Z" id="document-bookmark" sketch:type="MSShapeGroup"></path>
        </g>
    </g>
</svg>