<?xml version="1.0" encoding="UTF-8" standalone="no"?>
<svg width="32px" height="32px" viewBox="0 0 32 32" version="1.1" xmlns="http://www.w3.org/2000/svg" xmlns:xlink="http://www.w3.org/1999/xlink" xmlns:sketch="http://www.bohemiancoding.com/sketch/ns">
    <!-- Generator: Sketch 3.0.3 (7891) - http://www.bohemiancoding.com/sketch -->
    <title>icon 12 mail add</title>
    <desc>Created with Sketch.</desc>
    <defs></defs>
    <g id="Page-1" stroke="none" stroke-width="1" fill="none" fill-rule="evenodd" sketch:type="MSPage">
        <g id="icon-12-mail-add" sketch:type="MSArtboardGroup" fill="#157EFB">
            <path d="M25,20 L25,17 L26,17 L26,20 L29,20 L29,21 L26,21 L26,24 L25,24 L25,21 L22,21 L22,20 L25,20 L25,20 Z M26,15.0224215 L26,9.00684547 C26,8.71711185 25.8808404,8.45596162 25.6868931,8.27226685 L25.6868931,8.27226685 L17.95,15 L20.8662664,17.5358838 C21.8439076,16.0107287 23.5539196,15 25.5,15 C25.6685448,15 25.835319,15.0075813 26,15.0224215 L26,15.0224215 L26,15.0224215 Z M20.4011965,18.434036 L17.2018297,15.6505829 L17.2018297,15.6505829 L14.5,18 L11.7981703,15.6505829 L4.5,22 L20.2070325,22 C20.0721672,21.5231682 20,21.0200119 20,20.5 C20,19.7693084 20.142489,19.071897 20.4011965,18.434036 L20.4011965,18.434036 L20.4011965,18.434036 Z M20.5997073,23 L4.00359486,23 C2.88976324,23 2,22.1072288 2,21.0059397 L2,8.99406028 C2,7.89451376 2.89703997,7 4.00359486,7 L24.9964051,7 C26.1102368,7 27,7.8927712 27,8.99406028 L27,15.2070325 C29.3085049,15.8599613 31,17.9824456 31,20.5 C31,23.5375663 28.5375663,26 25.5,26 C23.3626574,26 21.5100654,24.7808383 20.5997098,23.0000006 L20.5997073,23 L20.5997073,23 Z M3.31500722,8.27391933 C3.12106043,8.45739405 3,8.71770487 3,9.00684547 L3,20.9931545 C3,21.2828882 3.11915965,21.5440384 3.31310687,21.7277332 L3.31310687,21.7277332 L11.05,15 L3.31500722,8.27391933 L3.31500722,8.27391933 L3.31500722,8.27391933 Z M14.5,16.7000122 L24.5,8 L4.5,8 L14.5,16.7000122 L14.5,16.7000122 Z M25.5,25 C27.9852815,25 30,22.9852815 30,20.5 C30,18.0147185 27.9852815,16 25.5,16 C23.0147185,16 21,18.0147185 21,20.5 C21,22.9852815 23.0147185,25 25.5,25 L25.5,25 L25.5,25 Z" id="mail-add" sketch:type="MSShapeGroup"></path>
        </g>
    </g>
</svg>