<?xml version="1.0" encoding="UTF-8" standalone="no"?>
<svg width="32px" height="32px" viewBox="0 0 32 32" version="1.1" xmlns="http://www.w3.org/2000/svg" xmlns:xlink="http://www.w3.org/1999/xlink" xmlns:sketch="http://www.bohemiancoding.com/sketch/ns">
    <!-- Generator: Sketch 3.0.3 (7891) - http://www.bohemiancoding.com/sketch -->
    <title>icon 61 document recording</title>
    <desc>Created with Sketch.</desc>
    <defs></defs>
    <g id="Page-1" stroke="none" stroke-width="1" fill="none" fill-rule="evenodd" sketch:type="MSPage">
        <g id="icon-61-document-recording" sketch:type="MSArtboardGroup" fill="#157EFB">
            <path d="M19.5,3 L9.00276013,3 C7.89666625,3 7,3.89833832 7,5.00732994 L7,27.9926701 C7,29.1012878 7.89092539,30 8.99742191,30 L24.0025781,30 C25.1057238,30 26,29.1017876 26,28.0092049 L26,10.5 L26,10 L20,3 L19.5,3 L19.5,3 L19.5,3 Z M19,4 L8.9955775,4 C8.44573523,4 8,4.45526288 8,4.99545703 L8,28.004543 C8,28.5543187 8.45470893,29 8.9999602,29 L24.0000398,29 C24.5523026,29 25,28.5550537 25,28.0066023 L25,11 L20.9979131,11 C19.8944962,11 19,10.1134452 19,8.99408095 L19,4 L19,4 Z M20,4.5 L20,8.99121523 C20,9.54835167 20.4506511,10 20.9967388,10 L24.6999512,10 L20,4.5 L20,4.5 Z M13,20.4945942 L13,19 L14,19 L14,20.4926111 C14,21.8774037 15.1096621,23 16.5,23 C17.8807119,23 19,21.8753289 19,20.4926111 L19,19 L20,19 L20,20.4945942 C20,22.2621437 18.6961471,23.7217906 17,23.9645376 L17,26 L19,26 L19,27 L14,27 L14,26 L16,26 L16,23.964377 C14.3066821,23.7210154 13,22.2602538 13,20.4945942 L13,20.4945942 Z M15,16.5016756 L15,20.4983244 C15,21.3276769 15.6657972,22 16.5,22 C17.3284271,22 18,21.3288106 18,20.4983244 L18,16.5016756 C18,15.6723231 17.3342028,15 16.5,15 C15.6715729,15 15,15.6711894 15,16.5016756 L15,16.5016756 Z M16.5,16 C16.2238576,16 16,16.2148438 16,16.4976988 L16,20.5023012 C16,20.7771727 16.2319336,21 16.5,21 C16.7761424,21 17,20.7851562 17,20.5023012 L17,16.4976988 C17,16.2228273 16.7680664,16 16.5,16 L16.5,16 Z" id="document-recording" sketch:type="MSShapeGroup"></path>
        </g>
    </g>
</svg>