<?xml version="1.0" encoding="UTF-8" standalone="no"?>
<svg width="32px" height="32px" viewBox="0 0 32 32" version="1.1" xmlns="http://www.w3.org/2000/svg" xmlns:xlink="http://www.w3.org/1999/xlink" xmlns:sketch="http://www.bohemiancoding.com/sketch/ns">
    <!-- Generator: Sketch 3.0.3 (7891) - http://www.bohemiancoding.com/sketch -->
    <title>icon 3 mail envelope closed</title>
    <desc>Created with Sketch.</desc>
    <defs></defs>
    <g id="Page-1" stroke="none" stroke-width="1" fill="none" fill-rule="evenodd" sketch:type="MSPage">
        <g id="icon-3-mail-envelope-closed" sketch:type="MSArtboardGroup" fill="#157EFB">
            <path d="M5.31500722,9.27391933 C5.12106043,9.45739405 5,9.71770487 5,10.0068455 L5,21.9931545 C5,22.5492199 5.43891776,23 6.00307055,23 L26.9969294,23 C27.55091,23 28,22.5500512 28,21.9931545 L28,10.0068455 C28,9.71711185 27.8808404,9.45596162 27.6868931,9.27226685 L16.5,19 L5.31500722,9.27391933 L5.31500722,9.27391933 L5.31500722,9.27391933 Z M6.00359486,8 C4.89703997,8 4,8.89451376 4,9.99406028 L4,22.0059397 C4,23.1072288 4.88976324,24 6.00359486,24 L26.9964051,24 C28.10296,24 29,23.1054862 29,22.0059397 L29,9.99406028 C29,8.8927712 28.1102368,8 26.9964051,8 L6.00359486,8 L6.00359486,8 Z M16.5,17.7000122 L26.5,9 L6.5,9 L16.5,17.7000122 L16.5,17.7000122 Z" id="mail-envelope-closed" sketch:type="MSShapeGroup"></path>
        </g>
    </g>
</svg>