<?xml version="1.0" encoding="UTF-8" standalone="no"?>
<svg width="32px" height="32px" viewBox="0 0 32 32" version="1.1" xmlns="http://www.w3.org/2000/svg" xmlns:xlink="http://www.w3.org/1999/xlink" xmlns:sketch="http://www.bohemiancoding.com/sketch/ns">
    <!-- Generator: Sketch 3.0.3 (7891) - http://www.bohemiancoding.com/sketch -->
    <title>icon 148 tag add</title>
    <desc>Created with Sketch.</desc>
    <defs></defs>
    <g id="Page-1" stroke="none" stroke-width="1" fill="none" fill-rule="evenodd" sketch:type="MSPage">
        <g id="icon-148-tag-add" sketch:type="MSArtboardGroup" fill="#157EFB">
            <path d="M9,21 L9,18 L10,18 L10,21 L13,21 L13,22 L10,22 L10,25 L9,25 L9,22 L6,22 L6,21 L9,21 L9,21 Z M6.01331559,16.0133156 L4,14 L4,5.99961498 C4,4.88743329 4.89525812,4 5.99961498,4 L14,4 L27.3809027,17.3809027 C28.1640508,18.1640508 28.168017,19.4319586 27.3884415,20.2115341 L20.2115341,27.3884415 C19.433119,28.1668566 18.1646418,28.1646418 17.3809027,27.3809027 L14.9866844,24.9866844 C15.6282885,23.9791534 16,22.7829857 16,21.5 C16,17.9101489 13.0898511,15 9.5,15 C8.21701435,15 7.02084661,15.3717115 6.01331559,16.0133156 L6.01331559,16.0133156 L6.01331559,16.0133156 Z M9.5,11 C10.3284272,11 11,10.3284272 11,9.5 C11,8.67157283 10.3284272,8 9.5,8 C8.67157283,8 8,8.67157283 8,9.5 C8,10.3284272 8.67157283,11 9.5,11 L9.5,11 Z M9.5,27 C12.5375663,27 15,24.5375663 15,21.5 C15,18.4624337 12.5375663,16 9.5,16 C6.46243373,16 4,18.4624337 4,21.5 C4,24.5375663 6.46243373,27 9.5,27 L9.5,27 Z" id="tag-add" sketch:type="MSShapeGroup"></path>
        </g>
    </g>
</svg>