<?xml version="1.0" encoding="UTF-8" standalone="no"?>
<svg width="32px" height="32px" viewBox="0 0 32 32" version="1.1" xmlns="http://www.w3.org/2000/svg" xmlns:xlink="http://www.w3.org/1999/xlink" xmlns:sketch="http://www.bohemiancoding.com/sketch/ns">
    <!-- Generator: Sketch 3.0.3 (7891) - http://www.bohemiancoding.com/sketch -->
    <title>icon 132 cloud</title>
    <desc>Created with Sketch.</desc>
    <defs></defs>
    <g id="Page-1" stroke="none" stroke-width="1" fill="none" fill-rule="evenodd" sketch:type="MSPage">
        <g id="icon-132-cloud" sketch:type="MSArtboardGroup" fill="#157EFB">
            <path d="M26.8828633,15.3655101 C28.7132907,16.1085075 30,17.9035809 30,20 C30,22.7558048 27.7616745,25 25.0005601,25 L7.99943992,25 C5.23249418,25 3,22.7614237 3,20 C3,17.9491311 4.23965876,16.1816085 6.01189661,15.4115388 L6.01189661,15.4115388 C6.00400207,15.275367 6,15.1381509 6,15 C6,11.1340066 9.13400656,8 13,8 C15.6127573,8 17.8911816,9.43144875 19.0938083,11.5528817 C19.8206159,11.1987158 20.6371017,11 21.5,11 C24.1486546,11 26.3600217,12.8722494 26.8828633,15.3655101 Z" id="cloud" sketch:type="MSShapeGroup"></path>
        </g>
    </g>
</svg>