<?xml version="1.0" encoding="UTF-8" standalone="no"?>
<svg width="32px" height="32px" viewBox="0 0 32 32" version="1.1" xmlns="http://www.w3.org/2000/svg" xmlns:xlink="http://www.w3.org/1999/xlink" xmlns:sketch="http://www.bohemiancoding.com/sketch/ns">
    <!-- Generator: Sketch 3.0.3 (7891) - http://www.bohemiancoding.com/sketch -->
    <title>icon 31 book bookmark</title>
    <desc>Created with Sketch.</desc>
    <defs></defs>
    <g id="Page-1" stroke="none" stroke-width="1" fill="none" fill-rule="evenodd" sketch:type="MSPage">
        <g id="icon-31-book-bookmark" sketch:type="MSArtboardGroup" fill="#157EFB">
            <path d="M15,8 L11,8 L11,29 L26,29 L26,8.5 L26,8 L25.4953156,8 C24.6694756,8 24,7.33420277 24,6.5 C24,5.67157288 24.6771088,5 25.4953156,5 L26,5 L26,4 L8.49257535,4 C7.115964,4 6,5.10966206 6,6.5 L6,26.0005439 C6,27.6570978 7.34331197,29 8.99420208,29 L10,29 L10,8 L8.49336625,8 C7.66725546,8 7,7.32842712 7,6.5 C7,5.66579723 7.66860284,5 8.49336625,5 L23.5,5 C23.5,5 23,5.73662445 23,6.47355449 C23,7.21048453 23.5,8 23.5,8 L21,8 L21,20 L18,17 L15,20 L15,8 L15,8 Z M16,8 L16,17.5999756 L18,15.5999756 L20,17.5999756 L20,8 L16,8 L16,8 Z" id="book-bookmark" sketch:type="MSShapeGroup"></path>
        </g>
    </g>
</svg>