<?xml version="1.0" encoding="UTF-8" standalone="no"?>
<svg width="32px" height="32px" viewBox="0 0 32 32" version="1.1" xmlns="http://www.w3.org/2000/svg" xmlns:xlink="http://www.w3.org/1999/xlink" xmlns:sketch="http://www.bohemiancoding.com/sketch/ns">
    <!-- Generator: Sketch 3.0.3 (7891) - http://www.bohemiancoding.com/sketch -->
    <title>icon 50 notebook</title>
    <desc>Created with Sketch.</desc>
    <defs></defs>
    <g id="Page-1" stroke="none" stroke-width="1" fill="none" fill-rule="evenodd" sketch:type="MSPage">
        <g id="icon-50-notebook" sketch:type="MSArtboardGroup" fill="#157EFB">
            <path d="M23,2 L25.0025781,2 C26.1090746,2 27,2.89871223 27,4.00732994 L27,26.9926701 C27,28.1016617 26.1057238,29 25.0025781,29 L9.99742191,29 C8.89092539,29 8,28.1012878 8,26.9926701 L8,4.00732994 C8,2.89833832 8.89427625,2 9.99742191,2 L17,2 L17,15 L20,12 L23,15 L23,2 L23,2 L23,2 Z M6,9 L6,10 L8,10 L8,9 L6,9 L6,9 Z M6,13 L6,14 L8,14 L8,13 L6,13 L6,13 Z M6,5 L6,6 L8,6 L8,5 L6,5 L6,5 Z M6,21 L6,22 L8,22 L8,21 L6,21 L6,21 Z M6,25 L6,26 L8,26 L8,25 L6,25 L6,25 Z M6,17 L6,18 L8,18 L8,17 L6,17 L6,17 Z M8,9 L8,10 L10,10 L10,9 L8,9 L8,9 Z M8,13 L8,14 L10,14 L10,13 L8,13 L8,13 Z M8,5 L8,6 L10,6 L10,5 L8,5 L8,5 Z M8,21 L8,22 L10,22 L10,21 L8,21 L8,21 Z M8,25 L8,26 L10,26 L10,25 L8,25 L8,25 Z M8,17 L8,18 L10,18 L10,17 L8,17 L8,17 Z M18,2 L18,12.5999756 L20,10.5999756 L22,12.5999756 L22,2 L18,2 L18,2 Z" id="notebook" sketch:type="MSShapeGroup"></path>
        </g>
    </g>
</svg>