<?xml version="1.0" encoding="UTF-8" standalone="no"?>
<svg width="32px" height="32px" viewBox="0 0 32 32" version="1.1" xmlns="http://www.w3.org/2000/svg" xmlns:xlink="http://www.w3.org/1999/xlink" xmlns:sketch="http://www.bohemiancoding.com/sketch/ns">
    <!-- Generator: Sketch 3.0.3 (7891) - http://www.bohemiancoding.com/sketch -->
    <title>icon 98 folder upload</title>
    <desc>Created with Sketch.</desc>
    <defs></defs>
    <g id="Page-1" stroke="none" stroke-width="1" fill="none" fill-rule="evenodd" sketch:type="MSPage">
        <g id="icon-98-folder-upload" sketch:type="MSArtboardGroup" fill="#157EFB">
            <path d="M16,27 L3.99328744,27 C2.89971268,27 2,26.1085295 2,25.008845 L2,14 L31,14 L31,25.0049107 C31,26.1073772 30.1075748,27 29.0067126,27 L17,27 L17,18 L20.25,21.25 L21,20.5 L16.5,16 L12,20.5 L12.75,21.25 L16,18 L16,27 L16,27 Z M2,13 L2,6.991155 C2,5.88967395 2.89666625,5 4.00276013,5 L15,5 L17,9 L28.9941413,9 C30.1029399,9 31,9.8932319 31,10.9950893 L31,13 L2,13 L2,13 L2,13 Z" id="folder-upload" sketch:type="MSShapeGroup"></path>
        </g>
    </g>
</svg>