<?xml version="1.0" encoding="UTF-8" standalone="no"?>
<svg width="32px" height="32px" viewBox="0 0 32 32" version="1.1" xmlns="http://www.w3.org/2000/svg" xmlns:xlink="http://www.w3.org/1999/xlink" xmlns:sketch="http://www.bohemiancoding.com/sketch/ns">
    <!-- Generator: Sketch 3.0.3 (7891) - http://www.bohemiancoding.com/sketch -->
    <title>icon 8 mail error</title>
    <desc>Created with Sketch.</desc>
    <defs></defs>
    <g id="Page-1" stroke="none" stroke-width="1" fill="none" fill-rule="evenodd" sketch:type="MSPage">
        <g id="icon-8-mail-error" sketch:type="MSArtboardGroup" fill="#157EFB">
            <path d="M21.5322793,19.027668 L18,16 L23.9230769,10.9230769 L23.9230769,10.9230769 L23.1153846,10.1153846 L14.5,17.5 L5.88461538,10.1153846 L5.07692308,10.9230769 L5.07692308,10.9230769 L11,16 L5.07692308,21.0769231 L5.07692308,21.0769231 L5.88461538,21.8846154 L11.875,16.75 L14.5,19 L17.125,16.75 L20.9443347,20.0237154 L18.5972222,24 L4.00359486,24 C2.88976324,24 2,23.1072288 2,22.0059397 L2,9.99406028 C2,8.89451376 2.89703997,8 4.00359486,8 L24.9964051,8 C26.1102368,8 27,8.8927712 27,9.99406028 L27,18.2352941 L24.5,14 L21.5322793,19.027668 L21.5322793,19.027668 L21.5322793,19.027668 Z M24.5,16 L31,27 L18,27 L24.5,16 L24.5,16 Z M24,20 L24,23 L25,23 L25,20 L24,20 L24,20 Z M24,24 L24,25 L25,25 L25,24 L24,24 L24,24 Z" id="mail-error" sketch:type="MSShapeGroup"></path>
        </g>
    </g>
</svg>