<?xml version="1.0" encoding="UTF-8" standalone="no"?>
<svg width="32px" height="32px" viewBox="0 0 32 32" version="1.1" xmlns="http://www.w3.org/2000/svg" xmlns:xlink="http://www.w3.org/1999/xlink" xmlns:sketch="http://www.bohemiancoding.com/sketch/ns">
    <!-- Generator: Sketch 3.0.3 (7891) - http://www.bohemiancoding.com/sketch -->
    <title>icon 67 document graph</title>
    <desc>Created with Sketch.</desc>
    <defs></defs>
    <g id="Page-1" stroke="none" stroke-width="1" fill="none" fill-rule="evenodd" sketch:type="MSPage">
        <g id="icon-67-document-graph" sketch:type="MSArtboardGroup" fill="#157EFB">
            <path d="M19,3 L9.0085302,3 C7.8992496,3 7,3.89833832 7,5.00732994 L7,27.9926701 C7,29.1012878 7.89092539,30 8.99742191,30 L24.0025781,30 C25.1057238,30 26,29.1090746 26,28.0025781 L26,11 L21.0059191,11 C19.8980806,11 19,10.1132936 19,9.00189865 L19,3 L19,3 Z M20,3 L20,8.99707067 C20,9.55097324 20.4509752,10 20.990778,10 L26,10 L20,3 L20,3 Z M14.9593471,21.8014743 L12,24.9749855 L12,25 L22,25 L22,26 L12,26 L12,26 L11,26 L11,18 L12,18 L12,23.5087064 L14.9099918,20.3881222 L15.6413455,21.0701206 L17.1040529,22.4341173 L20.3064191,19 L19,19 L19,18 L22,18 L22,19 L22,21 L21,21 L21,19.7225047 L17.1534082,23.8474694 L16.4220545,23.165471 L14.9593471,21.8014743 L14.9593471,21.8014743 L14.9593471,21.8014743 Z" id="document-graph" sketch:type="MSShapeGroup"></path>
        </g>
    </g>
</svg>