<?xml version="1.0" encoding="UTF-8" standalone="no"?>
<svg width="32px" height="32px" viewBox="0 0 32 32" version="1.1" xmlns="http://www.w3.org/2000/svg" xmlns:xlink="http://www.w3.org/1999/xlink" xmlns:sketch="http://www.bohemiancoding.com/sketch/ns">
    <!-- Generator: Sketch 3.0.3 (7891) - http://www.bohemiancoding.com/sketch -->
    <title>icon 109 document zip</title>
    <desc>Created with Sketch.</desc>
    <defs></defs>
    <g id="Page-1" stroke="none" stroke-width="1" fill="none" fill-rule="evenodd" sketch:type="MSPage">
        <g id="icon-109-document-zip" sketch:type="MSArtboardGroup" fill="#157EFB">
            <path d="M13,18.04962 L13,17 L12,17 L12,16 L13,16 L13,15 L12,15 L12,14 L13,14 L13,13 L12,13 L12,12 L13,12 L13,11 L12,11 L12,10 L13,10 L13,9 L12,9 L12,8 L13,8 L13,7 L12,7 L12,6 L13,6 L13,5 L12,5 L12,4 L13,4 L13,3 L9.0085302,3 C7.8992496,3 7,3.89833832 7,5.00732994 L7,27.9926701 C7,29.1012878 7.89092539,30 8.99742191,30 L24.0025781,30 C25.1057238,30 26,29.1090746 26,28.0025781 L26,11 L21.0059191,11 C19.8980806,11 19,10.1132936 19,9.00189865 L19,3 L15,3 L15,4 L14,4 L14,5 L15,5 L15,6 L14,6 L14,7 L15,7 L15,8 L14,8 L14,9 L15,9 L15,10 L14,10 L14,11 L15,11 L15,12 L14,12 L14,13 L15,13 L15,14 L14,14 L14,15 L15,15 L15,16 L14,16 L14,17 L14,18.0494551 C15.1471448,18.2800315 16,19.2895542 16,20.5 C16,21.8903379 14.8807119,23 13.5,23 C12.109662,23 11,21.8807119 11,20.5 C11,19.2820888 11.8588798,18.2795527 13,18.04962 L13,18.04962 L13,18.04962 Z M20,3 L20,8.99707067 C20,9.55097324 20.4509752,10 20.990778,10 L26,10 L20,3 L20,3 Z M13.5,19 C12.6715729,19 12,19.6657972 12,20.5 C12,21.3284271 12.6657972,22 13.5,22 C14.3284271,22 15,21.3342028 15,20.5 C15,19.6715729 14.3342028,19 13.5,19 L13.5,19 Z" id="document-zip" sketch:type="MSShapeGroup"></path>
        </g>
    </g>
</svg>