<?xml version="1.0" encoding="UTF-8" standalone="no"?>
<svg width="32px" height="32px" viewBox="0 0 32 32" version="1.1" xmlns="http://www.w3.org/2000/svg" xmlns:xlink="http://www.w3.org/1999/xlink" xmlns:sketch="http://www.bohemiancoding.com/sketch/ns">
    <!-- Generator: Sketch 3.0.3 (7891) - http://www.bohemiancoding.com/sketch -->
    <title>icon 128 document scan</title>
    <desc>Created with Sketch.</desc>
    <defs></defs>
    <g id="Page-1" stroke="none" stroke-width="1" fill="none" fill-rule="evenodd" sketch:type="MSPage">
        <g id="icon-128-document-scan" sketch:type="MSArtboardGroup" fill="#157EFB">
            <path d="M19,30 L17,30 L17,29 L19,29 L19,30 L19,30 Z M20,30 L22,30 L22,30 L22,29 L20,29 L20,30 L20,30 Z M13,30 L11,30 L11,30 L11,29 L13,29 L13,30 L13,30 L13,30 Z M14,30 L16,30 L16,30 L16,29 L14,29 L14,30 L14,30 L14,30 Z M10,30 L8.99742191,30 C7.89092539,30 7,29.1012878 7,27.9926701 L7,27 L7,27 L8,27 L8,28.0024554 C8,28.553384 8.45470893,29 8.9999602,29 L10,29 L10,30 L10,30 L10,30 Z M26,23 L26,21 L26,21 L25,21 L25,23 L26,23 L26,23 L26,23 Z M26,24 L26,26 L26,26 L25,26 L25,24 L26,24 L26,24 L26,24 Z M7,23 L7,21 L7,21 L8,21 L8,23 L7,23 L7,23 L7,23 Z M7,24 L7,26 L8,26 L8,24 L7,24 L7,24 Z M27,19 L27,17 L28,17 L28,22 L27,22 L27,20 L6,20 L6,22 L5,22 L5,17 L6,17 L6,19 L27,19 L27,19 Z M26,18 L26,11 L21.0059191,11 C19.8980806,11 19,10.1132936 19,9.00189865 L19,3 L9.0085302,3 C7.8992496,3 7,3.89833832 7,5.00732994 L7,18 L26,18 L26,18 L26,18 Z M26,27 L26,28.0025781 C26,29.1090746 25.1057238,30 24.0025781,30 L23,30 L23,29 L23,29 L24.0000398,29 C24.5523026,29 25,28.5536886 25,28.0024554 L25,27 L26,27 L26,27 L26,27 Z M20,3 L20,8.99707067 C20,9.55097324 20.4509752,10 20.990778,10 L26,10 L20,3 L20,3 Z" id="document-scan" sketch:type="MSShapeGroup"></path>
        </g>
    </g>
</svg>