<?xml version="1.0" encoding="UTF-8" standalone="no"?>
<svg width="32px" height="32px" viewBox="0 0 32 32" version="1.1" xmlns="http://www.w3.org/2000/svg" xmlns:xlink="http://www.w3.org/1999/xlink" xmlns:sketch="http://www.bohemiancoding.com/sketch/ns">
    <!-- Generator: Sketch 3.0.3 (7891) - http://www.bohemiancoding.com/sketch -->
    <title>icon 133 inbox filled</title>
    <desc>Created with Sketch.</desc>
    <defs></defs>
    <g id="Page-1" stroke="none" stroke-width="1" fill="none" fill-rule="evenodd" sketch:type="MSPage">
        <g id="icon-133-inbox-filled" sketch:type="MSArtboardGroup" fill="#157EFB">
            <path d="M12,14 L5.22497559,14 L9.59997559,7 L23.4000244,7 L27.7750244,14 L21,14 L21,15.9951185 C21,17.1061002 20.1057373,18 19.0026083,18 L13.9973917,18 C12.8958578,18 12,17.102384 12,15.9951185 L12,14 L12,14 Z M4,14 L9,6 L24,6 L29,14 L29,15 L29,23 L4,23 L4,14 L4,14 Z M11,8 L10.4000244,9 L22.5999756,9 L22,8 L11,8 L11,8 Z M9.69995117,10 L9.09997559,11 L23.9000244,11 L23.3000488,10 L9.69995117,10 L9.69995117,10 Z M8.5,12 L7.90002441,13 L25.0999756,13 L24.5,12 L8.5,12 L8.5,12 Z" id="inbox-filled" sketch:type="MSShapeGroup"></path>
        </g>
    </g>
</svg>