<?xml version="1.0" encoding="UTF-8" standalone="no"?>
<svg width="32px" height="32px" viewBox="0 0 32 32" version="1.1" xmlns="http://www.w3.org/2000/svg" xmlns:xlink="http://www.w3.org/1999/xlink" xmlns:sketch="http://www.bohemiancoding.com/sketch/ns">
    <!-- Generator: Sketch 3.0.3 (7891) - http://www.bohemiancoding.com/sketch -->
    <title>icon 39 two fingers swipe left</title>
    <desc>Created with Sketch.</desc>
    <defs></defs>
    <g id="Page-1" stroke="none" stroke-width="1" fill="none" fill-rule="evenodd" sketch:type="MSPage">
        <g id="icon-39-two-fingers-swipe-left" sketch:type="MSArtboardGroup" fill="#157EFB">
            <path d="M10.0270387,17 C10.2740016,14.7500433 12.1823966,13 14.5,13 C16.9802243,13 19,15.012806 19,17.495728 L19,31 L10,31 L10,18 L3.950001,18 L3.950001,18 L7.200001,21.25 L6.450001,22 L1.950001,17.5 L6.450001,13 L7.200001,13.75 L3.950001,17 L10.0270387,17 L10.0270387,17 Z M14.5,14 C12.5670034,14 11,15.5632794 11,17.4914967 L11,30 L18,30 L18,17.4914967 C18,15.5631963 16.4290634,14 14.5,14 L14.5,14 Z M14.5,15 C13.1192881,15 12,16.1285541 12,17.5097752 L12,21 L17,21 L17,17.5097752 C17,16.1236646 15.8903379,15 14.5,15 L14.5,15 Z M14.5,16 C13.6715729,16 13,16.6785455 13,17.5008327 L13,20 L16,20 L16,17.5008327 C16,16.6719457 15.3342028,16 14.5,16 L14.5,16 Z M12,24 L12,25 L17,25 L17,24 L12,24 L12,24 Z M12,26 L12,27 L17,27 L17,26 L12,26 L12,26 Z M25.5,10 C23.0147186,10 21,12.0135683 21,14.5050269 L21,31 L30,31 L30,14.5050269 C30,12.0169692 27.9802243,10 25.5,10 L25.5,10 Z M25.5,11 C23.5670034,11 22,12.5710144 22,14.5070349 L22,30 L29,30 L29,14.5070349 C29,12.570153 27.4290634,11 25.5,11 L25.5,11 Z M25.5,12 C24.1192881,12 23,13.1285541 23,14.5097752 L23,18 L28,18 L28,14.5097752 C28,13.1236646 26.8903379,12 25.5,12 L25.5,12 Z M25.5,13 C24.6715729,13 24,13.6785455 24,14.5008327 L24,17 L27,17 L27,14.5008327 C27,13.6719457 26.3342028,13 25.5,13 L25.5,13 Z M23,21 L23,22 L28,22 L28,21 L23,21 L23,21 Z M23,23 L23,24 L28,24 L28,23 L23,23 L23,23 Z" id="two-fingers-swipe-left" sketch:type="MSShapeGroup"></path>
        </g>
    </g>
</svg>