<?xml version="1.0" encoding="UTF-8" standalone="no"?>
<svg width="32px" height="32px" viewBox="0 0 32 32" version="1.1" xmlns="http://www.w3.org/2000/svg" xmlns:xlink="http://www.w3.org/1999/xlink" xmlns:sketch="http://www.bohemiancoding.com/sketch/ns">
    <!-- Generator: Sketch 3.0.3 (7891) - http://www.bohemiancoding.com/sketch -->
    <title>icon 67 thermometer low</title>
    <desc>Created with Sketch.</desc>
    <defs></defs>
    <g id="Page-1" stroke="none" stroke-width="1" fill="none" fill-rule="evenodd" sketch:type="MSPage">
        <g id="icon-67-thermometer-low" sketch:type="MSArtboardGroup" fill="#929292">
            <path d="M18,22.5351287 C19.1956028,23.2267475 20,24.5194352 20,26 C20,28.2091391 18.2091391,30 16,30 C13.7908609,30 12,28.2091391 12,26 C12,24.5194352 12.8043972,23.2267475 14,22.5351287 L14,4.00359486 C14,2.88976324 14.8954305,2 16,2 C17.1122704,2 18,2.89703997 18,4.00359486 L18,22.5351287 L18,22.5351287 L18,22.5351287 Z M19,21.9996337 C20.2144467,22.91184 21,24.3641821 21,26 C21,28.7614239 18.7614239,31 16,31 C13.2385761,31 11,28.7614239 11,26 C11,24.3641821 11.7855533,22.91184 13,21.9996337 L13,3.99075223 C13,2.34410858 14.3431458,1 16,1 C17.6534829,1 19,2.33900538 19,3.99075223 L19,21.9996337 L19,21.9996337 L19,21.9996337 Z M16,29 C17.6568543,29 19,27.6568543 19,26 C19,24.3431457 17.6568543,23 16,23 C14.3431457,23 13,24.3431457 13,26 C13,27.6568543 14.3431457,29 16,29 L16,29 Z" id="thermometer-low" sketch:type="MSShapeGroup"></path>
        </g>
    </g>
</svg>