<?xml version="1.0" encoding="UTF-8" standalone="no"?>
<svg width="32px" height="32px" viewBox="0 0 32 32" version="1.1" xmlns="http://www.w3.org/2000/svg" xmlns:xlink="http://www.w3.org/1999/xlink" xmlns:sketch="http://www.bohemiancoding.com/sketch/ns">
    <!-- Generator: Sketch 3.0.3 (7891) - http://www.bohemiancoding.com/sketch -->
    <title>icon 45 crescent</title>
    <desc>Created with Sketch.</desc>
    <defs></defs>
    <g id="Page-1" stroke="none" stroke-width="1" fill="none" fill-rule="evenodd" sketch:type="MSPage">
        <g id="icon-45-crescent" sketch:type="MSArtboardGroup" fill="#929292">
            <path d="M16,11 C13.2385761,11 11,13.2385761 11,16 C11,18.7614239 13.2385761,21 16,21 C14.3431457,21 13,18.7614239 13,16 C13,13.2385761 14.3431457,11 16,11 C16.0001958,11 16.0003916,11 16.0005874,11.0000001 L16,11 Z M16,22 C19.3137087,22 22,19.3137087 22,16 C22,12.6862913 19.3137087,10 16,10 C12.6862913,10 10,12.6862913 10,16 C10,19.3137087 12.6862913,22 16,22 L16,22 Z" id="crescent" sketch:type="MSShapeGroup"></path>
        </g>
    </g>
</svg>