<?xml version="1.0" encoding="UTF-8" standalone="no"?>
<svg width="32px" height="32px" viewBox="0 0 32 32" version="1.1" xmlns="http://www.w3.org/2000/svg" xmlns:xlink="http://www.w3.org/1999/xlink" xmlns:sketch="http://www.bohemiancoding.com/sketch/ns">
    <!-- Generator: Sketch 3.0.3 (7891) - http://www.bohemiancoding.com/sketch -->
    <title>icon 47 one finger swipe left</title>
    <desc>Created with Sketch.</desc>
    <defs></defs>
    <g id="Page-1" stroke="none" stroke-width="1" fill="none" fill-rule="evenodd" sketch:type="MSPage">
        <g id="icon-47-one-finger-swipe-left" sketch:type="MSArtboardGroup" fill="#929292">
            <path d="M12.0278925,14 C12.2783671,11.7470269 14.185047,10 16.5,10 C18.9802243,10 21,12.0169692 21,14.5050269 L21,31 L12,31 L12,15 L5.950001,15 L5.950001,15 L9.200001,18.25 L8.450001,19 L3.950001,14.5 L8.450001,10 L9.200001,10.75 L5.950001,14 L12.0278925,14 L12.0278925,14 Z M16.5,11 C14.5670034,11 13,12.5710144 13,14.5070349 L13,30 L20,30 L20,14.5070349 C20,12.570153 18.4290634,11 16.5,11 L16.5,11 Z M16.5,12 C15.1192881,12 14,13.1285541 14,14.5097752 L14,18 L19,18 L19,14.5097752 C19,13.1236646 17.8903379,12 16.5,12 L16.5,12 Z M16.5,13 C15.6715729,13 15,13.6785455 15,14.5008327 L15,17 L18,17 L18,14.5008327 C18,13.6719457 17.3342028,13 16.5,13 L16.5,13 Z M14,21 L14,22 L19,22 L19,21 L14,21 L14,21 Z M14,23 L14,24 L19,24 L19,23 L14,23 L14,23 Z" id="one-finger-swipe-left" sketch:type="MSShapeGroup"></path>
        </g>
    </g>
</svg>