<?xml version="1.0" encoding="UTF-8" standalone="no"?>
<svg width="32px" height="32px" viewBox="0 0 32 32" version="1.1" xmlns="http://www.w3.org/2000/svg" xmlns:xlink="http://www.w3.org/1999/xlink" xmlns:sketch="http://www.bohemiancoding.com/sketch/ns">
    <!-- Generator: Sketch 3.0.3 (7891) - http://www.bohemiancoding.com/sketch -->
    <title>icon 121 document file aiff</title>
    <desc>Created with Sketch.</desc>
    <defs></defs>
    <g id="Page-1" stroke="none" stroke-width="1" fill="none" fill-rule="evenodd" sketch:type="MSPage">
        <g id="icon-121-document-file-aiff" sketch:type="MSArtboardGroup" fill="#157EFB">
            <path d="M19,13 L19,10 L19,10 L13,3 L2.00276013,3 C0.896666251,3 0,3.89833832 0,5.00732994 L0,27.9926701 C0,29.1012878 0.890925393,30 1.99742191,30 L17.0025781,30 C18.1057238,30 19,29.1017876 19,28.0092049 L19,26 L29.0073661,26 C30.6601521,26 32,24.6577357 32,23.0012144 L32,15.9987856 C32,14.3426021 30.6610658,13 29.0073661,13 L19,13 L19,13 L19,13 Z M18,26 L18,28.0066023 C18,28.5550537 17.5523026,29 17.0000398,29 L1.9999602,29 C1.45470893,29 1,28.5543187 1,28.004543 L1,4.99545703 C1,4.45526288 1.44573523,4 1.9955775,4 L12,4 L12,8.99408095 C12,10.1134452 12.8944962,11 13.9979131,11 L18,11 L18,13 L7.99263394,13 C6.33984785,13 5,14.3422643 5,15.9987856 L5,23.0012144 C5,24.6573979 6.3389342,26 7.99263394,26 L18,26 L18,26 L18,26 Z M13,4.5 L13,8.99121523 C13,9.54835167 13.4506511,10 13.9967388,10 L17.6999512,10 L13,4.5 L13,4.5 Z M8.00359486,14 C6.89703997,14 6,14.9001762 6,15.992017 L6,23.007983 C6,24.1081436 6.88976324,25 8.00359486,25 L28.9964051,25 C30.10296,25 31,24.0998238 31,23.007983 L31,15.992017 C31,14.8918564 30.1102368,14 28.9964051,14 L8.00359486,14 L8.00359486,14 Z M12,20 L9,20 L9,23 L8,23 L8,19.5 L8,18 C8,16.8877296 8.89761602,16 10.0048815,16 L10.9951185,16 C12.1061002,16 13,16.8954305 13,18 L13,20 L13,23 L12,23 L12,20 L12,20 L12,20 Z M9.99895656,17 C9.44724809,17 9,17.4438648 9,18 L9,19 L12,19 L12,18 C12,17.4477153 11.5573397,17 11.0010434,17 L9.99895656,17 L9.99895656,17 Z M15,17 L15,22 L14,22 L14,23 L17,23 L17,22 L16,22 L16,17 L17,17 L17,16 L14,16 L14,17 L15,17 L15,17 Z M19,19 L19,17 L23,17 L23,16 L18,16 L18,23 L19,23 L19,20 L22,20 L22,19 L19,19 L19,19 Z M25,19 L25,17 L29,17 L29,16 L24,16 L24,23 L25,23 L25,20 L28,20 L28,19 L25,19 L25,19 Z" id="document-file-aiff" sketch:type="MSShapeGroup"></path>
        </g>
    </g>
</svg>