<?xml version="1.0" encoding="UTF-8" standalone="no"?>
<svg width="32px" height="32px" viewBox="0 0 32 32" version="1.1" xmlns="http://www.w3.org/2000/svg" xmlns:xlink="http://www.w3.org/1999/xlink" xmlns:sketch="http://www.bohemiancoding.com/sketch/ns">
    <!-- Generator: Sketch 3.0.3 (7891) - http://www.bohemiancoding.com/sketch -->
    <title>icon 41 file avi</title>
    <desc>Created with Sketch.</desc>
    <defs></defs>
    <g id="Page-1" stroke="none" stroke-width="1" fill="none" fill-rule="evenodd" sketch:type="MSPage">
        <g id="icon-41-file-avi" sketch:type="MSArtboardGroup" fill="#157EFB">
            <path d="M7.00684834,10 C5.34621185,10 4,11.3422643 4,12.9987856 L4,20.0012144 C4,21.6573979 5.33599155,23 7.00684834,23 L23.9931517,23 C25.6537881,23 27,21.6577357 27,20.0012144 L27,12.9987856 C27,11.3426021 25.6640085,10 23.9931517,10 L7.00684834,10 L7.00684834,10 Z M6.99456145,11 C5.89299558,11 5,11.9001762 5,12.992017 L5,20.007983 C5,21.1081436 5.90234375,22 6.99456145,22 L24.0054385,22 C25.1070044,22 26,21.0998238 26,20.007983 L26,12.992017 C26,11.8918564 25.0976562,11 24.0054385,11 L6.99456145,11 L6.99456145,11 Z M12,17 L9,17 L9,20 L8,20 L8,16.5 L8,15 C8,13.8877296 8.89761602,13 10.0048815,13 L10.9951185,13 C12.1061002,13 13,13.8954305 13,15 L13,17 L13,20 L12,20 L12,17 L12,17 L12,17 Z M9.99895656,14 C9.44724809,14 9,14.4438648 9,15 L9,16 L12,16 L12,15 C12,14.4477153 11.5573397,14 11.0010434,14 L9.99895656,14 L9.99895656,14 Z M16.5,18.25 L18,13 L19,13 L17,20 L16.5,20 L16,20 L14,13 L15,13 L16.5,18.25 L16.5,18.25 Z M21,14 L21,19 L20,19 L20,20 L23,20 L23,19 L22,19 L22,14 L23,14 L23,13 L20,13 L20,14 L21,14 L21,14 Z" id="file-avi" sketch:type="MSShapeGroup"></path>
        </g>
    </g>
</svg>