<?xml version="1.0" encoding="UTF-8" standalone="no"?>
<svg width="32px" height="32px" viewBox="0 0 32 32" version="1.1" xmlns="http://www.w3.org/2000/svg" xmlns:xlink="http://www.w3.org/1999/xlink" xmlns:sketch="http://www.bohemiancoding.com/sketch/ns">
    <!-- Generator: Sketch 3.0.3 (7891) - http://www.bohemiancoding.com/sketch -->
    <title>icon 97 document file docx</title>
    <desc>Created with Sketch.</desc>
    <defs></defs>
    <g id="Page-1" stroke="none" stroke-width="1" fill="none" fill-rule="evenodd" sketch:type="MSPage">
        <g id="icon-97-document-file-docx" sketch:type="MSArtboardGroup" fill="#157EFB">
            <path d="M19,13 L19,10 L19,10 L13,3 L2.00276013,3 C0.896666251,3 0,3.89833832 0,5.00732994 L0,27.9926701 C0,29.1012878 0.890925393,30 1.99742191,30 L17.0025781,30 C18.1057238,30 19,29.1017876 19,28.0092049 L19,26 L29.0057181,26 C30.6594143,26 32,24.6577357 32,23.0012144 L32,15.9987856 C32,14.3426021 30.6594313,13 29.0057181,13 L19,13 L19,13 L19,13 Z M18,26 L18,28.0066023 C18,28.5550537 17.5523026,29 17.0000398,29 L1.9999602,29 C1.45470893,29 1,28.5543187 1,28.004543 L1,4.99545703 C1,4.45526288 1.44573523,4 1.9955775,4 L12,4 L12,8.99408095 C12,10.1134452 12.8944962,11 13.9979131,11 L18,11 L18,13 L5.99428189,13 C4.34058566,13 3,14.3422643 3,15.9987856 L3,23.0012144 C3,24.6573979 4.3405687,26 5.99428189,26 L18,26 L18,26 L18,26 Z M13,4.5 L13,8.99121523 C13,9.54835167 13.4506511,10 13.9967388,10 L17.6999512,10 L13,4.5 L13,4.5 Z M6.00732994,14 C4.89871223,14 4,14.9001762 4,15.992017 L4,23.007983 C4,24.1081436 4.89833832,25 6.00732994,25 L28.9926701,25 C30.1012878,25 31,24.0998238 31,23.007983 L31,15.992017 C31,14.8918564 30.1016617,14 28.9926701,14 L6.00732994,14 L6.00732994,14 Z M6,16 L6,23 L8.9951185,23 C10.102384,23 11,22.1134452 11,20.9940809 L11,18.0059191 C11,16.8980806 10.1061002,16 8.9951185,16 L6,16 L6,16 Z M7,17 L7,22 L9.00104344,22 C9.55275191,22 10,21.5562834 10,21.0001925 L10,17.9998075 C10,17.4476291 9.55733967,17 9.00104344,17 L7,17 L7,17 Z M14.0048815,16 C12.897616,16 12,16.8865548 12,18.0059191 L12,20.9940809 C12,22.1019194 12.8938998,23 14.0048815,23 L14.9951185,23 C16.102384,23 17,22.1134452 17,20.9940809 L17,18.0059191 C17,16.8980806 16.1061002,16 14.9951185,16 L14.0048815,16 L14.0048815,16 Z M13.9989566,17 C13.4472481,17 13,17.4437166 13,17.9998075 L13,21.0001925 C13,21.5523709 13.4426603,22 13.9989566,22 L15.0010434,22 C15.5527519,22 16,21.5562834 16,21.0001925 L16,17.9998075 C16,17.4476291 15.5573397,17 15.0010434,17 L13.9989566,17 L13.9989566,17 Z M22.9999916,21 C22.9968339,22.1165689 22.1004316,23 20.9951185,23 L20.0048815,23 C18.8938998,23 18,22.1019194 18,20.9940809 L18,18.0059191 C18,16.8865548 18.897616,16 20.0048815,16 L20.9951185,16 C22.1041209,16 22.9968142,16.8948834 22.9999915,18 L22,18 C22,17.4476291 21.5573397,17 21.0010434,17 L19.9989566,17 C19.4472481,17 19,17.4437166 19,17.9998075 L19,21.0001925 C19,21.5523709 19.4426603,22 19.9989566,22 L21.0010434,22 C21.5527519,22 22,21.5562834 22,21.0001925 L22.9999923,21 L22.9999916,21 L22.9999916,21 Z M26,19.5 L24,16 L25,16 L26.5,18.625 L28,16 L29,16 L27,19.5 L29,23 L28,23 L26.5,20.375 L25,23 L24,23 L26,19.5 L26,19.5 Z" id="document-file-docx" sketch:type="MSShapeGroup"></path>
        </g>
    </g>
</svg>