<?xml version="1.0" encoding="UTF-8" standalone="no"?>
<svg width="32px" height="32px" viewBox="0 0 32 32" version="1.1" xmlns="http://www.w3.org/2000/svg" xmlns:xlink="http://www.w3.org/1999/xlink" xmlns:sketch="http://www.bohemiancoding.com/sketch/ns">
    <!-- Generator: Sketch 3.0.3 (7891) - http://www.bohemiancoding.com/sketch -->
    <title>icon 56 file aiff</title>
    <desc>Created with Sketch.</desc>
    <defs></defs>
    <g id="Page-1" stroke="none" stroke-width="1" fill="none" fill-rule="evenodd" sketch:type="MSPage">
        <g id="icon-56-file-aiff" sketch:type="MSArtboardGroup" fill="#157EFB">
            <path d="M5.99263394,10 C4.33984785,10 3,11.3422643 3,12.9987856 L3,20.0012144 C3,21.6573979 4.3389342,23 5.99263394,23 L27.0073661,23 C28.6601521,23 30,21.6577357 30,20.0012144 L30,12.9987856 C30,11.3426021 28.6610658,10 27.0073661,10 L5.99263394,10 L5.99263394,10 Z M6.00359486,11 C4.89703997,11 4,11.9001762 4,12.992017 L4,20.007983 C4,21.1081436 4.88976324,22 6.00359486,22 L26.9964051,22 C28.10296,22 29,21.0998238 29,20.007983 L29,12.992017 C29,11.8918564 28.1102368,11 26.9964051,11 L6.00359486,11 L6.00359486,11 Z M10,17 L7,17 L7,20 L6,20 L6,16.5 L6,15 C6,13.8877296 6.89761602,13 8.0048815,13 L8.9951185,13 C10.1061002,13 11,13.8954305 11,15 L11,17 L11,20 L10,20 L10,17 L10,17 L10,17 Z M7.99895656,14 C7.44724809,14 7,14.4438648 7,15 L7,16 L10,16 L10,15 C10,14.4477153 9.55733967,14 9.00104344,14 L7.99895656,14 L7.99895656,14 Z M13,14 L13,19 L12,19 L12,20 L15,20 L15,19 L14,19 L14,14 L15,14 L15,13 L12,13 L12,14 L13,14 L13,14 Z M17,16 L17,14 L21,14 L21,13 L16,13 L16,20 L17,20 L17,17 L20,17 L20,16 L17,16 L17,16 Z M23,16 L23,14 L27,14 L27,13 L22,13 L22,20 L23,20 L23,17 L26,17 L26,16 L23,16 L23,16 Z" id="file-aiff" sketch:type="MSShapeGroup"></path>
        </g>
    </g>
</svg>