<?xml version="1.0" encoding="UTF-8" standalone="no"?>
<svg width="32px" height="32px" viewBox="0 0 32 32" version="1.1" xmlns="http://www.w3.org/2000/svg" xmlns:xlink="http://www.w3.org/1999/xlink" xmlns:sketch="http://www.bohemiancoding.com/sketch/ns">
    <!-- Generator: Sketch 3.0.3 (7891) - http://www.bohemiancoding.com/sketch -->
    <title>icon 9 file jpg</title>
    <desc>Created with Sketch.</desc>
    <defs></defs>
    <g id="Page-1" stroke="none" stroke-width="1" fill="none" fill-rule="evenodd" sketch:type="MSPage">
        <g id="icon-9-file-jpg" sketch:type="MSArtboardGroup" fill="#157EFB">
            <path d="M8.00684834,10 C6.34621185,10 5,11.3422643 5,12.9987856 L5,20.0012144 C5,21.6573979 6.33599155,23 8.00684834,23 L24.9931517,23 C26.6537881,23 28,21.6577357 28,20.0012144 L28,12.9987856 C28,11.3426021 26.6640085,10 24.9931517,10 L8.00684834,10 L8.00684834,10 Z M8,17 L8,17.9940809 C8,19.1019194 8.8938998,20 10.0048815,20 L10.9951185,20 C12.102384,20 13,19.1134452 13,17.9940809 L13,13 L12,13 L12,18.009222 C12,18.5490248 11.5527519,19 11.0010434,19 L9.99895656,19 C9.44266033,19 9,18.5522847 9,18 L9,17 L8,17 L8,17 Z M14,15 L14,20 L15,20 L15,17 L16.9951185,17 C18.102384,17 19,16.1122704 19,15 C19,13.8954305 18.1061002,13 16.9951185,13 L14,13 L14,15 L14,15 Z M15,14 L15,16 L17.0010434,16 C17.5527519,16 18,15.5561352 18,15 C18,14.4477153 17.5573397,14 17.0010434,14 L15,14 L15,14 Z M24,17 L24,19 L21.9998075,19 C21.4437166,19 21,18.5523709 21,18.0001925 L21,14.9998075 C21,14.4437166 21.4476291,14 21.9998075,14 L25,14 L25,13 L22.0048815,13 C20.897616,13 20,13.8865548 20,15.0059191 L20,17.9940809 C20,19.1019194 20.8938998,20 22.0048815,20 L25,20 L25,19.25 L25,19.25 L25,17 L25,16 L22,16 L22,17 L24,17 L24,17 Z" id="file-jpg" sketch:type="MSShapeGroup"></path>
        </g>
    </g>
</svg>