<?xml version="1.0" encoding="UTF-8" standalone="no"?>
<svg width="32px" height="32px" viewBox="0 0 32 32" version="1.1" xmlns="http://www.w3.org/2000/svg" xmlns:xlink="http://www.w3.org/1999/xlink" xmlns:sketch="http://www.bohemiancoding.com/sketch/ns">
    <!-- Generator: Sketch 3.0.3 (7891) - http://www.bohemiancoding.com/sketch -->
    <title>icon 27 file tga</title>
    <desc>Created with Sketch.</desc>
    <defs></defs>
    <g id="Page-1" stroke="none" stroke-width="1" fill="none" fill-rule="evenodd" sketch:type="MSPage">
        <g id="icon-27-file-tga" sketch:type="MSArtboardGroup" fill="#157EFB">
            <path d="M8.00684834,10 C6.34621185,10 5,11.3422643 5,12.9987856 L5,20.0012144 C5,21.6573979 6.33599155,23 8.00684834,23 L24.9931517,23 C26.6537881,23 28,21.6577357 28,20.0012144 L28,12.9987856 C28,11.3426021 26.6640085,10 24.9931517,10 L8.00684834,10 L8.00684834,10 Z M10,14 L10,20 L11,20 L11,14 L13,14 L13,13 L8,13 L8,14 L10,14 L10,14 Z M18,17 L18,19 L15.9998075,19 C15.4437166,19 15,18.5523709 15,18.0001925 L15,14.9998075 C15,14.4437166 15.4476291,14 15.9998075,14 L19,14 L19,13 L16.0048815,13 C14.897616,13 14,13.8865548 14,15.0059191 L14,17.9940809 C14,19.1019194 14.8938998,20 16.0048815,20 L19,20 L19,19.25 L19,19.25 L19,17 L19,16 L16,16 L16,17 L18,17 L18,17 Z M24,17 L21,17 L21,20 L20,20 L20,16.5 L20,15 C20,13.8877296 20.897616,13 22.0048815,13 L22.9951185,13 C24.1061002,13 25,13.8954305 25,15 L25,17 L25,20 L24,20 L24,17 L24,17 Z M21.9989566,14 C21.4472481,14 21,14.4438648 21,15 L21,16 L24,16 L24,15 C24,14.4477153 23.5573397,14 23.0010434,14 L21.9989566,14 L21.9989566,14 Z" id="file-tga" sketch:type="MSShapeGroup"></path>
        </g>
    </g>
</svg>