<?xml version="1.0" encoding="UTF-8" standalone="no"?>
<svg width="32px" height="32px" viewBox="0 0 32 32" version="1.1" xmlns="http://www.w3.org/2000/svg" xmlns:xlink="http://www.w3.org/1999/xlink" xmlns:sketch="http://www.bohemiancoding.com/sketch/ns">
    <!-- Generator: Sketch 3.0.3 (7891) - http://www.bohemiancoding.com/sketch -->
    <title>icon 47 file dot</title>
    <desc>Created with Sketch.</desc>
    <defs></defs>
    <g id="Page-1" stroke="none" stroke-width="1" fill="none" fill-rule="evenodd" sketch:type="MSPage">
        <g id="icon-47-file-dot" sketch:type="MSArtboardGroup" fill="#157EFB">
            <path d="M8.00684834,10 C6.34621185,10 5,11.3422643 5,12.9987856 L5,20.0012144 C5,21.6573979 6.33599155,23 8.00684834,23 L24.9931517,23 C26.6537881,23 28,21.6577357 28,20.0012144 L28,12.9987856 C28,11.3426021 26.6640085,10 24.9931517,10 L8.00684834,10 L8.00684834,10 Z M8,13 L8,20 L10.9951185,20 C12.102384,20 13,19.1134452 13,17.9940809 L13,15.0059191 C13,13.8980806 12.1061002,13 10.9951185,13 L8,13 L8,13 Z M9,14 L9,19 L11.0010434,19 C11.5527519,19 12,18.5562834 12,18.0001925 L12,14.9998075 C12,14.4476291 11.5573397,14 11.0010434,14 L9,14 L9,14 Z M16.0048815,13 C14.897616,13 14,13.8865548 14,15.0059191 L14,17.9940809 C14,19.1019194 14.8938998,20 16.0048815,20 L16.9951185,20 C18.102384,20 19,19.1134452 19,17.9940809 L19,15.0059191 C19,13.8980806 18.1061002,13 16.9951185,13 L16.0048815,13 L16.0048815,13 Z M15.9989566,14 C15.4472481,14 15,14.4437166 15,14.9998075 L15,18.0001925 C15,18.5523709 15.4426603,19 15.9989566,19 L17.0010434,19 C17.5527519,19 18,18.5562834 18,18.0001925 L18,14.9998075 C18,14.4476291 17.5573397,14 17.0010434,14 L15.9989566,14 L15.9989566,14 Z M22,14 L22,20 L23,20 L23,14 L25,14 L25,13 L20,13 L20,14 L22,14 L22,14 Z" id="file-dot" sketch:type="MSShapeGroup"></path>
        </g>
    </g>
</svg>