<?xml version="1.0" encoding="UTF-8" standalone="no"?>
<svg width="32px" height="32px" viewBox="0 0 32 32" version="1.1" xmlns="http://www.w3.org/2000/svg" xmlns:xlink="http://www.w3.org/1999/xlink" xmlns:sketch="http://www.bohemiancoding.com/sketch/ns">
    <!-- Generator: Sketch 3.0.3 (7891) - http://www.bohemiancoding.com/sketch -->
    <title>icon 90 document file rb</title>
    <desc>Created with Sketch.</desc>
    <defs></defs>
    <g id="Page-1" stroke="none" stroke-width="1" fill="none" fill-rule="evenodd" sketch:type="MSPage">
        <g id="icon-90-document-file-rb" sketch:type="MSArtboardGroup" fill="#157EFB">
            <path d="M21,26 L21,28.0025781 C21,29.1090746 20.1057238,30 19.0025781,30 L3.99742191,30 C2.89092539,30 2,29.1012878 2,27.9926701 L2,5.00732994 C2,3.89833832 2.8992496,3 4.0085302,3 L14,3 L14,9.00189865 C14,10.1132936 14.8980806,11 16.0059191,11 L21,11 L21,13 L11.0068483,13 C9.34621185,13 8,14.3422643 8,15.9987856 L8,23.0012144 C8,24.6573979 9.33599155,26 11.0068483,26 L21,26 L21,26 Z M15,3 L15,8.99707067 C15,9.55097324 15.4509752,10 15.990778,10 L21,10 L15,3 L15,3 Z M10.9945615,14 C9.89299558,14 9,14.9001762 9,15.992017 L9,23.007983 C9,24.1081436 9.90234375,25 10.9945615,25 L28.0054385,25 C29.1070044,25 30,24.0998238 30,23.007983 L30,15.992017 C30,14.8918564 29.0976562,14 28.0054385,14 L10.9945615,14 L10.9945615,14 Z M15.7999878,20 L15,20 L15,23 L14,23 L14,18 L14,16 L16.9951185,16 C18.1061002,16 19,16.8954305 19,18 C19,19.1106358 18.1050202,19.9973904 16.9999986,19.9999943 L19,23 L17.7999878,23 L15.7999878,20 L15.7999878,20 Z M15,17 L15,19 L17.0010434,19 C17.5527519,19 18,18.5561352 18,18 C18,17.4477153 17.5573397,17 17.0010434,17 L15,17 L15,17 Z M20,19.75 L20,16 L22.9951185,16 C24.1061002,16 25,16.8954305 25,18 C25,18.6003203 24.7385216,19.1352311 24.3237293,19.5004635 C24.7385553,19.8669242 25,20.4029055 25,21 C25,22.1122704 24.102384,23 22.9951185,23 L20,23 L20,19.75 L20,19.75 Z M21,17 L21,19 L23.0010434,19 C23.5527519,19 24,18.5561352 24,18 C24,17.4477153 23.5573397,17 23.0010434,17 L21,17 L21,17 Z M21,20 L21,22 L23.0010434,22 C23.5527519,22 24,21.5561352 24,21 C24,20.4477153 23.5573397,20 23.0010434,20 L21,20 L21,20 Z" id="document-file-rb" sketch:type="MSShapeGroup"></path>
        </g>
    </g>
</svg>