<?xml version="1.0" encoding="UTF-8" standalone="no"?>
<svg width="32px" height="32px" viewBox="0 0 32 32" version="1.1" xmlns="http://www.w3.org/2000/svg" xmlns:xlink="http://www.w3.org/1999/xlink" xmlns:sketch="http://www.bohemiancoding.com/sketch/ns">
    <!-- Generator: Sketch 3.0.3 (7891) - http://www.bohemiancoding.com/sketch -->
    <title>icon 124 document file zip</title>
    <desc>Created with Sketch.</desc>
    <defs></defs>
    <g id="Page-1" stroke="none" stroke-width="1" fill="none" fill-rule="evenodd" sketch:type="MSPage">
        <g id="icon-124-document-file-zip" sketch:type="MSArtboardGroup" fill="#157EFB">
            <path d="M21,26 L21,28.0025781 C21,29.1090746 20.1057238,30 19.0025781,30 L3.99742191,30 C2.89092539,30 2,29.1012878 2,27.9926701 L2,5.00732994 C2,3.89833832 2.8992496,3 4.0085302,3 L14,3 L14,9.00189865 C14,10.1132936 14.8980806,11 16.0059191,11 L21,11 L21,13 L12.0068483,13 C10.3462119,13 9,14.3422643 9,15.9987856 L9,23.0012144 C9,24.6573979 10.3359915,26 12.0068483,26 L21,26 L21,26 Z M15,3 L15,8.99707067 C15,9.55097324 15.4509752,10 15.990778,10 L21,10 L15,3 L15,3 Z M11.9945615,14 C10.8929956,14 10,14.9001762 10,15.992017 L10,23.007983 C10,24.1081436 10.9023438,25 11.9945615,25 L29.0054385,25 C30.1070044,25 31,24.0998238 31,23.007983 L31,15.992017 C31,14.8918564 30.0976562,14 29.0054385,14 L11.9945615,14 L11.9945615,14 Z M14,22 L18,17 L18,16 L13,16 L13,17 L17,17 L13,22 L13,23 L18,23 L18,22 L14,22 L14,22 Z M20,17 L20,22 L19,22 L19,23 L22,23 L22,22 L21,22 L21,17 L22,17 L22,16 L19,16 L19,17 L20,17 L20,17 Z M23,18 L23,23 L24,23 L24,20 L25.9951185,20 C27.102384,20 28,19.1122704 28,18 C28,16.8954305 27.1061002,16 25.9951185,16 L23,16 L23,18 L23,18 Z M24,17 L24,19 L26.0010434,19 C26.5527519,19 27,18.5561352 27,18 C27,17.4477153 26.5573397,17 26.0010434,17 L24,17 L24,17 Z" id="document-file-zip" sketch:type="MSShapeGroup"></path>
        </g>
    </g>
</svg>