<?xml version="1.0" encoding="UTF-8" standalone="no"?>
<svg width="32px" height="32px" viewBox="0 0 32 32" version="1.1" xmlns="http://www.w3.org/2000/svg" xmlns:xlink="http://www.w3.org/1999/xlink" xmlns:sketch="http://www.bohemiancoding.com/sketch/ns">
    <!-- Generator: Sketch 3.0.3 (7891) - http://www.bohemiancoding.com/sketch -->
    <title>icon 17 smiling face</title>
    <desc>Created with Sketch.</desc>
    <defs></defs>
    <g id="Page-1" stroke="none" stroke-width="1" fill="none" fill-rule="evenodd" sketch:type="MSPage">
        <g id="icon-17-smiling-face" sketch:type="MSArtboardGroup" fill="#157EFB">
            <path d="M16.5,29 C23.4035597,29 29,23.4035597 29,16.5 C29,9.59644029 23.4035597,4 16.5,4 C9.59644029,4 4,9.59644029 4,16.5 C4,23.4035597 9.59644029,29 16.5,29 Z M10,12 L10,13 L14,13 L14,12 L10,12 Z M19,12 L19,13 L23,13 L23,12 L19,12 Z M16.4813232,22 C13,22 11,20 11,20 L11,21 C11,21 13,23 16.4813232,23 C19.9626465,23 22,21 22,21 L22,20 C22,20 19.9626465,22 16.4813232,22 Z" id="smiling-face" sketch:type="MSShapeGroup"></path>
        </g>
    </g>
</svg>