<?xml version="1.0" encoding="UTF-8" standalone="no"?>
<svg width="32px" height="32px" viewBox="0 0 32 32" version="1.1" xmlns="http://www.w3.org/2000/svg" xmlns:xlink="http://www.w3.org/1999/xlink" xmlns:sketch="http://www.bohemiancoding.com/sketch/ns">
    <!-- Generator: Sketch 3.0.3 (7891) - http://www.bohemiancoding.com/sketch -->
    <title>icon 53 grinning face</title>
    <desc>Created with Sketch.</desc>
    <defs></defs>
    <g id="Page-1" stroke="none" stroke-width="1" fill="none" fill-rule="evenodd" sketch:type="MSPage">
        <g id="icon-53-grinning-face" sketch:type="MSArtboardGroup" fill="#157EFB">
            <path d="M16.5,29 C23.4035597,29 29,23.4035597 29,16.5 C29,9.59644029 23.4035597,4 16.5,4 C9.59644029,4 4,9.59644029 4,16.5 C4,23.4035597 9.59644029,29 16.5,29 Z M16.4969482,21 C13.5,21 12,20 12,20 C12,20 13,23 16.5,23 C20,23 21,20 21,20 C21,20 19.4938965,21 16.4969482,21 Z M18.6715729,13.7928932 L21.5,10.9644661 L24.3284271,13.7928932 L23.6213203,14.5 L21.5,12.3786797 L19.3786797,14.5 L18.6715729,13.7928932 Z M8.67157288,13.7928932 L11.5,10.9644661 L14.3284271,13.7928932 L13.6213203,14.5 L11.5,12.3786797 L9.37867966,14.5 L8.67157288,13.7928932 Z" id="grinning-face" sketch:type="MSShapeGroup"></path>
        </g>
    </g>
</svg>