<?xml version="1.0" encoding="UTF-8" standalone="no"?>
<svg width="32px" height="32px" viewBox="0 0 32 32" version="1.1" xmlns="http://www.w3.org/2000/svg" xmlns:xlink="http://www.w3.org/1999/xlink" xmlns:sketch="http://www.bohemiancoding.com/sketch/ns">
    <!-- Generator: Sketch 3.0.3 (7891) - http://www.bohemiancoding.com/sketch -->
    <title>icon 44 file xlsx</title>
    <desc>Created with Sketch.</desc>
    <defs></defs>
    <g id="Page-1" stroke="none" stroke-width="1" fill="none" fill-rule="evenodd" sketch:type="MSPage">
        <g id="icon-44-file-xlsx" sketch:type="MSArtboardGroup" fill="#929292">
            <path d="M4.99428189,10 C3.34058566,10 2,11.3422643 2,12.9987856 L2,20.0012144 C2,21.6573979 3.3405687,23 4.99428189,23 L28.0057181,23 C29.6594143,23 31,21.6577357 31,20.0012144 L31,12.9987856 C31,11.3426021 29.6594313,10 28.0057181,10 L4.99428189,10 L4.99428189,10 Z M7,16.5 L5,13 L6,13 L7.5,15.625 L9,13 L10,13 L8,16.5 L10,20 L9,20 L7.5,17.375 L6,20 L5,20 L7,16.5 L7,16.5 Z M16,19 L16,20 L11,20 L11,13 L12,13 L12,19 L16,19 L16,19 Z M19.0048815,13 C17.897616,13 17,13.8877296 17,15 C17,16.1045695 17.8877296,17 19,17 L19.9906311,17 C20.5480902,17 21,17.4438648 21,18 C21,18.5522847 20.5573397,19 20.0010434,19 L18.9989566,19 C18.4472481,19 18,18.543716 18,18.0044713 L18,17.9931641 L17,17.9931641 L17,17.998921 C17,19.1040864 17.8938998,20 19.0048815,20 L19.9951185,20 C21.102384,20 22,19.1122704 22,18 C22,16.8954305 21.1122704,16 20,16 L19.0093689,16 C18.4519098,16 18,15.5561352 18,15 C18,14.4477153 18.4426603,14 18.9989566,14 L20.0010434,14 C20.5527519,14 21,14.453186 21,15 L22,15 C22,13.8954305 21.1061002,13 19.9951185,13 L19.0048815,13 L19.0048815,13 Z M25,16.5 L23,13 L24,13 L25.5,15.625 L27,13 L28,13 L26,16.5 L28,20 L27,20 L25.5,17.375 L24,20 L23,20 L25,16.5 L25,16.5 Z" id="file-xlsx" sketch:type="MSShapeGroup"></path>
        </g>
    </g>
</svg>