<?xml version="1.0" encoding="UTF-8" standalone="no"?>
<svg width="32px" height="32px" viewBox="0 0 32 32" version="1.1" xmlns="http://www.w3.org/2000/svg" xmlns:xlink="http://www.w3.org/1999/xlink" xmlns:sketch="http://www.bohemiancoding.com/sketch/ns">
    <!-- Generator: Sketch 3.0.3 (7891) - http://www.bohemiancoding.com/sketch -->
    <title>icon 1 file numbers</title>
    <desc>Created with Sketch.</desc>
    <defs></defs>
    <g id="Page-1" stroke="none" stroke-width="1" fill="none" fill-rule="evenodd" sketch:type="MSPage">
        <g id="icon-1-file-numbers" sketch:type="MSArtboardGroup" fill="#929292">
            <path d="M9,15 L9,20 L8,20 L8,13 L9,13 L12,18 L12,13 L13,13 L13,20 L12,20 L9,15 L9,15 Z M18,13 L19,13 L19,17.9940809 C19,19.1134452 18.102384,20 16.9951185,20 L16.0048815,20 C14.8938998,20 14,19.1019194 14,17.9940809 L14,13 L15,13 L15,17.9970707 C15,18.5509732 15.4426603,19 15.9989566,19 L17.0010434,19 C17.5527519,19 18,18.5621186 18,17.9970707 L18,13 L18,13 L18,13 Z M22.5,16 L21,13 L20.5,13 L20,13 L20,20 L21,20 L21,15 L22,17 L22.5,17 L23,17 L24,15 L24,20 L25,20 L25,13 L24.5,13 L24,13 L22.5,16 L22.5,16 Z M8.00684834,10 C6.34621185,10 5,11.3422643 5,12.9987856 L5,20.0012144 C5,21.6573979 6.33599155,23 8.00684834,23 L24.9931517,23 C26.6537881,23 28,21.6577357 28,20.0012144 L28,12.9987856 C28,11.3426021 26.6640085,10 24.9931517,10 L8.00684834,10 L8.00684834,10 Z" id="file-numbers" sketch:type="MSShapeGroup"></path>
        </g>
    </g>
</svg>