<?xml version="1.0" encoding="UTF-8" standalone="no"?>
<svg width="32px" height="32px" viewBox="0 0 32 32" version="1.1" xmlns="http://www.w3.org/2000/svg" xmlns:xlink="http://www.w3.org/1999/xlink" xmlns:sketch="http://www.bohemiancoding.com/sketch/ns">
    <!-- Generator: Sketch 3.0.3 (7891) - http://www.bohemiancoding.com/sketch -->
    <title>icon 42 one finger click</title>
    <desc>Created with Sketch.</desc>
    <defs></defs>
    <g id="Page-1" stroke="none" stroke-width="1" fill="none" fill-rule="evenodd" sketch:type="MSPage">
        <g id="icon-42-one-finger-click" sketch:type="MSArtboardGroup" fill="#929292">
            <path d="M16.5,10 C14.0147186,10 12,12.0135683 12,14.5050269 L12,31 L21,31 L21,14.5050269 C21,12.0169692 18.9802243,10 16.5,10 L16.5,10 Z M16.5,12 C15.1192881,12 14,13.1285541 14,14.5097752 L14,18 L19,18 L19,14.5097752 C19,13.1236646 17.8903379,12 16.5,12 L16.5,12 Z M14,21 L14,22 L19,22 L19,21 L14,21 L14,21 Z M14,23 L14,24 L19,24 L19,23 L14,23 L14,23 Z M16,3 L16,8 L17,8 L17,3 L16,3 L16,3 Z M24.9795845,6.30525211 L21.4440506,9.84078602 L22.1511573,10.5478928 L25.6866913,7.01235889 L24.9795845,6.30525211 L24.9795845,6.30525211 Z M28.9919434,14.9919434 L23.9919434,14.9919434 L23.9919434,15.9919434 L28.9919434,15.9919434 L28.9919434,14.9919434 L28.9919434,14.9919434 Z M4.00805664,15.9919434 L9.00805664,15.9919434 L9.00805664,14.9919434 L4.00805664,14.9919434 L4.00805664,15.9919434 L4.00805664,15.9919434 Z M7.31330875,7.01235889 L10.8488427,10.5478928 L11.5559494,9.84078602 L8.02041553,6.30525211 L7.31330875,7.01235889 L7.31330875,7.01235889 Z" id="one-finger-click" sketch:type="MSShapeGroup"></path>
        </g>
    </g>
</svg>