<?xml version="1.0" encoding="UTF-8" standalone="no"?>
<svg width="32px" height="32px" viewBox="0 0 32 32" version="1.1" xmlns="http://www.w3.org/2000/svg" xmlns:xlink="http://www.w3.org/1999/xlink" xmlns:sketch="http://www.bohemiancoding.com/sketch/ns">
    <!-- Generator: Sketch 3.0.3 (7891) - http://www.bohemiancoding.com/sketch -->
    <title>icon 38 two fingers swipe right</title>
    <desc>Created with Sketch.</desc>
    <defs></defs>
    <g id="Page-1" stroke="none" stroke-width="1" fill="none" fill-rule="evenodd" sketch:type="MSPage">
        <g id="icon-38-two-fingers-swipe-right" sketch:type="MSArtboardGroup" fill="#929292">
            <path d="M22,18 L22,31 L13,31 L13,14.5050269 C13,12.0135683 15.0147186,10 17.5,10 C19.9802243,10 22,12.0169692 22,14.5050269 L22,17 L28.049999,17 L24.799999,13.75 L25.549999,13 L30.049999,17.5 L25.549999,22 L24.799999,21.25 L28.049999,18 L22,18 L22,18 Z M6.5,13 C4.01471863,13 2,15.0124342 2,17.495728 L2,31 L11,31 L11,17.495728 C11,15.012806 8.98022433,13 6.5,13 L6.5,13 Z M6.5,15 C5.11928813,15 4,16.1285541 4,17.5097752 L4,21 L9,21 L9,17.5097752 C9,16.1236646 7.89033794,15 6.5,15 L6.5,15 Z M4,24 L4,25 L9,25 L9,24 L4,24 L4,24 Z M4,26 L4,27 L9,27 L9,26 L4,26 L4,26 Z M17.5,12 C16.1192881,12 15,13.1285541 15,14.5097752 L15,18 L20,18 L20,14.5097752 C20,13.1236646 18.8903379,12 17.5,12 L17.5,12 Z M15,21 L15,22 L20,22 L20,21 L15,21 L15,21 Z M15,23 L15,24 L20,24 L20,23 L15,23 L15,23 Z" id="two-fingers-swipe-right" sketch:type="MSShapeGroup"></path>
        </g>
    </g>
</svg>