<?xml version="1.0" encoding="UTF-8" standalone="no"?>
<svg width="32px" height="32px" viewBox="0 0 32 32" version="1.1" xmlns="http://www.w3.org/2000/svg" xmlns:xlink="http://www.w3.org/1999/xlink" xmlns:sketch="http://www.bohemiancoding.com/sketch/ns">
    <!-- Generator: Sketch 3.0.3 (7891) - http://www.bohemiancoding.com/sketch -->
    <title>icon 4 thumb up</title>
    <desc>Created with Sketch.</desc>
    <defs></defs>
    <g id="Page-1" stroke="none" stroke-width="1" fill="none" fill-rule="evenodd" sketch:type="MSPage">
        <g id="icon-4-thumb-up" sketch:type="MSArtboardGroup" fill="#929292">
            <path d="M10,29 L19.7508378,29 L23.4983244,29 C24.3276769,29 25,28.3342028 25,27.5 C25,26.6715729 24.3288106,26 23.4983244,26 L22,26 L22,25 L25.5069036,25 C26.331518,25 27,24.3342028 27,23.5 C27,22.6715729 26.3361142,22 25.5069036,22 L23,22 L23,21 L23,21 L26.5069036,21 C27.331518,21 28,20.3342028 28,19.5 C28,18.6715729 27.3361142,18 26.5069036,18 L24,18 L24,17 L27.5069036,17 C28.331518,17 29,16.3342028 29,15.5 C29,14.6715729 28.3361142,14 27.5069036,14 L20.2999878,14 L20.2999878,14 C21.5007324,8.5 21.1514893,2.99999957 18,3 C15.1291504,3.00000043 16.9374527,7.32622128 15.3710938,10.3012695 C13.804739,13.2763092 10.5000187,13.9999959 10.5,14 L10,14 L10,29 L10,29 L10,29 Z M4.99791312,14 C3.89449617,14 3,14.8933973 3,15.9918842 L3,27.0081158 C3,28.1082031 3.89826062,29 4.99791312,29 L9,29 L9,14 L4.99791312,14 L4.99791312,14 Z M6,27 C6.55228478,27 7,26.5522848 7,26 C7,25.4477152 6.55228478,25 6,25 C5.44771522,25 5,25.4477152 5,26 C5,26.5522848 5.44771522,27 6,27 L6,27 L6,27 Z" id="thumb-up" sketch:type="MSShapeGroup"></path>
        </g>
    </g>
</svg>