<?xml version="1.0" encoding="UTF-8" standalone="no"?>
<svg width="32px" height="32px" viewBox="0 0 32 32" version="1.1" xmlns="http://www.w3.org/2000/svg" xmlns:xlink="http://www.w3.org/1999/xlink" xmlns:sketch="http://www.bohemiancoding.com/sketch/ns">
    <!-- Generator: Sketch 3.0.3 (7891) - http://www.bohemiancoding.com/sketch -->
    <title>icon 31 sunset</title>
    <desc>Created with Sketch.</desc>
    <defs></defs>
    <g id="Page-1" stroke="none" stroke-width="1" fill="none" fill-rule="evenodd" sketch:type="MSPage">
        <g id="icon-31-sunset" sketch:type="MSArtboardGroup" fill="#157EFB">
            <path d="M20.9775785,17 C20.9924187,16.835319 21,16.6685448 21,16.5 C21,13.4624337 18.5375663,11 15.5,11 C12.4624337,11 10,13.4624337 10,16.5 C10,16.6685448 10.0075813,16.835319 10.0224215,17 L20.9775785,17 L20.9775785,17 L20.9775785,17 Z M15.5,7 C15.2238576,7 15,7.2157526 15,7.49538898 L15,9.50461102 C15,9.7782068 15.2319336,10 15.5,10 C15.7761424,10 16,9.7842474 16,9.50461102 L16,7.49538898 C16,7.2217932 15.7680664,7 15.5,7 L15.5,7 L15.5,7 Z M22.2380578,9.79099493 C22.0427957,9.59573278 21.7319443,9.59000166 21.5342115,9.78773445 L20.113477,11.208469 C19.9200156,11.4019304 19.9271859,11.7227637 20.1167375,11.9123153 C20.3119996,12.1075774 20.622851,12.1133085 20.8205838,11.9155758 L22.2413183,10.4948412 C22.4347797,10.3013798 22.4276094,9.9805465 22.2380578,9.79099493 L22.2380578,9.79099493 L22.2380578,9.79099493 Z M25.0290527,16.5290527 C25.0290527,16.2529104 24.8133001,16.0290527 24.5336637,16.0290527 L22.5244417,16.0290527 C22.2508459,16.0290527 22.0290527,16.2609863 22.0290527,16.5290527 C22.0290527,16.8051951 22.2448053,17.0290527 22.5244417,17.0290527 L24.5336637,17.0290527 C24.8072595,17.0290527 25.0290527,16.7971191 25.0290527,16.5290527 L25.0290527,16.5290527 L25.0290527,16.5290527 Z M5.97094727,16.5290527 C5.97094727,16.8051951 6.18669987,17.0290527 6.46633625,17.0290527 L8.47555828,17.0290527 C8.74915406,17.0290527 8.97094727,16.7971191 8.97094727,16.5290527 C8.97094727,16.2529104 8.75519466,16.0290527 8.47555828,16.0290527 L6.46633625,16.0290527 C6.19274047,16.0290527 5.97094727,16.2609863 5.97094727,16.5290527 L5.97094727,16.5290527 L5.97094727,16.5290527 Z M8.76194219,9.79099493 C8.56668005,9.98625707 8.56094893,10.2971084 8.75868171,10.4948412 L10.1794162,11.9155758 C10.3728777,12.1090372 10.693711,12.1018668 10.8832625,11.9123153 C11.0785247,11.7170531 11.0842558,11.4062018 10.886523,11.208469 L9.46578849,9.78773445 C9.27232706,9.59427302 8.95149377,9.60144335 8.76194219,9.79099493 L8.76194219,9.79099493 L8.76194219,9.79099493 Z M6.53725684,20 C6.25658346,20 6.02905273,19.7680664 6.02905273,19.5 C6.02905273,19.2238576 6.25566788,19 6.53725684,19 L12.6123861,19 L13.7790527,20 L15.5290527,21.5 L17.2790527,20 L18.4457194,19 L24.5208486,19 C24.801522,19 25.0290527,19.2319336 25.0290527,19.5 C25.0290527,19.7761424 24.8024376,20 24.5208486,20 L19.0290527,20 L15.5290527,23 L12.0290527,20 L6.53725684,20 L6.53725684,20 Z" id="sunset" sketch:type="MSShapeGroup"></path>
        </g>
    </g>
</svg>