<?xml version="1.0" encoding="UTF-8" standalone="no"?>
<svg width="32px" height="32px" viewBox="0 0 32 32" version="1.1" xmlns="http://www.w3.org/2000/svg" xmlns:xlink="http://www.w3.org/1999/xlink" xmlns:sketch="http://www.bohemiancoding.com/sketch/ns">
    <!-- Generator: Sketch 3.0.3 (7891) - http://www.bohemiancoding.com/sketch -->
    <title>icon 66 thermometer</title>
    <desc>Created with Sketch.</desc>
    <defs></defs>
    <g id="Page-1" stroke="none" stroke-width="1" fill="none" fill-rule="evenodd" sketch:type="MSPage">
        <g id="icon-66-thermometer" sketch:type="MSArtboardGroup" fill="#157EFB">
            <path d="M18,22.5351287 C19.1956028,23.2267475 20,24.5194352 20,26 C20,28.2091391 18.2091391,30 16,30 C13.7908609,30 12,28.2091391 12,26 C12,24.5194352 12.8043972,23.2267475 14,22.5351287 L14,4.00359486 C14,2.88976324 14.8954305,2 16,2 C17.1122704,2 18,2.89703997 18,4.00359486 L18,22.5351287 L18,22.5351287 Z M19.9686149,21.4998925 C21.2143165,22.5993118 22,24.2079027 22,26 C22,29.3137087 19.3137087,32 16,32 C12.6862913,32 10,29.3137087 10,26 C10,24.2079329 10.785657,22.599366 12.0313221,21.4999481 C12.0106518,21.3352618 12,21.1674643 12,20.9971835 L12,4.00281647 C12,1.79793835 13.790861,0 16,0 C18.2046438,0 20,1.79212198 20,4.00281647 L20,20.9971835 C20,21.1673915 19.9893278,21.3351745 19.9686149,21.4998925 L19.9686149,21.4998925 L19.9686149,21.4998925 Z" id="thermometer" sketch:type="MSShapeGroup"></path>
        </g>
    </g>
</svg>