<?xml version="1.0" encoding="UTF-8" standalone="no"?>
<svg width="32px" height="32px" viewBox="0 0 32 32" version="1.1" xmlns="http://www.w3.org/2000/svg" xmlns:xlink="http://www.w3.org/1999/xlink" xmlns:sketch="http://www.bohemiancoding.com/sketch/ns">
    <!-- Generator: Sketch 3.0.3 (7891) - http://www.bohemiancoding.com/sketch -->
    <title>icon 16 cloud moon raindrops</title>
    <desc>Created with Sketch.</desc>
    <defs></defs>
    <g id="Page-1" stroke="none" stroke-width="1" fill="none" fill-rule="evenodd" sketch:type="MSPage">
        <g id="icon-16-cloud-moon-raindrops" sketch:type="MSArtboardGroup" fill="#157EFB">
            <path d="M25.2749382,10.5 C26.0264591,9.79050854 26.5780984,8.87154909 26.8364888,7.83648881 C26.9242079,7.48510364 26.9781305,7.12033801 26.9946037,6.74584491 C26.5269611,6.91045904 26.0239372,7 25.5,7 C23.0147185,7 21,4.9852815 21,2.5 C21,1.97606276 21.089541,1.47303895 21.2541551,1.00539634 C20.879662,1.02186946 20.5148964,1.07579207 20.1635112,1.16351119 C17.7718077,1.76057144 16,3.92337167 16,6.5 C16,6.92731253 16.0487309,7.34324334 16.1409385,7.74253831 C15.1963581,7.2674761 14.1294153,7 13,7 C9.13400656,7 6,10.1340066 6,14 C6,14.1381509 6.00400207,14.275367 6.01189661,14.4115388 C4.23965876,15.1816085 3,16.9491311 3,19 C3,21.7614237 5.23249418,24 7.99943992,24 L25.0005601,24 C27.7616745,24 30,21.7558048 30,19 C30,16.9483386 28.7676457,15.1852931 26.9993494,14.4145295 C26.9758595,12.8726337 26.3178749,11.4846096 25.2749382,10.5 L25.2749382,10.5 Z M24.4770358,9.87457345 C25.046841,9.37150855 25.4882557,8.72637364 25.7458449,7.99460366 C25.6643448,7.99818867 25.5823839,8 25.5,8 C22.4624337,8 20,5.53756627 20,2.5 C20,2.41761609 20.0018113,2.33565523 20.0053963,2.25415509 C18.2547894,2.87038343 17,4.53865574 17,6.5 C17,7.29950141 17.2084979,8.05030549 17.5740867,8.70100529 C17.959598,9.03407479 18.3083804,9.40850398 18.6135384,9.81739735 C19.4525719,9.29909701 20.441357,9 21.5,9 C22.5969862,9 23.6189624,9.32115547 24.4770358,9.87457345 L24.4770358,9.87457345 Z M7,28.8571429 C7.00000081,27.4135338 9.51053481,25 9.51053481,25 C9.51053481,25 11.9999999,27.4135338 12,28.8571429 C12,29.8857247 11.1872547,30.9999997 9.51053481,31 C7.83381492,31.0000003 6.99999942,29.9714181 7,28.8571429 L7,28.8571429 Z M14,29.8571429 C14.0000008,28.4135338 16.5105348,26 16.5105348,26 C16.5105348,26 18.9999999,28.4135338 19,29.8571429 C19,30.8857247 18.1872547,31.9999997 16.5105348,32 C14.8338149,32.0000003 13.9999994,30.9714181 14,29.8571429 L14,29.8571429 Z M21,28.8571429 C21.0000008,27.4135338 23.5105348,25 23.5105348,25 C23.5105348,25 25.9999999,27.4135338 26,28.8571429 C26,29.8857247 25.1872547,30.9999997 23.5105348,31 C21.8338149,31.0000003 20.9999994,29.9714181 21,28.8571429 L21,28.8571429 Z" id="cloud-moon-raindrops" sketch:type="MSShapeGroup"></path>
        </g>
    </g>
</svg>