<?xml version="1.0" encoding="UTF-8" standalone="no"?>
<svg width="32px" height="32px" viewBox="0 0 32 32" version="1.1" xmlns="http://www.w3.org/2000/svg" xmlns:xlink="http://www.w3.org/1999/xlink" xmlns:sketch="http://www.bohemiancoding.com/sketch/ns">
    <!-- Generator: Sketch 3.0.3 (7891) - http://www.bohemiancoding.com/sketch -->
    <title>icon 51 notebook</title>
    <desc>Created with Sketch.</desc>
    <defs></defs>
    <g id="Page-1" stroke="none" stroke-width="1" fill="none" fill-rule="evenodd" sketch:type="MSPage">
        <g id="icon-51-notebook" sketch:type="MSArtboardGroup" fill="#929292">
            <path d="M21,4 L18,4 L18,3 L17,3 L17,4 L14,4 L14,3 L13,3 L13,4 L13,4 L10,4 L10,3 L9,3 L9,4 L7.99742191,4 C6.89427625,4 6,4.88976324 6,6.00359486 L6,26.9964051 C6,28.10296 6.89092539,29 7.99742191,29 L23.0025781,29 C24.1057238,29 25,28.1102368 25,26.9964051 L25,6.00359486 C25,4.89703997 24.1090746,4 23.0025781,4 L22,4 L22,3 L21,3 L21,4 L21,4 Z M21,5 L18,5 L18,6 L17,6 L17,5 L14,5 L14,6 L13,6 L13,5 L10,5 L10,6 L9,6 L9,5 L7.9999602,5 C7.44769743,5 7,5.43891776 7,6.00307055 L7,26.9969294 C7,27.55091 7.45470893,28 7.9999602,28 L23.0000398,28 C23.5523026,28 24,27.5610822 24,26.9969294 L24,6.00307055 C24,5.44908998 23.5452911,5 23.0000398,5 L22,5 L22,6 L21,6 L21,5 L21,5 Z" id="notebook" sketch:type="MSShapeGroup"></path>
        </g>
    </g>
</svg>