<?xml version="1.0" encoding="UTF-8" standalone="no"?>
<svg width="32px" height="32px" viewBox="0 0 32 32" version="1.1" xmlns="http://www.w3.org/2000/svg" xmlns:xlink="http://www.w3.org/1999/xlink" xmlns:sketch="http://www.bohemiancoding.com/sketch/ns">
    <!-- Generator: Sketch 3.0.3 (7891) - http://www.bohemiancoding.com/sketch -->
    <title>icon 77 document locked</title>
    <desc>Created with Sketch.</desc>
    <defs></defs>
    <g id="Page-1" stroke="none" stroke-width="1" fill="none" fill-rule="evenodd" sketch:type="MSPage">
        <g id="icon-77-document-locked" sketch:type="MSArtboardGroup" fill="#929292">
            <path d="M18,29 L6.99742191,29 C5.89092539,29 5,28.1012878 5,26.9926701 L5,4.00732994 C5,2.89833832 5.89666625,2 7.00276013,2 L18,2 L24,9 L24,9.5 L24,9.5 L24,19.33815 L24,19.33815 C25.1812117,19.9010994 26,21.1077256 26,22.5054058 L26,24 L26.0024554,24 C26.5536886,24 27,24.4490268 27,25.0029293 L27,29.9970707 C27,30.5621186 26.553384,31 26.0024554,31 L18.9975446,31 C18.4463114,31 18,30.5509732 18,29.9970707 L18,29 L18,29 Z M18,28 L6.9999602,28 C6.45470893,28 6,27.5543187 6,27.004543 L6,3.99545703 C6,3.45526288 6.44573523,3 6.9955775,3 L17,3 L17,7.99408095 C17,9.11344516 17.8944962,10 18.9979131,10 L23,10 L23,19.035623 C22.8366558,19.0121474 22.6697139,19 22.5,19 C20.5670034,19 19,20.5676804 19,22.5054058 L19,24 L18.9975446,24 C18.446616,24 18,24.4378814 18,25.0029293 L18,28 L18,28 L18,28 Z M20,24 L20,22.5093004 C20,21.1123657 21.1192881,20 22.5,20 C23.8903379,20 25,21.123452 25,22.5093004 L25,24 L20,24 L20,24 Z M18,3.5 L18,7.99121523 C18,8.54835167 18.4506511,9 18.9967388,9 L22.6999512,9 L18,3.5 L18,3.5 Z M19.5034227,25 C19.22539,25 19,25.2148438 19,25.4976988 L19,29.5023012 C19,29.7771727 19.2329025,30 19.5034227,30 L25.4965773,30 C25.77461,30 26,29.7851562 26,29.5023012 L26,25.4976988 C26,25.2228273 25.7670975,25 25.4965773,25 L19.5034227,25 L19.5034227,25 Z" id="document-locked" sketch:type="MSShapeGroup"></path>
        </g>
    </g>
</svg>