<?xml version="1.0" encoding="UTF-8" standalone="no"?>
<svg width="32px" height="32px" viewBox="0 0 32 32" version="1.1" xmlns="http://www.w3.org/2000/svg" xmlns:xlink="http://www.w3.org/1999/xlink" xmlns:sketch="http://www.bohemiancoding.com/sketch/ns">
    <!-- Generator: Sketch 3.0.3 (7891) - http://www.bohemiancoding.com/sketch -->
    <title>icon 127 shredder</title>
    <desc>Created with Sketch.</desc>
    <defs></defs>
    <g id="Page-1" stroke="none" stroke-width="1" fill="none" fill-rule="evenodd" sketch:type="MSPage">
        <g id="icon-127-shredder" sketch:type="MSArtboardGroup" fill="#929292">
            <path d="M27,23 L28.0057181,23 C29.6594143,23 31,21.6511841 31,19.9942017 L31,15.0057983 C31,13.3457418 29.6594313,12 28.0057181,12 L26,12 L26,4.99961498 C26,3.89525812 25.1090746,3 24.0025781,3 L8.99742191,3 C7.89427625,3 7,3.88743329 7,4.99961498 L7,12 L7,12 L4.99428189,12 C3.34058566,12 2,13.3488159 2,15.0057983 L2,19.9942017 C2,21.6542582 3.3405687,23 4.99428189,23 L6,23 L6,20 L27,20 L27,23 L27,23 L27,23 Z M5,21.999987 C3.89438261,21.9960569 3,21.1033059 3,20.0026083 L3,14.9973917 C3,13.8958578 3.89871223,13 5.00732994,13 L27.9926701,13 C29.1016617,13 30,13.8942627 30,14.9973917 L30,20.0026083 C30,21.1017135 29.1052465,21.9960485 28,21.9999869 L28,19 L5,19 L5,21.999987 L5,21.999987 L5,21.999987 Z M8.9999602,4 C8.44769743,4 8,4.45303631 8,4.99703014 L8,12 L25,12 L25,4.99703014 C25,4.4463856 24.5452911,4 24.0000398,4 L8.9999602,4 L8.9999602,4 Z M25,17 C25.5522848,17 26,16.5522848 26,16 C26,15.4477152 25.5522848,15 25,15 C24.4477152,15 24,15.4477152 24,16 C24,16.5522848 24.4477152,17 25,17 L25,17 Z M7,21 L7,29 L8,29 L8,21 L7,21 L7,21 Z M9,21 L9,28 L10,28 L10,21 L9,21 L9,21 Z M11,21 L11,29 L12,29 L12,21 L11,21 L11,21 Z M13,21 L13,27 L14,27 L14,21 L13,21 L13,21 Z M15,21 L15,28 L16,28 L16,21 L15,21 L15,21 Z M17,21 L17,27 L18,27 L18,21 L17,21 L17,21 Z M19,21 L19,29 L20,29 L20,21 L19,21 L19,21 Z M23,21 L23,28 L24,28 L24,21 L23,21 L23,21 Z M25,21 L25,29 L26,29 L26,21 L25,21 L25,21 Z M21,21 L21,27 L22,27 L22,21 L21,21 L21,21 Z" id="shredder" sketch:type="MSShapeGroup"></path>
        </g>
    </g>
</svg>