<?xml version="1.0" encoding="UTF-8" standalone="no"?>
<svg width="32px" height="32px" viewBox="0 0 32 32" version="1.1" xmlns="http://www.w3.org/2000/svg" xmlns:xlink="http://www.w3.org/1999/xlink" xmlns:sketch="http://www.bohemiancoding.com/sketch/ns">
    <!-- Generator: Sketch 3.0.3 (7891) - http://www.bohemiancoding.com/sketch -->
    <title>icon 117 lock stripes</title>
    <desc>Created with Sketch.</desc>
    <defs></defs>
    <g id="Page-1" stroke="none" stroke-width="1" fill="none" fill-rule="evenodd" sketch:type="MSPage">
        <g id="icon-117-lock-stripes" sketch:type="MSArtboardGroup" fill="#929292">
            <path d="M7,23 L7,17.0058587 C7,15.8970601 7.89427625,15 8.99742191,15 L24.0025781,15 C25.1090746,15 26,15.8980535 26,17.0058587 L26,23 L7,23 L7,23 Z M7,24 L7,26 L7.75,26 L9.25,24 L7,24 L7,24 Z M7.00000831,27 C7.00314284,28.105111 7.89287662,29 8.99742191,29 L24.0025781,29 C25.1037802,29 25.9968482,28.1060981 25.9999917,27 L7.00000771,27 L7.00000831,27 L7.00000831,27 Z M26,26 L26,24 L25.25,24 L23.75,26 L26,26 L26,26 L26,26 Z M9,14.0000125 L9,10.499235 C9,6.35670485 12.3578644,3 16.5,3 C20.6337072,3 24,6.35752188 24,10.499235 L24,14.0000125 C25.6591471,14.0047488 27,15.3503174 27,17.0094776 L27,26.9905224 C27,28.6633689 25.6529197,30 23.991212,30 L9.00878799,30 C7.34559019,30 6,28.652611 6,26.9905224 L6,17.0094776 C6,15.339581 7.34233349,14.0047152 9,14.0000125 L9,14.0000125 L9,14.0000125 Z M8.75,26 L10.25,24 L12.25,24 L10.75,26 L8.75,26 L8.75,26 L8.75,26 Z M11.75,26 L13.25,24 L15.25,24 L13.75,26 L11.75,26 L11.75,26 L11.75,26 Z M14.75,26 L16.25,24 L18.25,24 L16.75,26 L14.75,26 L14.75,26 L14.75,26 Z M17.75,26 L19.25,24 L21.25,24 L19.75,26 L17.75,26 L17.75,26 L17.75,26 Z M20.75,26 L22.25,24 L24.25,24 L22.75,26 L20.75,26 L20.75,26 L20.75,26 Z M10,14 L10,10.4934269 C10,6.90817171 12.9101491,4 16.5,4 C20.0825462,4 23,6.90720623 23,10.4934269 L23,14 L22,14 L22,10.5090731 C22,7.46649603 19.5313853,5 16.5,5 C13.4624339,5 11,7.46140289 11,10.5090731 L11,14 L10,14 L10,14 Z M12,14 L12,10.5008537 C12,8.0092478 14.0147186,6 16.5,6 C18.9802243,6 21,8.01510082 21,10.5008537 L21,14 L12,14 L12,14 L12,14 Z" id="lock-stripes" sketch:type="MSShapeGroup"></path>
        </g>
    </g>
</svg>