<?xml version="1.0" encoding="UTF-8" standalone="no"?>
<svg width="32px" height="32px" viewBox="0 0 32 32" version="1.1" xmlns="http://www.w3.org/2000/svg" xmlns:xlink="http://www.w3.org/1999/xlink" xmlns:sketch="http://www.bohemiancoding.com/sketch/ns">
    <!-- Generator: Sketch 3.0.3 (7891) - http://www.bohemiancoding.com/sketch -->
    <title>icon 141 box filled</title>
    <desc>Created with Sketch.</desc>
    <defs></defs>
    <g id="Page-1" stroke="none" stroke-width="1" fill="none" fill-rule="evenodd" sketch:type="MSPage">
        <g id="icon-141-box-filled" sketch:type="MSArtboardGroup" fill="#929292">
            <path d="M4,12 L9,4 L24,4 L29,12 L29,12.5 L29,28 L4,28 L4,12 L4,12 Z M27.7750244,12 L23.4000244,5 L9.59997559,5 L5.22497559,12 L27.7750244,12 L27.7750244,12 Z M5,13 L5,27 L28,27 L28,13 L5,13 L5,13 Z M13.9973917,18 C12.8942627,18 12,18.8877296 12,20 C12,21.1045695 12.8958578,22 13.9973917,22 L19.0026083,22 C20.1057373,22 21,21.1122704 21,20 C21,18.8954305 20.1041422,18 19.0026083,18 L13.9973917,18 L13.9973917,18 Z M14.0029293,19 C13.4490268,19 13,19.4438648 13,20 C13,20.5522847 13.4378814,21 14.0029293,21 L18.9970707,21 C19.5509732,21 20,20.5561352 20,20 C20,19.4477153 19.5621186,19 18.9970707,19 L14.0029293,19 L14.0029293,19 Z M11,6 L10.4000244,7 L22.5999756,7 L22,6 L11,6 L11,6 Z M9.69995117,8 L9.09997559,9 L23.9000244,9 L23.3000488,8 L9.69995117,8 L9.69995117,8 Z M8.5,10 L7.90002441,11 L25.0999756,11 L24.5,10 L8.5,10 L8.5,10 Z" id="box-filled" sketch:type="MSShapeGroup"></path>
        </g>
    </g>
</svg>