<?xml version="1.0" encoding="UTF-8" standalone="no"?>
<svg width="32px" height="32px" viewBox="0 0 32 32" version="1.1" xmlns="http://www.w3.org/2000/svg" xmlns:xlink="http://www.w3.org/1999/xlink" xmlns:sketch="http://www.bohemiancoding.com/sketch/ns">
    <!-- Generator: Sketch 3.0.3 (7891) - http://www.bohemiancoding.com/sketch -->
    <title>icon 134 pen</title>
    <desc>Created with Sketch.</desc>
    <defs></defs>
    <g id="Page-1" stroke="none" stroke-width="1" fill="none" fill-rule="evenodd" sketch:type="MSPage">
        <g id="icon-134-pen" sketch:type="MSArtboardGroup" fill="#929292">
            <path d="M17.9999998,25 L17.9999998,9 L17.9999998,9 L14,9 L14,25 L17.9999998,25 L17.9999998,25 Z M17.7692378,26 L15.9999999,28.2999878 L14.230762,26 L17.7692378,26 L17.7692378,26 Z M17.9999998,8 L17.9999998,5.00311577 C17.9999998,4.44911023 17.5566466,4.00000001 16.9906309,4 L15.0093688,4 C14.4519098,4 14,4.4532356 14,5.00311577 L14,8 L17.9999998,8 L17.9999998,8 L17.9999998,8 Z M16,30 L18.9999998,26 L18.9999998,5.00086423 C18.9999998,3.89581743 18.1017392,3.00000001 17.0020867,3 L14.997913,3 C13.8944961,3 13,3.90162726 13,5.00086422 L13,26 L16,30 L16,30 Z" id="pen" sketch:type="MSShapeGroup"></path>
        </g>
    </g>
</svg>