<?xml version="1.0" encoding="UTF-8" standalone="no"?>
<svg width="32px" height="32px" viewBox="0 0 32 32" version="1.1" xmlns="http://www.w3.org/2000/svg" xmlns:xlink="http://www.w3.org/1999/xlink" xmlns:sketch="http://www.bohemiancoding.com/sketch/ns">
    <!-- Generator: Sketch 3.0.3 (7891) - http://www.bohemiancoding.com/sketch -->
    <title>icon 27 trash can</title>
    <desc>Created with Sketch.</desc>
    <defs></defs>
    <g id="Page-1" stroke="none" stroke-width="1" fill="none" fill-rule="evenodd" sketch:type="MSPage">
        <g id="icon-27-trash-can" sketch:type="MSArtboardGroup" fill="#929292">
            <path d="M23,7 L21,7 L21,7 L21,5.0048815 C21,3.89761602 20.1041422,3 19.0026083,3 L13.9973917,3 C12.8942627,3 12,3.8938998 12,5.0048815 L12,7 L10,7 L6,7 L6,8 L8,8 L8,26.9931517 C8,28.6537881 9.33396149,30 11.0001262,30 L21.9998738,30 C23.6567977,30 25,28.6640085 25,26.9931517 L25,8 L27,8 L27,7 L23,7 L23,7 L23,7 Z M9,8 L9,27.0054385 C9,28.1070044 9.89339733,29 10.9918842,29 L22.0081158,29 C23.1082031,29 24,28.0976562 24,27.0054385 L24,8 L9,8 L9,8 Z M12,10 L12,27 L13,27 L13,10 L12,10 L12,10 Z M16,10 L16,27 L17,27 L17,10 L16,10 L16,10 Z M20,10 L20,27 L21,27 L21,10 L20,10 L20,10 Z M14.0029293,4 C13.4490268,4 13,4.44266033 13,4.99895656 L13,7 L20,7 L20,4.99895656 C20,4.44724809 19.5621186,4 18.9970707,4 L14.0029293,4 L14.0029293,4 Z" id="trash-can" sketch:type="MSShapeGroup"></path>
        </g>
    </g>
</svg>