<?xml version="1.0" encoding="UTF-8" standalone="no"?>
<svg width="32px" height="32px" viewBox="0 0 32 32" version="1.1" xmlns="http://www.w3.org/2000/svg" xmlns:xlink="http://www.w3.org/1999/xlink" xmlns:sketch="http://www.bohemiancoding.com/sketch/ns">
    <!-- Generator: Sketch 3.0.3 (7891) - http://www.bohemiancoding.com/sketch -->
    <title>icon 25 hockey stick</title>
    <desc>Created with Sketch.</desc>
    <defs></defs>
    <g id="Page-1" stroke="none" stroke-width="1" fill="none" fill-rule="evenodd" sketch:type="MSPage">
        <g id="icon-25-hockey-stick" sketch:type="MSArtboardGroup" fill="#157EFB">
            <path d="M22.5158276,12.8795198 L16.4433876,25.1044865 C16.2035453,25.5873343 15.5536144,25.9971093 15.0029699,25.9971094 L8.99703014,25.9971098 C8.45303631,25.9971098 8,25.5498617 8,24.9981533 L8,23.9960664 C8,23.4397702 8.44358641,22.9971098 8.99077797,22.9971098 L14,22.9971098 L19.7747402,11.482866 L22.5158276,12.8795198 L22.5158276,12.8795198 L22.5158276,12.8795198 Z M22.960716,11.9838755 L24.4475951,8.99050746 C24.7201172,8.44186909 24.5026078,7.77630014 23.9558731,7.50094565 L23.1973862,7.11894538 C22.6532935,6.84492148 21.9925622,7.06075495 21.7231009,7.59803332 L20.2230568,10.5889685 L22.960716,11.9838755 L22.960716,11.9838755 Z M12,20.9971098 C12.8284271,20.9971098 13.5,20.325537 13.5,19.4971098 C13.5,18.6686827 12.8284271,17.9971098 12,17.9971098 C11.1715729,17.9971098 10.5,18.6686827 10.5,19.4971098 C10.5,20.325537 11.1715729,20.9971098 12,20.9971098 L12,20.9971098 Z" id="hockey-stick" sketch:type="MSShapeGroup"></path>
        </g>
    </g>
</svg>