<?xml version="1.0" encoding="UTF-8" standalone="no"?>
<svg width="32px" height="32px" viewBox="0 0 32 32" version="1.1" xmlns="http://www.w3.org/2000/svg" xmlns:xlink="http://www.w3.org/1999/xlink" xmlns:sketch="http://www.bohemiancoding.com/sketch/ns">
    <!-- Generator: Sketch 3.0.3 (7891) - http://www.bohemiancoding.com/sketch -->
    <title>icon 4 bowling ball</title>
    <desc>Created with Sketch.</desc>
    <defs></defs>
    <g id="Page-1" stroke="none" stroke-width="1" fill="none" fill-rule="evenodd" sketch:type="MSPage">
        <g id="icon-4-bowling-ball" sketch:type="MSArtboardGroup" fill="#157EFB">
            <path d="M16.5,29 C23.4035597,29 29,23.4035597 29,16.5 C29,9.59644029 23.4035597,4 16.5,4 C9.59644029,4 4,9.59644029 4,16.5 C4,23.4035597 9.59644029,29 16.5,29 L16.5,29 Z M16.5,13 C17.3284272,13 18,12.3284272 18,11.5 C18,10.6715728 17.3284272,10 16.5,10 C15.6715728,10 15,10.6715728 15,11.5 C15,12.3284272 15.6715728,13 16.5,13 L16.5,13 Z M19.5,18 C20.3284272,18 21,17.3284272 21,16.5 C21,15.6715728 20.3284272,15 19.5,15 C18.6715728,15 18,15.6715728 18,16.5 C18,17.3284272 18.6715728,18 19.5,18 L19.5,18 Z M13.5,18 C14.3284272,18 15,17.3284272 15,16.5 C15,15.6715728 14.3284272,15 13.5,15 C12.6715728,15 12,15.6715728 12,16.5 C12,17.3284272 12.6715728,18 13.5,18 L13.5,18 Z" id="bowling-ball" sketch:type="MSShapeGroup"></path>
        </g>
    </g>
</svg>