<?xml version="1.0" encoding="UTF-8" standalone="no"?>
<svg width="32px" height="32px" viewBox="0 0 32 32" version="1.1" xmlns="http://www.w3.org/2000/svg" xmlns:xlink="http://www.w3.org/1999/xlink" xmlns:sketch="http://www.bohemiancoding.com/sketch/ns">
    <!-- Generator: Sketch 3.0.3 (7891) - http://www.bohemiancoding.com/sketch -->
    <title>icon 5 billiard ball</title>
    <desc>Created with Sketch.</desc>
    <defs></defs>
    <g id="Page-1" stroke="none" stroke-width="1" fill="none" fill-rule="evenodd" sketch:type="MSPage">
        <g id="icon-5-billiard-ball" sketch:type="MSArtboardGroup" fill="#157EFB">
            <path d="M18.0002438,16.5 C18.6073285,16.9561144 19,17.6822005 19,18.5 C19,19.8807119 17.8807119,21 16.5,21 C15.1192881,21 14,19.8807119 14,18.5 C14,17.6822005 14.3926715,16.9561144 14.9997562,16.5 C14.3926715,16.0438856 14,15.3177995 14,14.5 C14,13.1192881 15.1192881,12 16.5,12 C17.8807119,12 19,13.1192881 19,14.5 C19,15.3177995 18.6073285,16.0438856 18.0002438,16.5 L18.0002438,16.5 L18.0002438,16.5 Z M16.5,29 C23.4035597,29 29,23.4035597 29,16.5 C29,9.59644029 23.4035597,4 16.5,4 C9.59644029,4 4,9.59644029 4,16.5 C4,23.4035597 9.59644029,29 16.5,29 L16.5,29 Z M16.5,23 C20.0898511,23 23,20.0898511 23,16.5 C23,12.9101489 20.0898511,10 16.5,10 C12.9101489,10 10,12.9101489 10,16.5 C10,20.0898511 12.9101489,23 16.5,23 L16.5,23 Z M16.5,20 C17.3284272,20 18,19.3284272 18,18.5 C18,17.6715728 17.3284272,17 16.5,17 C15.6715728,17 15,17.6715728 15,18.5 C15,19.3284272 15.6715728,20 16.5,20 L16.5,20 Z M16.5,16 C17.3284272,16 18,15.3284272 18,14.5 C18,13.6715728 17.3284272,13 16.5,13 C15.6715728,13 15,13.6715728 15,14.5 C15,15.3284272 15.6715728,16 16.5,16 L16.5,16 Z" id="billiard-ball" sketch:type="MSShapeGroup"></path>
        </g>
    </g>
</svg>