<?xml version="1.0" encoding="UTF-8" standalone="no"?>
<svg width="32px" height="32px" viewBox="0 0 32 32" version="1.1" xmlns="http://www.w3.org/2000/svg" xmlns:xlink="http://www.w3.org/1999/xlink" xmlns:sketch="http://www.bohemiancoding.com/sketch/ns">
    <!-- Generator: Sketch 3.0.3 (7891) - http://www.bohemiancoding.com/sketch -->
    <title>icon 48 one finger swipe right</title>
    <desc>Created with Sketch.</desc>
    <defs></defs>
    <g id="Page-1" stroke="none" stroke-width="1" fill="none" fill-rule="evenodd" sketch:type="MSPage">
        <g id="icon-48-one-finger-swipe-right" sketch:type="MSArtboardGroup" fill="#157EFB">
            <path d="M19.9719734,14 L26.049999,14 L22.799999,10.75 L23.549999,10 L28.049999,14.5 L23.549999,19 L22.799999,18.25 L26.049999,15 L26.049999,15 L20,15 L20,31 L11,31 L11,14.5050269 C11,12.0135683 13.0147186,10 15.5,10 C17.8100349,10 19.7206438,11.7496631 19.9719734,14 L19.9719734,14 L19.9719734,14 Z M15.5,12 C14.1192881,12 13,13.1285541 13,14.5097752 L13,18 L18,18 L18,14.5097752 C18,13.1236646 16.8903379,12 15.5,12 L15.5,12 Z M13,21 L13,22 L18,22 L18,21 L13,21 L13,21 Z M13,23 L13,24 L18,24 L18,23 L13,23 L13,23 Z" id="one-finger-swipe-right" sketch:type="MSShapeGroup"></path>
        </g>
    </g>
</svg>