<?xml version="1.0" encoding="UTF-8" standalone="no"?>
<svg width="32px" height="32px" viewBox="0 0 32 32" version="1.1" xmlns="http://www.w3.org/2000/svg" xmlns:xlink="http://www.w3.org/1999/xlink" xmlns:sketch="http://www.bohemiancoding.com/sketch/ns">
    <!-- Generator: Sketch 3.0.3 (7891) - http://www.bohemiancoding.com/sketch -->
    <title>icon 36 one finger double tap</title>
    <desc>Created with Sketch.</desc>
    <defs></defs>
    <g id="Page-1" stroke="none" stroke-width="1" fill="none" fill-rule="evenodd" sketch:type="MSPage">
        <g id="icon-36-one-finger-double-tap" sketch:type="MSArtboardGroup" fill="#157EFB">
            <path d="M16.5,10 C14.0147186,10 12,12.0135683 12,14.5050269 L12,31 L21,31 L21,14.5050269 C21,12.0169692 18.9802243,10 16.5,10 L16.5,10 Z M16.5,12 C15.1192881,12 14,13.1285541 14,14.5097752 L14,18 L19,18 L19,14.5097752 C19,13.1236646 17.8903379,12 16.5,12 L16.5,12 Z M14,21 L14,22 L19,22 L19,21 L14,21 L14,21 Z M14,23 L14,24 L19,24 L19,23 L14,23 L14,23 Z M23,22.746764 C25.4362521,20.8239049 27,17.844569 27,14.5 C27,8.70100984 22.2989902,4 16.5,4 C10.7010098,4 6,8.70100984 6,14.5 C6,17.844569 7.5637479,20.8239049 10,22.746764 L10,21.4282446 C8.15346057,19.6951562 7,17.2322807 7,14.5 C7,9.25329462 11.2532946,5 16.5,5 C21.7467054,5 26,9.25329462 26,14.5 C26,17.2322807 24.8465394,19.6951562 23,21.4282446 L23,22.746764 L23,22.746764 L23,22.746764 Z M23,18.2441745 C23.6360558,17.1423419 24,15.8636729 24,14.5 C24,10.3578642 20.6421358,7 16.5,7 C12.3578642,7 9,10.3578642 9,14.5 C9,15.8636729 9.36394423,17.1423419 10,18.2441745 L10,14.4965783 C10,10.9100758 12.9101491,8 16.5,8 C20.0825462,8 23,10.9086172 23,14.4965783 L23,18.2441745 L23,18.2441745 L23,18.2441745 Z" id="one-finger-double-tap" sketch:type="MSShapeGroup"></path>
        </g>
    </g>
</svg>