<?xml version="1.0" encoding="UTF-8" standalone="no"?>
<svg width="32px" height="32px" viewBox="0 0 32 32" version="1.1" xmlns="http://www.w3.org/2000/svg" xmlns:xlink="http://www.w3.org/1999/xlink" xmlns:sketch="http://www.bohemiancoding.com/sketch/ns">
    <!-- Generator: Sketch 3.0.3 (7891) - http://www.bohemiancoding.com/sketch -->
    <title>icon 50 one finger swipe down</title>
    <desc>Created with Sketch.</desc>
    <defs></defs>
    <g id="Page-1" stroke="none" stroke-width="1" fill="none" fill-rule="evenodd" sketch:type="MSPage">
        <g id="icon-50-one-finger-swipe-down" sketch:type="MSArtboardGroup" fill="#157EFB">
            <path d="M16,23 L12,23 L12,6.50502686 C12,4.01356828 14.0147186,2 16.5,2 C18.9802243,2 21,4.01696923 21,6.50502686 L21,23 L17,23 L17,29.049999 L20.25,25.799999 L21,26.549999 L16.5,31.049999 L12,26.549999 L12.75,25.799999 L16,29.049999 L16,23 L16,23 Z M16.5,4 C15.1192881,4 14,5.12855411 14,6.50977516 L14,10 L19,10 L19,6.50977516 C19,5.12366461 17.8903379,4 16.5,4 L16.5,4 Z M14,13 L14,14 L19,14 L19,13 L14,13 L14,13 Z M14,15 L14,16 L19,16 L19,15 L14,15 L14,15 Z" id="one-finger-swipe-down" sketch:type="MSShapeGroup"></path>
        </g>
    </g>
</svg>