<?xml version="1.0" encoding="UTF-8" standalone="no"?>
<svg width="32px" height="32px" viewBox="0 0 32 32" version="1.1" xmlns="http://www.w3.org/2000/svg" xmlns:xlink="http://www.w3.org/1999/xlink" xmlns:sketch="http://www.bohemiancoding.com/sketch/ns">
    <!-- Generator: Sketch 3.0.3 (7891) - http://www.bohemiancoding.com/sketch -->
    <title>icon 39 two fingers swipe left</title>
    <desc>Created with Sketch.</desc>
    <defs></defs>
    <g id="Page-1" stroke="none" stroke-width="1" fill="none" fill-rule="evenodd" sketch:type="MSPage">
        <g id="icon-39-two-fingers-swipe-left" sketch:type="MSArtboardGroup" fill="#157EFB">
            <path d="M10.0770377,17 C10.3240006,14.7500433 12.2323956,13 14.549999,13 C17.0302233,13 19.049999,15.012806 19.049999,17.495728 L19.049999,31 L10.049999,31 L10.049999,18 L4,18 L4,18 L7.25,21.25 L6.5,22 L2,17.5 L6.5,13 L7.25,13.75 L4,17 L10.0770377,17 L10.0770377,17 Z M14.549999,15 C13.1692871,15 12.049999,16.1285541 12.049999,17.5097752 L12.049999,21 L17.049999,21 L17.049999,17.5097752 C17.049999,16.1236646 15.9403369,15 14.549999,15 L14.549999,15 Z M12.049999,24 L12.049999,25 L17.049999,25 L17.049999,24 L12.049999,24 L12.049999,24 Z M12.049999,26 L12.049999,27 L17.049999,27 L17.049999,26 L12.049999,26 L12.049999,26 Z M25.549999,10 C23.0647176,10 21.049999,12.0135683 21.049999,14.5050269 L21.049999,31 L30.049999,31 L30.049999,14.5050269 C30.049999,12.0169692 28.0302233,10 25.549999,10 L25.549999,10 Z M25.549999,12 C24.1692871,12 23.049999,13.1285541 23.049999,14.5097752 L23.049999,18 L28.049999,18 L28.049999,14.5097752 C28.049999,13.1236646 26.9403369,12 25.549999,12 L25.549999,12 Z M23.049999,21 L23.049999,22 L28.049999,22 L28.049999,21 L23.049999,21 L23.049999,21 Z M23.049999,23 L23.049999,24 L28.049999,24 L28.049999,23 L23.049999,23 L23.049999,23 Z" id="two-fingers-swipe-left" sketch:type="MSShapeGroup"></path>
        </g>
    </g>
</svg>