<?xml version="1.0" encoding="UTF-8" standalone="no"?>
<svg width="32px" height="32px" viewBox="0 0 32 32" version="1.1" xmlns="http://www.w3.org/2000/svg" xmlns:xlink="http://www.w3.org/1999/xlink" xmlns:sketch="http://www.bohemiancoding.com/sketch/ns">
    <!-- Generator: Sketch 3.0.3 (7891) - http://www.bohemiancoding.com/sketch -->
    <title>icon 49 one finger swipe up</title>
    <desc>Created with Sketch.</desc>
    <defs></defs>
    <g id="Page-1" stroke="none" stroke-width="1" fill="none" fill-rule="evenodd" sketch:type="MSPage">
        <g id="icon-49-one-finger-swipe-up" sketch:type="MSArtboardGroup" fill="#157EFB">
            <path d="M16,10.0274511 C13.7500248,10.276064 12,12.1829929 12,14.5050269 L12,31 L21,31 L21,14.5050269 C21,12.1864709 19.2460491,10.2770029 17,10.0275945 L17,3.950001 L20.25,7.200001 L21,6.450001 L16.5,1.950001 L12,6.450001 L12.75,7.200001 L16,3.950001 L16,10.0274511 L16,10.0274511 Z M16.5,12 C15.1192881,12 14,13.1285541 14,14.5097752 L14,18 L19,18 L19,14.5097752 C19,13.1236646 17.8903379,12 16.5,12 L16.5,12 Z M14,21 L14,22 L19,22 L19,21 L14,21 L14,21 Z M14,23 L14,24 L19,24 L19,23 L14,23 L14,23 Z" id="one-finger-swipe-up" sketch:type="MSShapeGroup"></path>
        </g>
    </g>
</svg>