<?xml version="1.0" encoding="UTF-8" standalone="no"?>
<svg width="32px" height="32px" viewBox="0 0 32 32" version="1.1" xmlns="http://www.w3.org/2000/svg" xmlns:xlink="http://www.w3.org/1999/xlink" xmlns:sketch="http://www.bohemiancoding.com/sketch/ns">
    <!-- Generator: Sketch 3.0.3 (7891) - http://www.bohemiancoding.com/sketch -->
    <title>icon 47 diving goggles</title>
    <desc>Created with Sketch.</desc>
    <defs></defs>
    <g id="Page-1" stroke="none" stroke-width="1" fill="none" fill-rule="evenodd" sketch:type="MSPage">
        <g id="icon-47-diving-goggles" sketch:type="MSArtboardGroup" fill="#929292">
            <path d="M16,21 L18,21 L18,18 L11,18 L11,21 L13,21 C13,24.8659932 13,21 13,21 C13,25.418278 16.5907123,29 21,29 C25.418278,29 29,25.4181095 29,21.003902 L29,4 L26,4 L26,21.0078595 C26,23.7649426 23.7558048,26 21,26 C18.2385763,26 16,23.7541838 16,21 C16,21 16,22.9747925 16,21 L16,21 Z M27,9 L27,5 L28,5 L28,9 L27,9 L27,9 Z M4,11.5 L4,11.9989013 C4,14.7609319 6.23408975,17 8.99408095,17 L9.99707067,17 C10.5509732,17 11.2517114,16.6404123 11.5779538,16.1743517 L13.3539691,13.637187 C13.9869045,12.7329936 15.0145278,12.7377672 15.641794,13.637187 L17.4112434,16.1743517 C17.7292584,16.6303447 18.4257513,17 18.9918438,17 L19.9966875,17 C22.7599407,17 25,14.7607271 25,11.9989013 L25,11.5 C25,8.46243388 22.5292806,6 19.5099272,6 L9.49007281,6 C6.45798932,6 4,8.46861471 4,11.5 L4,11.5 Z M19.5099272,7 C21.9813463,7 24,9.01906999 24,11.5 L24,11.9989013 C24,14.2084203 22.2076779,16 19.9966875,16 L18.9918438,16 C18.7574679,16 18.3652264,15.7941026 18.2314713,15.6023148 L16.4620219,13.0651501 C15.4362398,11.5943094 13.5652136,11.5916155 12.5347372,13.0637247 L10.7587219,15.6008893 C10.622242,15.7958606 10.2292664,16 9.99707067,16 L8.99408095,16 C6.78738031,16 5,14.2096533 5,11.9989013 L5,11.5 C5,9.01818749 7.01298219,7 9.49007281,7 L19.5099272,7 L19.5099272,7 Z M19.5099272,8 C21.4290154,8 23,9.56454128 23,11.4849262 L23,11.9816789 C23,13.6316834 21.6554859,14.9698525 19.9966875,14.9698525 L18.9918438,14.9698525 C19.085328,14.9698525 18.9989673,14.9247148 19.0516992,15 L17.2822499,12.4737624 C15.8591017,10.4419379 13.1446744,10.4380465 11.7155053,12.4709237 L9.93948997,14.9971613 C9.99033874,14.9248331 9.90330002,14.9698525 9.99707067,14.9698525 L8.99408095,14.9698525 C7.34003661,14.9698525 6,13.6333727 6,11.9816789 L6,11.4849262 C6,9.56313373 7.56584589,8 9.49007281,8 L19.5099272,8 L19.5099272,8 Z" id="diving-goggles" sketch:type="MSShapeGroup"></path>
        </g>
    </g>
</svg>