<?xml version="1.0" encoding="UTF-8" standalone="no"?>
<svg width="32px" height="32px" viewBox="0 0 32 32" version="1.1" xmlns="http://www.w3.org/2000/svg" xmlns:xlink="http://www.w3.org/1999/xlink" xmlns:sketch="http://www.bohemiancoding.com/sketch/ns">
    <!-- Generator: Sketch 3.0.3 (7891) - http://www.bohemiancoding.com/sketch -->
    <title>icon 22 volleyball</title>
    <desc>Created with Sketch.</desc>
    <defs></defs>
    <g id="Page-1" stroke="none" stroke-width="1" fill="none" fill-rule="evenodd" sketch:type="MSPage">
        <g id="icon-22-volleyball" sketch:type="MSArtboardGroup" fill="#929292">
            <path d="M28.8014813,14.2689969 C25.2082251,10.8457504 20.1637816,9.03607557 14.9182196,9.71528005 C15.2218788,11.5241653 15.8343162,13.3114009 16.7755907,15.002126 C21.3391981,15.0725819 25.4789607,16.8899049 28.5557056,19.8149223 C28.5385917,19.8773035 28.6437363,19.4874751 28.7019557,19.2256942 C28.8970865,18.348297 29,17.4361669 29,16.5 C29,16.0199043 28.9729342,15.5461302 28.9202451,15.0801202 C28.8625213,14.5695803 28.7595905,14.0364847 28.8014813,14.2689969 L28.8014813,14.2689969 Z M28.3491437,12.5084199 C24.6490968,9.54214186 19.801116,8.04385679 14.7798484,8.69601999 C14.6194354,7.15261386 14.6797375,5.60369832 14.9484076,4.09535369 C14.8971387,4.1017011 15.1280006,4.07329239 15.2960447,4.05723314 C15.6922571,4.01936882 16.0938666,4 16.5,4 C21.7408495,4 26.2283914,7.22529277 28.0860139,11.7992663 C28.2302329,12.1543729 28.3914638,12.6340968 28.3491437,12.5084199 L28.3491437,12.5084199 Z M28.2120006,20.8776479 C26.7851075,19.4398175 25.0952714,18.2633001 23.2206204,17.4262238 C20.999787,22.7335064 16.4878215,26.4562162 11.2684022,27.8558721 C11.2091209,27.8285161 11.4369636,27.9337503 11.6129444,28.0085741 C13.1141571,28.6468617 14.7658386,29 16.5,29 C21.6998689,29 26.1581652,25.8249501 28.0419556,21.3077833 C28.1324495,21.0907868 28.240531,20.801351 28.2120006,20.8776479 L28.2120006,20.8776479 Z M9.90150081,27.118487 C15.280753,26.053552 20.0186486,22.405875 22.2686848,17.0364943 C20.5506503,16.3953061 18.6970515,16.0322362 16.7626521,16.0020482 C14.3636778,20.0129045 10.6006852,22.7230884 6.41110036,23.8814173 C6.36295077,23.8157181 6.58010297,24.1112442 6.74564963,24.3175392 C7.4582352,25.2055239 8.28957078,25.9941299 9.21556575,26.6592669 C9.47819242,26.8479101 9.94275345,27.1441764 9.90150081,27.118487 L9.90150081,27.118487 Z M5.82270496,23.003114 C7.83930969,22.4888741 9.75837544,21.5956961 11.4641737,20.354589 C8.55367149,16.5412315 7.39308085,11.898241 7.89417012,7.43411056 C7.92925414,7.40079613 7.46448013,7.85429614 7.21462919,8.13133883 C5.2164304,10.3470053 4,13.2814464 4,16.5 C4,18.6580699 4.54688599,20.6884078 5.5096294,22.459985 C5.64842896,22.7153948 5.86500591,23.0724184 5.82270496,23.003114 L5.82270496,23.003114 Z M9.07757335,6.44128336 C8.26439307,10.9778103 9.29506545,15.8127771 12.2765511,19.7236176 C13.6816189,18.5598001 14.9150352,17.1423113 15.9031634,15.490882 C13.9289535,11.946184 13.3177562,8.00131694 13.9052145,4.26967026 C13.9367659,4.26300943 13.7288481,4.30745618 13.5945134,4.33943348 C12.1783944,4.67652941 10.8556838,5.25457612 9.67210101,6.02785435 C9.3884697,6.21316112 8.99961875,6.49890252 9.07757335,6.44128336 L9.07757335,6.44128336 Z" id="volleyball" sketch:type="MSShapeGroup"></path>
        </g>
    </g>
</svg>