<?xml version="1.0" encoding="UTF-8" standalone="no"?>
<svg width="32px" height="32px" viewBox="0 0 32 32" version="1.1" xmlns="http://www.w3.org/2000/svg" xmlns:xlink="http://www.w3.org/1999/xlink" xmlns:sketch="http://www.bohemiancoding.com/sketch/ns">
    <!-- Generator: Sketch 3.0.3 (7891) - http://www.bohemiancoding.com/sketch -->
    <title>icon 10 basketball</title>
    <desc>Created with Sketch.</desc>
    <defs></defs>
    <g id="Page-1" stroke="none" stroke-width="1" fill="none" fill-rule="evenodd" sketch:type="MSPage">
        <g id="icon-10-basketball" sketch:type="MSArtboardGroup" fill="#929292">
            <path d="M4.08821187,17.990306 C4.0299641,17.5008364 4,17.0026879 4,16.4975409 C4,13.6949687 4.9223151,11.1078149 6.47997317,9.02305155 C9.52047901,9.18173764 12.3666269,10.0745407 14.8445154,11.5275594 C12.9784608,15.3580635 9.04747206,17.9975409 4.5,17.9975409 C4.3810251,17.9975409 4.10691895,17.9909641 4.08821183,17.9903057 L4.08821187,17.990306 L4.08821187,17.990306 Z M4.24954634,18.9950818 C5.40677166,24.701908 10.4517361,28.9975409 16.5,28.9975409 C16.8316889,28.9975409 17.1603605,28.9846219 17.4855389,28.9592598 L17.4855389,28.9592598 C17.1693741,27.8599686 17,26.6985345 17,25.4975409 C17,22.095271 18.3592621,19.010474 20.5643632,16.7565732 C19.2445947,14.9088899 17.5933631,13.3142194 15.6975238,12.0594173 C13.6508978,16.1718769 9.40543369,18.9975409 4.5,18.9975409 C4.41632086,18.9975409 4.33283376,18.9967187 4.24954634,18.9950818 L4.24954634,18.9950818 L4.24954634,18.9950818 Z M15.7326065,4.02071124 C12.3819381,4.22363713 9.38751,5.74649312 7.26248637,8.07611519 L7.26248637,8.07611519 C10.1509466,8.33488096 12.8580025,9.22348349 15.2453159,10.6035847 C15.7328959,9.32837437 16,7.94415041 16,6.49754091 C16,5.64721943 15.9077122,4.81845292 15.7326065,4.02071124 L15.7326065,4.02071124 L15.7326065,4.02071124 Z M16.7504536,4 C22.343037,4.10991101 27.0352745,7.89275348 28.5144613,13.0358226 C25.7628741,13.2504316 23.2614002,14.3559966 21.2982744,16.0642826 C19.8886777,14.1199068 18.1289119,12.4459393 16.1115344,11.1349374 C16.6847274,9.70100929 17,8.13609305 17,6.49754091 C17,5.64224507 16.914099,4.80701251 16.7504537,4 L16.7504536,4 L16.7504536,4 Z M23.9744894,26.5175677 C22.3943357,27.6982001 20.525562,28.5138321 18.4931272,28.8395047 L18.4931276,28.8395046 C18.1724381,27.7819163 18,26.6598661 18,25.4975409 C18,22.4419049 19.1917389,19.6646146 21.1357778,17.6051089 C22.7858165,20.2076733 23.8039743,23.2504135 23.9744894,26.5175677 L23.9744894,26.5175677 L23.9744894,26.5175677 Z M24.9214257,25.7350545 C27.4275269,23.4490511 29,20.1569315 29,16.4975409 C29,15.6497679 28.9156034,14.8217068 28.7547537,14.0213011 C26.1191369,14.1898827 23.725006,15.2463032 21.8682394,16.8946841 C23.5483346,19.4830259 24.6311536,22.4949063 24.9214257,25.7350545 L24.9214257,25.7350545 L24.9214257,25.7350545 Z" id="basketball" sketch:type="MSShapeGroup"></path>
        </g>
    </g>
</svg>