<?xml version="1.0" encoding="UTF-8" standalone="no"?>
<svg width="32px" height="32px" viewBox="0 0 32 32" version="1.1" xmlns="http://www.w3.org/2000/svg" xmlns:xlink="http://www.w3.org/1999/xlink" xmlns:sketch="http://www.bohemiancoding.com/sketch/ns">
    <!-- Generator: Sketch 3.0.3 (7891) - http://www.bohemiancoding.com/sketch -->
    <title>icon 20 basketball hoop</title>
    <desc>Created with Sketch.</desc>
    <defs></defs>
    <g id="Page-1" stroke="none" stroke-width="1" fill="none" fill-rule="evenodd" sketch:type="MSPage">
        <g id="icon-20-basketball-hoop" sketch:type="MSArtboardGroup" fill="#929292">
            <path d="M11.1441077,18.0709918 L11.7343269,20 L7,20 L7,7 L26,7 L26,20 L21.2701153,20 L21.2701153,20 L21.8580396,18.0667977 C21.8693375,18.0446432 21.8799875,18.0223759 21.8899801,18 L24,18 L24,9 L9,9 L9,18 L11.1100199,18 C11.1206432,18.0237883 11.1320096,18.047454 11.1441077,18.0709918 L11.1441077,18.0709918 Z M11.1100199,17 L10,17 L10,10 L23,10 L23,17 L21.8899801,17 C21.3803827,15.8588798 19.1608537,15 16.5,15 C13.8391463,15 11.6196173,15.8588798 11.1100199,17 L11.1100199,17 L11.1100199,17 Z M13.0147324,24.1847374 L12.0402972,21 L6,21 L6,6 L27,6 L27,21 L20.9659958,21 L20.9659958,21 L19.9842529,24.2281494 L19.9774766,24.2281494 C19.7793218,25.225283 18.2979877,26 16.5,26 C14.6760024,26 13.1778861,25.2027065 13.0147324,24.1847374 L13.0147324,24.1847374 L13.0147324,24.1847374 Z M16.5,19 C18.9852814,19 21,18.3284271 21,17.5 C21,16.6715729 18.9852814,16 16.5,16 C14.0147186,16 12,16.6715729 12,17.5 C12,18.3284271 14.0147186,19 16.5,19 L16.5,19 Z" id="basketball-hoop" sketch:type="MSShapeGroup"></path>
        </g>
    </g>
</svg>