<?xml version="1.0" encoding="UTF-8" standalone="no"?>
<svg width="32px" height="32px" viewBox="0 0 32 32" version="1.1" xmlns="http://www.w3.org/2000/svg" xmlns:xlink="http://www.w3.org/1999/xlink" xmlns:sketch="http://www.bohemiancoding.com/sketch/ns">
    <!-- Generator: Sketch 3.0.3 (7891) - http://www.bohemiancoding.com/sketch -->
    <title>icon 21 table tennis</title>
    <desc>Created with Sketch.</desc>
    <defs></defs>
    <g id="Page-1" stroke="none" stroke-width="1" fill="none" fill-rule="evenodd" sketch:type="MSPage">
        <g id="icon-21-table-tennis" sketch:type="MSArtboardGroup" fill="#929292">
            <path d="M6.40571988,15 C6.0917145,14.0802604 5.95001453,13.075641 6.01577726,12.0234375 L6.08008229,10.994557 C6.32205812,7.12294364 9.64899633,4 13.5122109,4 L14.5222733,4 C18.3910092,4 21.7129652,7.13156983 21.9544019,10.994557 L22.0187069,12.0234375 C22.0844718,13.0756757 21.9428994,14.0802868 21.6290685,15 L6.40571988,15 L6.40571988,15 L6.40571988,15 Z M6.8313948,16 C8.06431485,18.390661 10.5538472,20 13.5194485,20 L14.5150357,20 C17.4819112,20 19.9711001,18.3907693 21.2035875,16 L6.8313948,16 L6.8313948,16 L6.8313948,16 Z M16.2265715,20.8024897 L16.5172473,25.0024557 C16.5478714,25.553689 16.0747064,26 15.5172473,26 L12.5172473,26 C11.9512316,26 11.4882166,25.553384 11.5188237,25.0024554 L11.7515199,20.8139253 C12.2997362,20.9357747 12.8731742,21 13.465611,21 L14.4611982,21 C15.0721821,21 15.6629078,20.9317537 16.2265715,20.8024897 L16.2265715,20.8024897 L16.2265715,20.8024897 Z M25.0172473,20.5 C25.0172473,19.3954305 24.1218168,18.5 23.0172473,18.5 C21.9126778,18.5 21.0172473,19.3954305 21.0172473,20.5 C21.0172473,21.6045695 21.9126778,22.5 23.0172473,22.5 C24.1218168,22.5 25.0172473,21.6045695 25.0172473,20.5 L25.0172473,20.5 Z" id="table-tennis" sketch:type="MSShapeGroup"></path>
        </g>
    </g>
</svg>