<?xml version="1.0" encoding="UTF-8" standalone="no"?>
<svg width="32px" height="32px" viewBox="0 0 32 32" version="1.1" xmlns="http://www.w3.org/2000/svg" xmlns:xlink="http://www.w3.org/1999/xlink" xmlns:sketch="http://www.bohemiancoding.com/sketch/ns">
    <!-- Generator: Sketch 3.0.3 (7891) - http://www.bohemiancoding.com/sketch -->
    <title>icon 13 file java</title>
    <desc>Created with Sketch.</desc>
    <defs></defs>
    <g id="Page-1" stroke="none" stroke-width="1" fill="none" fill-rule="evenodd" sketch:type="MSPage">
        <g id="icon-13-file-java" sketch:type="MSArtboardGroup" fill="#929292">
            <path d="M4.99428189,10 C3.34058566,10 2,11.3422643 2,12.9987856 L2,20.0012144 C2,21.6573979 3.3405687,23 4.99428189,23 L28.0057181,23 C29.6594143,23 31,21.6577357 31,20.0012144 L31,12.9987856 C31,11.3426021 29.6594313,10 28.0057181,10 L4.99428189,10 L4.99428189,10 Z M5.00732994,11 C3.89871223,11 3,11.9001762 3,12.992017 L3,20.007983 C3,21.1081436 3.89833832,22 5.00732994,22 L27.9926701,22 C29.1012878,22 30,21.0998238 30,20.007983 L30,12.992017 C30,11.8918564 29.1016617,11 27.9926701,11 L5.00732994,11 L5.00732994,11 Z M19.5,18.25 L21,13 L22,13 L20,20 L19.5,20 L19,20 L17,13 L18,13 L19.5,18.25 L19.5,18.25 Z M5,17 L5,17.9940809 C5,19.1019194 5.8938998,20 7.0048815,20 L7.9951185,20 C9.10238398,20 10,19.1134452 10,17.9940809 L10,13 L9,13 L9,18.009222 C9,18.5490248 8.55275191,19 8.00104344,19 L6.99895656,19 C6.44266033,19 6,18.5522847 6,18 L6,17 L5,17 L5,17 Z M15,17 L12,17 L12,20 L11,20 L11,16.5 L11,15 C11,13.8877296 11.897616,13 13.0048815,13 L13.9951185,13 C15.1061002,13 16,13.8954305 16,15 L16,17 L16,20 L15,20 L15,17 L15,17 L15,17 Z M12.9989566,14 C12.4472481,14 12,14.4438648 12,15 L12,16 L15,16 L15,15 C15,14.4477153 14.5573397,14 14.0010434,14 L12.9989566,14 L12.9989566,14 Z M27,17 L24,17 L24,20 L23,20 L23,16.5 L23,15 C23,13.8877296 23.897616,13 25.0048815,13 L25.9951185,13 C27.1061002,13 28,13.8954305 28,15 L28,17 L28,20 L27,20 L27,17 L27,17 Z M24.9989566,14 C24.4472481,14 24,14.4438648 24,15 L24,16 L27,16 L27,15 C27,14.4477153 26.5573397,14 26.0010434,14 L24.9989566,14 L24.9989566,14 Z" id="file-java" sketch:type="MSShapeGroup"></path>
        </g>
    </g>
</svg>