<?xml version="1.0" encoding="UTF-8" standalone="no"?>
<svg width="32px" height="32px" viewBox="0 0 32 32" version="1.1" xmlns="http://www.w3.org/2000/svg" xmlns:xlink="http://www.w3.org/1999/xlink" xmlns:sketch="http://www.bohemiancoding.com/sketch/ns">
    <!-- Generator: Sketch 3.0.3 (7891) - http://www.bohemiancoding.com/sketch -->
    <title>icon 58 file wav</title>
    <desc>Created with Sketch.</desc>
    <defs></defs>
    <g id="Page-1" stroke="none" stroke-width="1" fill="none" fill-rule="evenodd" sketch:type="MSPage">
        <g id="icon-58-file-wav" sketch:type="MSArtboardGroup" fill="#929292">
            <path d="M8.00684834,10 C6.34621185,10 5,11.3422643 5,12.9987856 L5,20.0012144 C5,21.6573979 6.33599155,23 8.00684834,23 L24.9931517,23 C26.6537881,23 28,21.6577357 28,20.0012144 L28,12.9987856 C28,11.3426021 26.6640085,10 24.9931517,10 L8.00684834,10 L8.00684834,10 Z M7.99456145,11 C6.89299558,11 6,11.9001762 6,12.992017 L6,20.007983 C6,21.1081436 6.90234375,22 7.99456145,22 L25.0054385,22 C26.1070044,22 27,21.0998238 27,20.007983 L27,12.992017 C27,11.8918564 26.0976562,11 25.0054385,11 L7.99456145,11 L7.99456145,11 Z M12.5,20 L12,20 L10.5,17 L9,20 L8.5,20 L8,20 L8,13 L9,13 L9,18 L10,16 L10.5,16 L11,16 L12,18 L12,13 L13,13 L13,20 L12.5,20 L12.5,20 Z M18,17 L15,17 L15,20 L14,20 L14,16.5 L14,15 C14,13.8877296 14.897616,13 16.0048815,13 L16.9951185,13 C18.1061002,13 19,13.8954305 19,15 L19,17 L19,20 L18,20 L18,17 L18,17 Z M15.9989566,14 C15.4472481,14 15,14.4438648 15,15 L15,16 L18,16 L18,15 C18,14.4477153 17.5573397,14 17.0010434,14 L15.9989566,14 L15.9989566,14 Z M22.5,18.25 L24,13 L25,13 L23,20 L22.5,20 L22,20 L20,13 L21,13 L22.5,18.25 L22.5,18.25 Z" id="file-wav" sketch:type="MSShapeGroup"></path>
        </g>
    </g>
</svg>