<?xml version="1.0" encoding="UTF-8" standalone="no"?>
<svg width="32px" height="32px" viewBox="0 0 32 32" version="1.1" xmlns="http://www.w3.org/2000/svg" xmlns:xlink="http://www.w3.org/1999/xlink" xmlns:sketch="http://www.bohemiancoding.com/sketch/ns">
    <!-- Generator: Sketch 3.0.3 (7891) - http://www.bohemiancoding.com/sketch -->
    <title>icon 87 document file py</title>
    <desc>Created with Sketch.</desc>
    <defs></defs>
    <g id="Page-1" stroke="none" stroke-width="1" fill="none" fill-rule="evenodd" sketch:type="MSPage">
        <g id="icon-87-document-file-py" sketch:type="MSArtboardGroup" fill="#929292">
            <path d="M21,13 L21,10 L21,10 L15,3 L4.00276013,3 C2.89666625,3 2,3.89833832 2,5.00732994 L2,27.9926701 C2,29.1012878 2.89092539,30 3.99742191,30 L19.0025781,30 C20.1057238,30 21,29.1017876 21,28.0092049 L21,26 L25.9931517,26 C27.6537881,26 29,24.6577357 29,23.0012144 L29,15.9987856 C29,14.3426021 27.6640085,13 25.9931517,13 L21,13 L21,13 L21,13 Z M20,26 L20,28.0066023 C20,28.5550537 19.5523026,29 19.0000398,29 L3.9999602,29 C3.45470893,29 3,28.5543187 3,28.004543 L3,4.99545703 C3,4.45526288 3.44573523,4 3.9955775,4 L14,4 L14,8.99408095 C14,10.1134452 14.8944962,11 15.9979131,11 L20,11 L20,13 L9.00684834,13 C7.34621185,13 6,14.3422643 6,15.9987856 L6,23.0012144 C6,24.6573979 7.33599155,26 9.00684834,26 L20,26 L20,26 L20,26 Z M15,4.5 L15,8.99121523 C15,9.54835167 15.4506511,10 15.9967388,10 L19.6999512,10 L15,4.5 L15,4.5 Z M8.99456145,14 C7.89299558,14 7,14.9001762 7,15.992017 L7,23.007983 C7,24.1081436 7.90234375,25 8.99456145,25 L26.0054385,25 C27.1070044,25 28,24.0998238 28,23.007983 L28,15.992017 C28,14.8918564 27.0976562,14 26.0054385,14 L8.99456145,14 L8.99456145,14 Z M12,18 L12,23 L13,23 L13,20 L14.9951185,20 C16.102384,20 17,19.1122704 17,18 C17,16.8954305 16.1061002,16 14.9951185,16 L12,16 L12,18 L12,18 Z M13,17 L13,19 L15.0010434,19 C15.5527519,19 16,18.5561352 16,18 C16,17.4477153 15.5573397,17 15.0010434,17 L13,17 L13,17 Z M21,20 L21,23 L20,23 L20,20 L18,17 L18,16 L19,16 L19,17 L20.5,19.25 L22,17 L22,16 L23,16 L23,17 L21,20 L21,20 Z" id="document-file-py" sketch:type="MSShapeGroup"></path>
        </g>
    </g>
</svg>