<?xml version="1.0" encoding="UTF-8" standalone="no"?>
<svg width="32px" height="32px" viewBox="0 0 32 32" version="1.1" xmlns="http://www.w3.org/2000/svg" xmlns:xlink="http://www.w3.org/1999/xlink" xmlns:sketch="http://www.bohemiancoding.com/sketch/ns">
    <!-- Generator: Sketch 3.0.3 (7891) - http://www.bohemiancoding.com/sketch -->
    <title>icon 7 file mp4</title>
    <desc>Created with Sketch.</desc>
    <defs></defs>
    <g id="Page-1" stroke="none" stroke-width="1" fill="none" fill-rule="evenodd" sketch:type="MSPage">
        <g id="icon-7-file-mp4" sketch:type="MSArtboardGroup" fill="#929292">
            <path d="M8.00684834,10 C6.34621185,10 5,11.3422643 5,12.9987856 L5,20.0012144 C5,21.6573979 6.33599155,23 8.00684834,23 L24.9931517,23 C26.6537881,23 28,21.6577357 28,20.0012144 L28,12.9987856 C28,11.3426021 26.6640085,10 24.9931517,10 L8.00684834,10 L8.00684834,10 Z M7.99456145,11 C6.89299558,11 6,11.9001762 6,12.992017 L6,20.007983 C6,21.1081436 6.90234375,22 7.99456145,22 L25.0054385,22 C26.1070044,22 27,21.0998238 27,20.007983 L27,12.992017 C27,11.8918564 26.0976562,11 25.0054385,11 L7.99456145,11 L7.99456145,11 Z M23,17 L23,14.5 L23,14.5 L21.2000122,17 L23,17 L23,17 Z M23,18 L23,20 L24,20 L24,18 L25,18 L25,17 L24,17 L24,13 L23,13 L20,17 L20,18 L23,18 L23,18 Z M10.5,16 L9,13 L8.5,13 L8,13 L8,20 L9,20 L9,15 L10,17 L10.5,17 L11,17 L12,15 L12,20 L13,20 L13,13 L12.5,13 L12,13 L10.5,16 L10.5,16 Z M14,15 L14,20 L15,20 L15,17 L16.9951185,17 C18.102384,17 19,16.1122704 19,15 C19,13.8954305 18.1061002,13 16.9951185,13 L14,13 L14,15 L14,15 Z M15,14 L15,16 L17.0010434,16 C17.5527519,16 18,15.5561352 18,15 C18,14.4477153 17.5573397,14 17.0010434,14 L15,14 L15,14 Z" id="file-mp4" sketch:type="MSShapeGroup"></path>
        </g>
    </g>
</svg>