<?xml version="1.0" encoding="UTF-8" standalone="no"?>
<svg width="32px" height="32px" viewBox="0 0 32 32" version="1.1" xmlns="http://www.w3.org/2000/svg" xmlns:xlink="http://www.w3.org/1999/xlink" xmlns:sketch="http://www.bohemiancoding.com/sketch/ns">
    <!-- Generator: Sketch 3.0.3 (7891) - http://www.bohemiancoding.com/sketch -->
    <title>icon 90 document file rb</title>
    <desc>Created with Sketch.</desc>
    <defs></defs>
    <g id="Page-1" stroke="none" stroke-width="1" fill="none" fill-rule="evenodd" sketch:type="MSPage">
        <g id="icon-90-document-file-rb" sketch:type="MSArtboardGroup" fill="#929292">
            <path d="M21,13 L21,10 L21,10 L15,3 L4.00276013,3 C2.89666625,3 2,3.89833832 2,5.00732994 L2,27.9926701 C2,29.1012878 2.89092539,30 3.99742191,30 L19.0025781,30 C20.1057238,30 21,29.1017876 21,28.0092049 L21,26 L27.9931517,26 C29.6537881,26 31,24.6577357 31,23.0012144 L31,15.9987856 C31,14.3426021 29.6640085,13 27.9931517,13 L21,13 L21,13 L21,13 Z M20,26 L20,28.0066023 C20,28.5550537 19.5523026,29 19.0000398,29 L3.9999602,29 C3.45470893,29 3,28.5543187 3,28.004543 L3,4.99545703 C3,4.45526288 3.44573523,4 3.9955775,4 L14,4 L14,8.99408095 C14,10.1134452 14.8944962,11 15.9979131,11 L20,11 L20,13 L11.0068483,13 C9.34621185,13 8,14.3422643 8,15.9987856 L8,23.0012144 C8,24.6573979 9.33599155,26 11.0068483,26 L20,26 L20,26 L20,26 Z M15,4.5 L15,8.99121523 C15,9.54835167 15.4506511,10 15.9967388,10 L19.6999512,10 L15,4.5 L15,4.5 Z M10.9945615,14 C9.89299558,14 9,14.9001762 9,15.992017 L9,23.007983 C9,24.1081436 9.90234375,25 10.9945615,25 L28.0054385,25 C29.1070044,25 30,24.0998238 30,23.007983 L30,15.992017 C30,14.8918564 29.0976562,14 28.0054385,14 L10.9945615,14 L10.9945615,14 Z M15.7999878,20 L15,20 L15,23 L14,23 L14,18 L14,16 L16.9951185,16 C18.1061002,16 19,16.8954305 19,18 C19,19.1106358 18.1050202,19.9973904 16.9999986,19.9999943 L19,23 L17.7999878,23 L15.7999878,20 L15.7999878,20 Z M15,17 L15,19 L17.0010434,19 C17.5527519,19 18,18.5561352 18,18 C18,17.4477153 17.5573397,17 17.0010434,17 L15,17 L15,17 Z M20,19.75 L20,16 L22.9951185,16 C24.1061002,16 25,16.8954305 25,18 C25,18.6003203 24.7385216,19.1352311 24.3237293,19.5004635 C24.7385553,19.8669242 25,20.4029055 25,21 C25,22.1122704 24.102384,23 22.9951185,23 L20,23 L20,19.75 L20,19.75 Z M21,17 L21,19 L23.0010434,19 C23.5527519,19 24,18.5561352 24,18 C24,17.4477153 23.5573397,17 23.0010434,17 L21,17 L21,17 Z M21,20 L21,22 L23.0010434,22 C23.5527519,22 24,21.5561352 24,21 C24,20.4477153 23.5573397,20 23.0010434,20 L21,20 L21,20 Z" id="document-file-rb" sketch:type="MSShapeGroup"></path>
        </g>
    </g>
</svg>