<?xml version="1.0" encoding="UTF-8" standalone="no"?>
<svg width="32px" height="32px" viewBox="0 0 32 32" version="1.1" xmlns="http://www.w3.org/2000/svg" xmlns:xlink="http://www.w3.org/1999/xlink" xmlns:sketch="http://www.bohemiancoding.com/sketch/ns">
    <!-- Generator: Sketch 3.0.3 (7891) - http://www.bohemiancoding.com/sketch -->
    <title>icon 38 file yml</title>
    <desc>Created with Sketch.</desc>
    <defs></defs>
    <g id="Page-1" stroke="none" stroke-width="1" fill="none" fill-rule="evenodd" sketch:type="MSPage">
        <g id="icon-38-file-yml" sketch:type="MSArtboardGroup" fill="#929292">
            <path d="M8.00684834,10 C6.34621185,10 5,11.3422643 5,12.9987856 L5,20.0012144 C5,21.6573979 6.33599155,23 8.00684834,23 L24.9931517,23 C26.6537881,23 28,21.6577357 28,20.0012144 L28,12.9987856 C28,11.3426021 26.6640085,10 24.9931517,10 L8.00684834,10 L8.00684834,10 Z M7.99456145,11 C6.89299558,11 6,11.9001762 6,12.992017 L6,20.007983 C6,21.1081436 6.90234375,22 7.99456145,22 L25.0054385,22 C26.1070044,22 27,21.0998238 27,20.007983 L27,12.992017 C27,11.8918564 26.0976562,11 25.0054385,11 L7.99456145,11 L7.99456145,11 Z M11,17 L11,20 L10,20 L10,17 L8,14 L8,13 L9,13 L9,14 L10.5,16.25 L12,14 L12,13 L13,13 L13,14 L11,17 L11,17 Z M16.5,16 L15,13 L14.5,13 L14,13 L14,20 L15,20 L15,15 L16,17 L16.5,17 L17,17 L18,15 L18,20 L19,20 L19,13 L18.5,13 L18,13 L16.5,16 L16.5,16 Z M25,19 L25,20 L20,20 L20,13 L21,13 L21,19 L25,19 L25,19 Z" id="file-yml" sketch:type="MSShapeGroup"></path>
        </g>
    </g>
</svg>