<?xml version="1.0" encoding="UTF-8" standalone="no"?>
<svg width="32px" height="32px" viewBox="0 0 32 32" version="1.1" xmlns="http://www.w3.org/2000/svg" xmlns:xlink="http://www.w3.org/1999/xlink" xmlns:sketch="http://www.bohemiancoding.com/sketch/ns">
    <!-- Generator: Sketch 3.0.3 (7891) - http://www.bohemiancoding.com/sketch -->
    <title>icon 32 file docx</title>
    <desc>Created with Sketch.</desc>
    <defs></defs>
    <g id="Page-1" stroke="none" stroke-width="1" fill="none" fill-rule="evenodd" sketch:type="MSPage">
        <g id="icon-32-file-docx" sketch:type="MSArtboardGroup" fill="#929292">
            <path d="M4.99428189,10 C3.34058566,10 2,11.3422643 2,12.9987856 L2,20.0012144 C2,21.6573979 3.3405687,23 4.99428189,23 L28.0057181,23 C29.6594143,23 31,21.6577357 31,20.0012144 L31,12.9987856 C31,11.3426021 29.6594313,10 28.0057181,10 L4.99428189,10 L4.99428189,10 Z M5.00732994,11 C3.89871223,11 3,11.9001762 3,12.992017 L3,20.007983 C3,21.1081436 3.89833832,22 5.00732994,22 L27.9926701,22 C29.1012878,22 30,21.0998238 30,20.007983 L30,12.992017 C30,11.8918564 29.1016617,11 27.9926701,11 L5.00732994,11 L5.00732994,11 Z M5,13 L5,20 L7.9951185,20 C9.10238398,20 10,19.1134452 10,17.9940809 L10,15.0059191 C10,13.8980806 9.1061002,13 7.9951185,13 L5,13 L5,13 Z M6,14 L6,19 L8.00104344,19 C8.55275191,19 9,18.5562834 9,18.0001925 L9,14.9998075 C9,14.4476291 8.55733967,14 8.00104344,14 L6,14 L6,14 Z M13.0048815,13 C11.897616,13 11,13.8865548 11,15.0059191 L11,17.9940809 C11,19.1019194 11.8938998,20 13.0048815,20 L13.9951185,20 C15.102384,20 16,19.1134452 16,17.9940809 L16,15.0059191 C16,13.8980806 15.1061002,13 13.9951185,13 L13.0048815,13 L13.0048815,13 Z M12.9989566,14 C12.4472481,14 12,14.4437166 12,14.9998075 L12,18.0001925 C12,18.5523709 12.4426603,19 12.9989566,19 L14.0010434,19 C14.5527519,19 15,18.5562834 15,18.0001925 L15,14.9998075 C15,14.4476291 14.5573397,14 14.0010434,14 L12.9989566,14 L12.9989566,14 Z M21.9999916,18 C21.9968339,19.1165689 21.1004316,20 19.9951185,20 L19.0048815,20 C17.8938998,20 17,19.1019194 17,17.9940809 L17,15.0059191 C17,13.8865548 17.897616,13 19.0048815,13 L19.9951185,13 C21.1041209,13 21.9968142,13.8948834 21.9999915,15 L21,15 C21,14.4476291 20.5573397,14 20.0010434,14 L18.9989566,14 C18.4472481,14 18,14.4437166 18,14.9998075 L18,18.0001925 C18,18.5523709 18.4426603,19 18.9989566,19 L20.0010434,19 C20.5527519,19 21,18.5562834 21,18.0001925 L21.9999923,18 L21.9999916,18 L21.9999916,18 Z M25,16.5 L23,13 L24,13 L25.5,15.625 L27,13 L28,13 L26,16.5 L28,20 L27,20 L25.5,17.375 L24,20 L23,20 L25,16.5 L25,16.5 Z" id="file-docx" sketch:type="MSShapeGroup"></path>
        </g>
    </g>
</svg>