<?xml version="1.0" encoding="UTF-8" standalone="no"?>
<svg width="32px" height="32px" viewBox="0 0 32 32" version="1.1" xmlns="http://www.w3.org/2000/svg" xmlns:xlink="http://www.w3.org/1999/xlink" xmlns:sketch="http://www.bohemiancoding.com/sketch/ns">
    <!-- Generator: Sketch 3.0.3 (7891) - http://www.bohemiancoding.com/sketch -->
    <title>icon 118 document file qt</title>
    <desc>Created with Sketch.</desc>
    <defs></defs>
    <g id="Page-1" stroke="none" stroke-width="1" fill="none" fill-rule="evenodd" sketch:type="MSPage">
        <g id="icon-118-document-file-qt" sketch:type="MSArtboardGroup" fill="#929292">
            <path d="M18.6756443,22.8827511 C18.463169,22.9587282 18.2340236,23 17.9951185,23 L17.0048815,23 C15.8938998,23 15,22.1019194 15,20.9940809 L15,18.0059191 C15,16.8865548 15.897616,16 17.0048815,16 L17.9951185,16 C19.1061002,16 20,16.8980806 20,18.0059191 L20,20.9940809 C20,21.4993595 19.8171018,21.9572008 19.5145823,22.3074755 L20.267767,23.0606602 L19.5606602,23.767767 L18.6756443,22.8827511 L18.6756443,22.8827511 L18.6756443,22.8827511 Z M17.7928932,22 L16.9989566,22 C16.4426603,22 16,21.5523709 16,21.0001925 L16,17.9998075 C16,17.4437166 16.4472481,17 16.9989566,17 L18.0010434,17 C18.5573397,17 19,17.4476291 19,17.9998075 L19,21.0001925 C19,21.2246463 18.9271364,21.4307925 18.8039499,21.5968431 L17.4393398,20.232233 L16.732233,20.9393398 L17.7928932,22 L17.7928932,22 Z M21,13 L21,10 L21,10 L15,3 L4.00276013,3 C2.89666625,3 2,3.89833832 2,5.00732994 L2,27.9926701 C2,29.1012878 2.89092539,30 3.99742191,30 L19.0025781,30 C20.1057238,30 21,29.1017876 21,28.0092049 L21,26 L28.9931517,26 C30.6537881,26 32,24.6577357 32,23.0012144 L32,15.9987856 C32,14.3426021 30.6640085,13 28.9931517,13 L21,13 L21,13 L21,13 Z M20,26 L20,28.0066023 C20,28.5550537 19.5523026,29 19.0000398,29 L3.9999602,29 C3.45470893,29 3,28.5543187 3,28.004543 L3,4.99545703 C3,4.45526288 3.44573523,4 3.9955775,4 L14,4 L14,8.99408095 C14,10.1134452 14.8944962,11 15.9979131,11 L20,11 L20,13 L12.0068483,13 C10.3462119,13 9,14.3422643 9,15.9987856 L9,23.0012144 C9,24.6573979 10.3359915,26 12.0068483,26 L20,26 L20,26 L20,26 Z M15,4.5 L15,8.99121523 C15,9.54835167 15.4506511,10 15.9967388,10 L19.6999512,10 L15,4.5 L15,4.5 Z M11.9945615,14 C10.8929956,14 10,14.9001762 10,15.992017 L10,23.007983 C10,24.1081436 10.9023438,25 11.9945615,25 L29.0054385,25 C30.1070044,25 31,24.0998238 31,23.007983 L31,15.992017 C31,14.8918564 30.0976562,14 29.0054385,14 L11.9945615,14 L11.9945615,14 Z M23,17 L23,23 L24,23 L24,17 L26,17 L26,16 L21,16 L21,17 L23,17 L23,17 Z" id="document-file-qt" sketch:type="MSShapeGroup"></path>
        </g>
    </g>
</svg>