<?xml version="1.0" encoding="UTF-8" standalone="no"?>
<svg width="32px" height="32px" viewBox="0 0 32 32" version="1.1" xmlns="http://www.w3.org/2000/svg" xmlns:xlink="http://www.w3.org/1999/xlink" xmlns:sketch="http://www.bohemiancoding.com/sketch/ns">
    <!-- Generator: Sketch 3.0.3 (7891) - http://www.bohemiancoding.com/sketch -->
    <title>icon 53 file quicktime</title>
    <desc>Created with Sketch.</desc>
    <defs></defs>
    <g id="Page-1" stroke="none" stroke-width="1" fill="none" fill-rule="evenodd" sketch:type="MSPage">
        <g id="icon-53-file-quicktime" sketch:type="MSArtboardGroup" fill="#929292">
            <path d="M14.6756443,19.8827511 C14.463169,19.9587282 14.2340236,20 13.9951185,20 L13.0048815,20 C11.8938998,20 11,19.1019194 11,17.9940809 L11,15.0059191 C11,13.8865548 11.897616,13 13.0048815,13 L13.9951185,13 C15.1061002,13 16,13.8980806 16,15.0059191 L16,17.9940809 C16,18.4993595 15.8171018,18.9572008 15.5145823,19.3074755 L16.267767,20.0606602 L15.5606602,20.767767 L14.6756443,19.8827511 L14.6756443,19.8827511 L14.6756443,19.8827511 Z M13.7928932,19 L12.9989566,19 C12.4426603,19 12,18.5523709 12,18.0001925 L12,14.9998075 C12,14.4437166 12.4472481,14 12.9989566,14 L14.0010434,14 C14.5573397,14 15,14.4476291 15,14.9998075 L15,18.0001925 C15,18.2246463 14.9271364,18.4307925 14.8039499,18.5968431 L13.4393398,17.232233 L12.732233,17.9393398 L13.7928932,19 L13.7928932,19 L13.7928932,19 Z M8.00684834,10 C6.34621185,10 5,11.3422643 5,12.9987856 L5,20.0012144 C5,21.6573979 6.33599155,23 8.00684834,23 L24.9931517,23 C26.6537881,23 28,21.6577357 28,20.0012144 L28,12.9987856 C28,11.3426021 26.6640085,10 24.9931517,10 L8.00684834,10 L8.00684834,10 Z M7.99456145,11 C6.89299558,11 6,11.9001762 6,12.992017 L6,20.007983 C6,21.1081436 6.90234375,22 7.99456145,22 L25.0054385,22 C26.1070044,22 27,21.0998238 27,20.007983 L27,12.992017 C27,11.8918564 26.0976562,11 25.0054385,11 L7.99456145,11 L7.99456145,11 Z M19,14 L19,20 L20,20 L20,14 L22,14 L22,13 L17,13 L17,14 L19,14 L19,14 Z" id="file-quicktime" sketch:type="MSShapeGroup"></path>
        </g>
    </g>
</svg>