<?xml version="1.0" encoding="UTF-8" standalone="no"?>
<svg width="32px" height="32px" viewBox="0 0 32 32" version="1.1" xmlns="http://www.w3.org/2000/svg" xmlns:xlink="http://www.w3.org/1999/xlink" xmlns:sketch="http://www.bohemiancoding.com/sketch/ns">
    <!-- Generator: Sketch 3.0.3 (7891) - http://www.bohemiancoding.com/sketch -->
    <title>icon 34 award</title>
    <desc>Created with Sketch.</desc>
    <defs></defs>
    <g id="Page-1" stroke="none" stroke-width="1" fill="none" fill-rule="evenodd" sketch:type="MSPage">
        <g id="icon-34-award" sketch:type="MSArtboardGroup" fill="#157EFB">
            <path d="M16.0072233,19.9999807 L11.6014826,31.4773277 L9.87584513,27.6014826 L6,29.32712 L10.3529754,17.9872315 C8.32301176,16.3370448 7.02605283,13.8199829 7.02605283,11 C7.02605283,6.02943725 11.0554901,2 16.0260528,2 C20.9966156,2 25.0260528,6.02943725 25.0260528,11 C25.0260528,13.8199829 23.7290939,16.3370448 21.6991303,17.9872315 L26.0521057,29.32712 L22.1762605,27.6014826 L20.4506231,31.4773277 L16.0448824,19.9999807 C16.0386073,19.9999936 16.0323308,20 16.0260528,20 C16.0197748,20 16.0134983,19.9999936 16.0072233,19.9999807 L16.0072233,19.9999807 L16.0072233,19.9999807 Z M14.9600512,19.937529 L11.527983,28.8783724 L10.3775581,26.2944757 L7.79366132,27.4449006 L11.1916968,18.5927156 C12.3050465,19.3030744 13.5850946,19.7752756 14.9600512,19.937529 L14.9600512,19.937529 L14.9600512,19.937529 Z M20.8604089,18.5927156 L24.2584443,27.4449006 L21.6745476,26.2944757 L20.5241226,28.8783724 L17.0920544,19.937529 C18.467011,19.7752756 19.7470592,19.3030744 20.8604089,18.5927156 L20.8604089,18.5927156 L20.8604089,18.5927156 Z M16.0260528,19 C20.4443308,19 24.0260528,15.418278 24.0260528,11 C24.0260528,6.581722 20.4443308,3 16.0260528,3 C11.6077748,3 8.02605283,6.581722 8.02605283,11 C8.02605283,15.418278 11.6077748,19 16.0260528,19 L16.0260528,19 Z M16.0260528,13.6923077 L12.5260528,16 L14.0260528,12 L11.0260528,10 L14.5260528,10 L16.0260528,6 L17.5260528,10 L21.0260528,10 L18.0260528,12 L19.5260528,16 L16.0260528,13.6923077 L16.0260528,13.6923077 Z" id="award" sketch:type="MSShapeGroup"></path>
        </g>
    </g>
</svg>