<?xml version="1.0" encoding="UTF-8" standalone="no"?>
<svg width="32px" height="32px" viewBox="0 0 32 32" version="1.1" xmlns="http://www.w3.org/2000/svg" xmlns:xlink="http://www.w3.org/1999/xlink" xmlns:sketch="http://www.bohemiancoding.com/sketch/ns">
    <!-- Generator: Sketch 3.0.3 (7891) - http://www.bohemiancoding.com/sketch -->
    <title>icon 3 tennis ball</title>
    <desc>Created with Sketch.</desc>
    <defs></defs>
    <g id="Page-1" stroke="none" stroke-width="1" fill="none" fill-rule="evenodd" sketch:type="MSPage">
        <g id="icon-3-tennis-ball" sketch:type="MSArtboardGroup" fill="#157EFB">
            <path d="M24.2941063,8.04403932 C22.2449436,6.15431385 19.5072741,5 16.5,5 C13.4927259,5 10.7550564,6.15431385 8.7058937,8.04403932 L8.70589371,8.04403932 C10.751268,10.2696426 12,13.2389927 12,16.5 C12,19.7610073 10.751268,22.7303574 8.70589371,24.9559607 C10.7550564,26.8456862 13.4927259,28 16.5,28 C19.5072741,28 22.2449436,26.8456862 24.2941063,24.9559607 C22.248732,22.7303574 21,19.7610073 21,16.5 C21,13.2389927 22.248732,10.2696426 24.2941063,8.04403932 L24.2941063,8.04403932 Z M25,8.75391932 C26.8636046,10.7977359 28,13.5161582 28,16.5 C28,19.4838418 26.8636046,22.2022641 25,24.2460807 C23.1363954,22.2022641 22,19.4838418 22,16.5 C22,13.5161582 23.1363954,10.7977359 25,8.75391932 L25,8.75391932 Z M8,8.75391932 C6.13639541,10.7977359 5,13.5161582 5,16.5 C5,19.4838418 6.13639541,22.2022641 8,24.2460807 C9.86360459,22.2022641 11,19.4838418 11,16.5 C11,13.5161582 9.86360459,10.7977359 8,8.75391932 L8,8.75391932 L8,8.75391932 Z M16.5,29 C23.4035597,29 29,23.4035597 29,16.5 C29,9.59644029 23.4035597,4 16.5,4 C9.59644029,4 4,9.59644029 4,16.5 C4,23.4035597 9.59644029,29 16.5,29 L16.5,29 Z" id="tennis-ball" sketch:type="MSShapeGroup"></path>
        </g>
    </g>
</svg>