<?xml version="1.0" encoding="UTF-8" standalone="no"?>
<svg width="32px" height="32px" viewBox="0 0 32 32" version="1.1" xmlns="http://www.w3.org/2000/svg" xmlns:xlink="http://www.w3.org/1999/xlink" xmlns:sketch="http://www.bohemiancoding.com/sketch/ns">
    <!-- Generator: Sketch 3.0.3 (7891) - http://www.bohemiancoding.com/sketch -->
    <title>icon 55 compass east</title>
    <desc>Created with Sketch.</desc>
    <defs></defs>
    <g id="Page-1" stroke="none" stroke-width="1" fill="none" fill-rule="evenodd" sketch:type="MSPage">
        <g id="icon-55-compass-east" sketch:type="MSArtboardGroup" fill="#929292">
            <path d="M16,29 C23.1797021,29 29,23.1797021 29,16 C29,8.8202979 23.1797021,3 16,3 C8.8202979,3 3,8.8202979 3,16 C3,23.1797021 8.8202979,29 16,29 L16,29 Z M16,28 C22.6274173,28 28,22.6274173 28,16 C28,9.37258267 22.6274173,4 16,4 C9.37258267,4 4,9.37258267 4,16 C4,22.6274173 9.37258267,28 16,28 L16,28 Z M16,27 C22.0751325,27 27,22.0751325 27,16 C27,9.92486745 22.0751325,5 16,5 C9.92486745,5 5,9.92486745 5,16 C5,22.0751325 9.92486745,27 16,27 L16,27 Z M16,19 C14.3431458,19 13,17.6534829 13,16 C13,14.3431458 14.3368622,13 16,13 C18,13 25,16 25,16 C25,16 18,19 16,19 L16,19 Z M16,18 C17.1045696,18 18,17.1045696 18,16 C18,14.8954304 17.1045696,14 16,14 C14.8954304,14 14,14.8954304 14,16 C14,17.1045696 14.8954304,18 16,18 L16,18 Z" id="compass-east" sketch:type="MSShapeGroup"></path>
        </g>
    </g>
</svg>