<?xml version="1.0" encoding="UTF-8" standalone="no"?>
<svg width="32px" height="32px" viewBox="0 0 32 32" version="1.1" xmlns="http://www.w3.org/2000/svg" xmlns:xlink="http://www.w3.org/1999/xlink" xmlns:sketch="http://www.bohemiancoding.com/sketch/ns">
    <!-- Generator: Sketch 3.0.3 (7891) - http://www.bohemiancoding.com/sketch -->
    <title>icon 43 wind</title>
    <desc>Created with Sketch.</desc>
    <defs></defs>
    <g id="Page-1" stroke="none" stroke-width="1" fill="none" fill-rule="evenodd" sketch:type="MSPage">
        <g id="icon-43-wind" sketch:type="MSArtboardGroup" fill="#929292">
            <path d="M30,14 C30,11.790861 28.2046438,10 26,10 C23.790861,10 22,11.7894101 22,14 L24,14 C24,12.8954305 24.8877296,12 26,12 C27.1045695,12 28,12.8877296 28,14 C28,15.1045695 27.1102368,16 25.9964051,16 L3,16 L3,18 L26.0015293,18 C28.2098237,18 30,16.2046438 30,14 L30,14 Z M21,10 C21,7.790861 19.2046438,6 17,6 C14.790861,6 13,7.78941011 13,9.99710083 L13,10 L15,10 C15,8.8954305 15.8877296,8 17,8 C18.1045695,8 19,8.88772964 19,10 C19,11.1045695 18.1029399,12 16.9941413,12 L5,12 L5,14 L17.0037973,14 C19.2108391,14 21,12.2046438 21,10 L21,10 Z M26,23 C26,24.6568542 24.6534829,26 23,26 L23,26 C21.3431458,26 20,24.6579424 20,23.008606 L20,23 L22,23 C22,23.5522847 22.4438648,24 23,24 L23,24 C23.5522847,24 24,23.5561352 24,23 L24,23 C24,22.4477153 23.5510798,22 22.992516,22 L9,22 L9,20 L22.9998738,20 C24.6567977,20 26,21.3465171 26,23 L26,23 L26,23 Z" id="wind" sketch:type="MSShapeGroup"></path>
        </g>
    </g>
</svg>