<?xml version="1.0" encoding="UTF-8" standalone="no"?>
<svg width="32px" height="32px" viewBox="0 0 32 32" version="1.1" xmlns="http://www.w3.org/2000/svg" xmlns:xlink="http://www.w3.org/1999/xlink" xmlns:sketch="http://www.bohemiancoding.com/sketch/ns">
    <!-- Generator: Sketch 3.0.3 (7891) - http://www.bohemiancoding.com/sketch -->
    <title>icon 51 crescent</title>
    <desc>Created with Sketch.</desc>
    <defs></defs>
    <g id="Page-1" stroke="none" stroke-width="1" fill="none" fill-rule="evenodd" sketch:type="MSPage">
        <g id="icon-51-crescent" sketch:type="MSArtboardGroup" fill="#929292">
            <path d="M15,12.1260175 C15.3196199,12.043753 15.6547004,12 16,12 C18.2091391,12 20,13.7908609 20,16 C20,18.2091391 18.2091391,20 16,20 C15.6547004,20 15.3196199,19.956247 15,19.8739825 C16.7252273,19.4299398 18,17.8638395 18,16 C18,14.1361605 16.7252273,12.5700602 15,12.1260175 L15,12.1260175 Z M16,22 C19.3137087,22 22,19.3137087 22,16 C22,12.6862913 19.3137087,10 16,10 C12.6862913,10 10,12.6862913 10,16 C10,19.3137087 12.6862913,22 16,22 L16,22 Z" id="crescent" sketch:type="MSShapeGroup"></path>
        </g>
    </g>
</svg>