<?xml version="1.0" encoding="UTF-8" standalone="no"?>
<svg width="32px" height="32px" viewBox="0 0 32 32" version="1.1" xmlns="http://www.w3.org/2000/svg" xmlns:xlink="http://www.w3.org/1999/xlink" xmlns:sketch="http://www.bohemiancoding.com/sketch/ns">
    <!-- Generator: Sketch 3.0.3 (7891) - http://www.bohemiancoding.com/sketch -->
    <title>icon 40 clouds</title>
    <desc>Created with Sketch.</desc>
    <defs></defs>
    <g id="Page-1" stroke="none" stroke-width="1" fill="none" fill-rule="evenodd" sketch:type="MSPage">
        <g id="icon-40-clouds" sketch:type="MSArtboardGroup" fill="#929292">
            <path d="M28.1943501,18.9948943 C30.3093646,18.8887454 32,17.1407663 32,15 C32,13.0993301 30.6657571,11.5028644 28.8788882,11.0987593 C28.9581685,10.7451983 29,10.3774843 29,10 C29,7.23857611 26.7614239,5 24,5 C22.1316704,5 20.5026812,6.02473767 19.6444181,7.54282742 C19.006928,7.19663691 18.2764275,7 17.5,7 C15.7715748,7 14.2707473,7.97446081 13.5169342,9.40396558 C14.8100008,9.83219654 15.9568439,10.5813788 16.8630774,11.5571263 C17.6689817,11.1990038 18.5612509,11 19.5,11 C22.8465273,11 25.6023715,13.5290132 25.9605846,16.7800915 C26.8872675,17.3068123 27.6599548,18.0731787 28.1943501,18.9948943 L28.1943501,18.9948943 L28.1943501,18.9948943 Z M28,22 C28,24.7558048 25.7616745,27 23.0005601,27 L5.99943992,27 C3.23249418,27 1,24.7614237 1,22 C1,19.9491311 2.23965876,18.1816085 4.01189661,17.4115388 C4.00400207,17.275367 4,17.1381509 4,17 C4,13.1340066 7.13400656,10 11,10 C13.2979469,10 15.3372745,11.1072805 16.6135384,12.8173973 C17.4525719,12.299097 18.441357,12 19.5,12 C22.5090248,12 24.9536744,14.4163763 24.9993494,17.4145295 C26.7676457,18.1852931 28,19.9483386 28,22 L28,22 Z" id="clouds" sketch:type="MSShapeGroup"></path>
        </g>
    </g>
</svg>