<?xml version="1.0" encoding="UTF-8" standalone="no"?>
<svg width="32px" height="32px" viewBox="0 0 32 32" version="1.1" xmlns="http://www.w3.org/2000/svg" xmlns:xlink="http://www.w3.org/1999/xlink" xmlns:sketch="http://www.bohemiancoding.com/sketch/ns">
    <!-- Generator: Sketch 3.0.3 (7891) - http://www.bohemiancoding.com/sketch -->
    <title>icon 14 cloud raindrops</title>
    <desc>Created with Sketch.</desc>
    <defs></defs>
    <g id="Page-1" stroke="none" stroke-width="1" fill="none" fill-rule="evenodd" sketch:type="MSPage">
        <g id="icon-14-cloud-raindrops" sketch:type="MSArtboardGroup" fill="#929292">
            <path d="M26.9993494,14.4145295 C28.7676457,15.1852931 30,16.9483386 30,19 C30,21.7558048 27.7616745,24 25.0005601,24 L7.99943992,24 C5.23249418,24 3,21.7614237 3,19 C3,16.9491311 4.23965876,15.1816085 6.01189661,14.4115388 L6.01189661,14.4115388 C6.00400207,14.275367 6,14.1381509 6,14 C6,10.1340066 9.13400656,7 13,7 C15.2979469,7 17.3372745,8.10728055 18.6135384,9.81739735 C19.4525719,9.29909701 20.441357,9 21.5,9 C24.5090248,9 26.9536744,11.4163763 26.9993494,14.4145295 L26.9993494,14.4145295 Z M7,28.8571429 C7.00000081,27.4135338 9.51053481,25 9.51053481,25 C9.51053481,25 11.9999999,27.4135338 12,28.8571429 C12,29.8857247 11.1872547,30.9999997 9.51053481,31 C7.83381492,31.0000003 6.99999942,29.9714181 7,28.8571429 L7,28.8571429 Z M14,29.8571429 C14.0000008,28.4135338 16.5105348,26 16.5105348,26 C16.5105348,26 18.9999999,28.4135338 19,29.8571429 C19,30.8857247 18.1872547,31.9999997 16.5105348,32 C14.8338149,32.0000003 13.9999994,30.9714181 14,29.8571429 L14,29.8571429 Z M21,28.8571429 C21.0000008,27.4135338 23.5105348,25 23.5105348,25 C23.5105348,25 25.9999999,27.4135338 26,28.8571429 C26,29.8857247 25.1872547,30.9999997 23.5105348,31 C21.8338149,31.0000003 20.9999994,29.9714181 21,28.8571429 L21,28.8571429 Z" id="cloud-raindrops" sketch:type="MSShapeGroup"></path>
        </g>
    </g>
</svg>